<svg xmlns="http://www.w3.org/2000/svg" xmlns:xlink="http://www.w3.org/1999/xlink" width="500" zoomAndPan="magnify" viewBox="0 0 375 374.999991" height="500" preserveAspectRatio="xMidYMid meet" version="1.0"><defs><g/></defs><g fill="#000000" fill-opacity="1"><g transform="translate(28.053108, 240.293919)"><g><path d="M 27.453125 0.921875 C 24.460938 0.921875 21.6875 0.507812 19.125 -0.3125 C 16.5625 -1.144531 14.347656 -2.335938 12.484375 -3.890625 C 10.628906 -5.441406 9.164062 -7.316406 8.09375 -9.515625 C 7.03125 -11.710938 6.46875 -14.179688 6.40625 -16.921875 L 15.09375 -16.921875 C 15.09375 -15.335938 15.410156 -13.90625 16.046875 -12.625 C 16.691406 -11.34375 17.59375 -10.242188 18.75 -9.328125 C 19.914062 -8.410156 21.257812 -7.691406 22.78125 -7.171875 C 24.3125 -6.660156 25.929688 -6.40625 27.640625 -6.40625 C 31.472656 -6.40625 34.519531 -7.300781 36.78125 -9.09375 C 39.039062 -10.894531 40.171875 -13.351562 40.171875 -16.46875 C 40.171875 -19.09375 39.347656 -21.425781 37.703125 -23.46875 C 36.054688 -25.507812 33.675781 -27.113281 30.5625 -28.28125 L 23.609375 -30.828125 C 13.421875 -34.554688 8.328125 -40.71875 8.328125 -49.3125 C 8.328125 -54.800781 10.0625 -59.085938 13.53125 -62.171875 C 17.007812 -65.253906 21.800781 -66.796875 27.90625 -66.796875 C 30.769531 -66.796875 33.390625 -66.398438 35.765625 -65.609375 C 38.148438 -64.816406 40.210938 -63.65625 41.953125 -62.125 C 43.691406 -60.601562 45.0625 -58.757812 46.0625 -56.59375 C 47.070312 -54.425781 47.609375 -52 47.671875 -49.3125 L 38.984375 -49.3125 C 38.984375 -50.84375 38.675781 -52.234375 38.0625 -53.484375 C 37.457031 -54.734375 36.648438 -55.800781 35.640625 -56.6875 C 34.628906 -57.570312 33.453125 -58.253906 32.109375 -58.734375 C 30.773438 -59.222656 29.34375 -59.46875 27.8125 -59.46875 C 24.332031 -59.46875 21.601562 -58.644531 19.625 -57 C 17.644531 -55.351562 16.65625 -53.128906 16.65625 -50.328125 C 16.65625 -47.578125 17.398438 -45.300781 18.890625 -43.5 C 20.390625 -41.707031 22.816406 -40.203125 26.171875 -38.984375 L 33.484375 -36.328125 C 38.367188 -34.554688 42.09375 -31.992188 44.65625 -28.640625 C 47.21875 -25.285156 48.5 -21.320312 48.5 -16.75 C 48.5 -11.257812 46.617188 -6.941406 42.859375 -3.796875 C 39.109375 -0.648438 33.972656 0.921875 27.453125 0.921875 Z M 27.453125 0.921875 "/></g></g></g><g fill="#000000" fill-opacity="1"><g transform="translate(75.817154, 240.293919)"><g><path d="M 5.484375 -50.328125 L 20.125 -50.328125 L 20.125 -65.875 L 28.359375 -65.875 L 28.359375 -50.328125 L 48.03125 -50.328125 L 48.03125 -42.828125 L 28.359375 -42.828125 L 28.359375 -13 C 28.359375 -11.289062 28.890625 -9.945312 29.953125 -8.96875 C 31.023438 -7.988281 32.476562 -7.5 34.3125 -7.5 L 47.125 -7.5 L 47.125 0 L 34.3125 0 C 29.976562 0 26.53125 -1.1875 23.96875 -3.5625 C 21.40625 -5.945312 20.125 -9.09375 20.125 -13 L 20.125 -42.828125 L 5.484375 -42.828125 Z M 5.484375 -50.328125 "/></g></g></g><g fill="#000000" fill-opacity="1"><g transform="translate(123.581199, 240.293919)"><g><path d="M 5.765625 -14.640625 C 5.765625 -17.015625 6.175781 -19.160156 7 -21.078125 C 7.820312 -23.003906 9.007812 -24.640625 10.5625 -25.984375 C 12.125 -27.328125 14 -28.363281 16.1875 -29.09375 C 18.382812 -29.820312 20.859375 -30.1875 23.609375 -30.1875 L 38.609375 -30.1875 L 38.609375 -34.3125 C 38.609375 -37.425781 37.585938 -39.847656 35.546875 -41.578125 C 33.503906 -43.316406 30.5625 -44.1875 26.71875 -44.1875 C 23.914062 -44.1875 21.519531 -43.664062 19.53125 -42.625 C 17.550781 -41.59375 16.226562 -40.164062 15.5625 -38.34375 L 7.3125 -38.34375 C 8.164062 -42.300781 10.347656 -45.4375 13.859375 -47.75 C 17.367188 -50.070312 21.71875 -51.234375 26.90625 -51.234375 C 33.125 -51.234375 38 -49.785156 41.53125 -46.890625 C 45.070312 -43.992188 46.84375 -39.953125 46.84375 -34.765625 L 46.84375 0 L 39.34375 0 L 39.34375 -9.609375 L 38.609375 -9.609375 C 37.816406 -6.378906 35.957031 -3.816406 33.03125 -1.921875 C 30.101562 -0.0234375 26.535156 0.921875 22.328125 0.921875 C 17.265625 0.921875 13.238281 -0.476562 10.25 -3.28125 C 7.257812 -6.09375 5.765625 -9.878906 5.765625 -14.640625 Z M 24.15625 -5.859375 C 26.226562 -5.859375 28.148438 -6.128906 29.921875 -6.671875 C 31.691406 -7.222656 33.21875 -8 34.5 -9 C 35.78125 -10.007812 36.785156 -11.1875 37.515625 -12.53125 C 38.242188 -13.875 38.609375 -15.335938 38.609375 -16.921875 L 38.609375 -23.796875 L 23.796875 -23.796875 C 20.742188 -23.796875 18.347656 -23 16.609375 -21.40625 C 14.867188 -19.820312 14 -17.628906 14 -14.828125 C 14 -12.015625 14.882812 -9.816406 16.65625 -8.234375 C 18.425781 -6.648438 20.925781 -5.859375 24.15625 -5.859375 Z M 24.15625 -5.859375 "/></g></g></g><g fill="#000000" fill-opacity="1"><g transform="translate(171.345248, 240.293919)"><g><path d="M 28.1875 0.921875 C 25.070312 0.921875 22.28125 0.460938 19.8125 -0.453125 C 17.34375 -1.367188 15.238281 -2.679688 13.5 -4.390625 C 11.757812 -6.097656 10.414062 -8.171875 9.46875 -10.609375 C 8.519531 -13.054688 8.046875 -15.769531 8.046875 -18.75 L 8.046875 -31.5625 C 8.046875 -34.550781 8.519531 -37.265625 9.46875 -39.703125 C 10.414062 -42.148438 11.757812 -44.226562 13.5 -45.9375 C 15.238281 -47.644531 17.34375 -48.953125 19.8125 -49.859375 C 22.28125 -50.773438 25.070312 -51.234375 28.1875 -51.234375 C 33.738281 -51.234375 38.296875 -49.722656 41.859375 -46.703125 C 45.429688 -43.691406 47.582031 -39.5625 48.3125 -34.3125 L 40.078125 -34.3125 C 39.648438 -37.238281 38.351562 -39.570312 36.1875 -41.3125 C 34.019531 -43.050781 31.351562 -43.921875 28.1875 -43.921875 C 24.519531 -43.921875 21.617188 -42.820312 19.484375 -40.625 C 17.347656 -38.425781 16.28125 -35.40625 16.28125 -31.5625 L 16.28125 -18.75 C 16.28125 -14.914062 17.332031 -11.898438 19.4375 -9.703125 C 21.539062 -7.503906 24.457031 -6.40625 28.1875 -6.40625 C 31.351562 -6.40625 34.019531 -7.273438 36.1875 -9.015625 C 38.351562 -10.753906 39.648438 -13.085938 40.078125 -16.015625 L 48.3125 -16.015625 C 47.519531 -10.703125 45.335938 -6.550781 41.765625 -3.5625 C 38.203125 -0.570312 33.675781 0.921875 28.1875 0.921875 Z M 28.1875 0.921875 "/></g></g></g><g fill="#000000" fill-opacity="1"><g transform="translate(219.109291, 240.293919)"><g><path d="M 16.75 -66.796875 L 16.75 -29.28125 L 26.625 -29.28125 L 42 -50.328125 L 51.421875 -50.328125 L 33.578125 -25.984375 L 51.703125 0 L 42.09375 0 L 26.71875 -21.953125 L 16.75 -21.953125 L 16.75 0 L 8.515625 0 L 8.515625 -66.796875 Z M 16.75 -66.796875 "/></g></g></g><g fill="#000000" fill-opacity="1"><g transform="translate(29.246084, 161.502082)"><g><path d="M 8.6875 0 L 8.6875 -65.828125 L 47.546875 -65.828125 L 47.546875 -58.34375 L 16.921875 -58.34375 L 16.921875 -37.671875 L 44.34375 -37.671875 L 44.34375 -30.171875 L 16.921875 -30.171875 L 16.921875 -7.5 L 47.546875 -7.5 L 47.546875 0 Z M 8.6875 0 "/></g></g></g><g fill="#000000" fill-opacity="1"><g transform="translate(76.974753, 161.502082)"><g><path d="M 28.53125 -66.75 L 28.53125 -14.625 C 28.53125 -12.375 29.140625 -10.625 30.359375 -9.375 C 31.578125 -8.125 33.253906 -7.5 35.390625 -7.5 L 50.296875 -7.5 L 50.296875 0 L 35.390625 0 C 30.691406 0 27 -1.289062 24.3125 -3.875 C 21.632812 -6.46875 20.296875 -10.050781 20.296875 -14.625 L 20.296875 -59.25 L 3.65625 -59.25 L 3.65625 -66.75 Z M 28.53125 -66.75 "/></g></g></g><g fill="#000000" fill-opacity="1"><g transform="translate(124.703422, 161.502082)"><g><path d="M 27.4375 0.921875 C 21.15625 0.921875 16.226562 -0.785156 12.65625 -4.203125 C 9.09375 -7.617188 7.3125 -12.3125 7.3125 -18.28125 L 7.3125 -32 C 7.3125 -37.976562 9.09375 -42.671875 12.65625 -46.078125 C 16.226562 -49.492188 21.15625 -51.203125 27.4375 -51.203125 C 33.707031 -51.203125 38.625 -49.492188 42.1875 -46.078125 C 45.757812 -42.671875 47.546875 -37.976562 47.546875 -32 L 47.546875 -22.765625 L 15.546875 -22.765625 L 15.546875 -18.75 C 15.546875 -14.90625 16.597656 -11.882812 18.703125 -9.6875 C 20.804688 -7.5 23.71875 -6.40625 27.4375 -6.40625 C 30.175781 -6.40625 32.550781 -6.828125 34.5625 -7.671875 C 36.570312 -8.523438 38.066406 -9.78125 39.046875 -11.4375 L 47.265625 -11.4375 C 46.234375 -7.59375 43.929688 -4.570312 40.359375 -2.375 C 36.796875 -0.175781 32.488281 0.921875 27.4375 0.921875 Z M 39.3125 -29.625 L 39.3125 -32 C 39.3125 -35.78125 38.273438 -38.707031 36.203125 -40.78125 C 34.128906 -42.851562 31.207031 -43.890625 27.4375 -43.890625 C 23.65625 -43.890625 20.726562 -42.851562 18.65625 -40.78125 C 16.582031 -38.707031 15.546875 -35.78125 15.546875 -32 L 15.546875 -29.625 Z M 39.3125 -29.625 "/></g></g></g><g fill="#000000" fill-opacity="1"><g transform="translate(172.432095, 161.502082)"><g><path d="M 4.578125 -50.296875 L 13.265625 -50.296875 L 25.515625 -14.71875 C 26.003906 -13.320312 26.367188 -12.085938 26.609375 -11.015625 C 26.847656 -9.953125 27.03125 -9.054688 27.15625 -8.328125 C 27.28125 -7.410156 27.34375 -6.613281 27.34375 -5.9375 L 28.15625 -5.9375 C 28.101562 -6.613281 28.132812 -7.410156 28.25 -8.328125 C 28.375 -9.054688 28.523438 -9.953125 28.703125 -11.015625 C 28.890625 -12.085938 29.226562 -13.320312 29.71875 -14.71875 L 41.328125 -50.296875 L 50.296875 -50.296875 L 32.28125 0 L 22.953125 0 Z M 4.578125 -50.296875 "/></g></g></g><g fill="#000000" fill-opacity="1"><g transform="translate(220.16076, 161.502082)"><g><path d="M 5.765625 -14.625 C 5.765625 -17.007812 6.175781 -19.160156 7 -21.078125 C 7.820312 -22.992188 9.007812 -24.625 10.5625 -25.96875 C 12.113281 -27.3125 13.984375 -28.347656 16.171875 -29.078125 C 18.367188 -29.804688 20.84375 -30.171875 23.59375 -30.171875 L 38.59375 -30.171875 L 38.59375 -34.296875 C 38.59375 -37.398438 37.566406 -39.820312 35.515625 -41.5625 C 33.472656 -43.300781 30.535156 -44.171875 26.703125 -44.171875 C 23.898438 -44.171875 21.503906 -43.648438 19.515625 -42.609375 C 17.535156 -41.578125 16.210938 -40.144531 15.546875 -38.3125 L 7.3125 -38.3125 C 8.164062 -42.269531 10.34375 -45.40625 13.84375 -47.71875 C 17.351562 -50.039062 21.695312 -51.203125 26.875 -51.203125 C 33.09375 -51.203125 37.96875 -49.753906 41.5 -46.859375 C 45.039062 -43.960938 46.8125 -39.925781 46.8125 -34.75 L 46.8125 0 L 39.3125 0 L 39.3125 -9.59375 L 38.59375 -9.59375 C 37.789062 -6.363281 35.925781 -3.800781 33 -1.90625 C 30.082031 -0.0195312 26.519531 0.921875 22.3125 0.921875 C 17.25 0.921875 13.222656 -0.476562 10.234375 -3.28125 C 7.253906 -6.09375 5.765625 -9.875 5.765625 -14.625 Z M 24.140625 -5.859375 C 26.210938 -5.859375 28.128906 -6.128906 29.890625 -6.671875 C 31.660156 -7.222656 33.1875 -8 34.46875 -9 C 35.75 -10.007812 36.753906 -11.179688 37.484375 -12.515625 C 38.222656 -13.859375 38.59375 -15.328125 38.59375 -16.921875 L 38.59375 -23.78125 L 23.78125 -23.78125 C 20.726562 -23.78125 18.332031 -22.984375 16.59375 -21.390625 C 14.851562 -19.804688 13.984375 -17.613281 13.984375 -14.8125 C 13.984375 -12.007812 14.867188 -9.816406 16.640625 -8.234375 C 18.410156 -6.648438 20.910156 -5.859375 24.140625 -5.859375 Z M 24.140625 -5.859375 "/></g></g></g><g fill="#000000" fill-opacity="1"><g transform="translate(267.889439, 161.502082)"><g><path d="M 5.484375 -50.296875 L 20.109375 -50.296875 L 20.109375 -65.828125 L 28.34375 -65.828125 L 28.34375 -50.296875 L 48 -50.296875 L 48 -42.796875 L 28.34375 -42.796875 L 28.34375 -12.984375 C 28.34375 -11.273438 28.875 -9.929688 29.9375 -8.953125 C 31.007812 -7.984375 32.460938 -7.5 34.296875 -7.5 L 47.09375 -7.5 L 47.09375 0 L 34.296875 0 C 29.960938 0 26.515625 -1.1875 23.953125 -3.5625 C 21.390625 -5.9375 20.109375 -9.078125 20.109375 -12.984375 L 20.109375 -42.796875 L 5.484375 -42.796875 Z M 5.484375 -50.296875 "/></g></g></g><g fill="#000000" fill-opacity="1"><g transform="translate(315.618104, 161.502082)"><g><path d="M 27.4375 0.921875 C 21.15625 0.921875 16.226562 -0.785156 12.65625 -4.203125 C 9.09375 -7.617188 7.3125 -12.3125 7.3125 -18.28125 L 7.3125 -32 C 7.3125 -37.976562 9.09375 -42.671875 12.65625 -46.078125 C 16.226562 -49.492188 21.15625 -51.203125 27.4375 -51.203125 C 33.707031 -51.203125 38.625 -49.492188 42.1875 -46.078125 C 45.757812 -42.671875 47.546875 -37.976562 47.546875 -32 L 47.546875 -22.765625 L 15.546875 -22.765625 L 15.546875 -18.75 C 15.546875 -14.90625 16.597656 -11.882812 18.703125 -9.6875 C 20.804688 -7.5 23.71875 -6.40625 27.4375 -6.40625 C 30.175781 -6.40625 32.550781 -6.828125 34.5625 -7.671875 C 36.570312 -8.523438 38.066406 -9.78125 39.046875 -11.4375 L 47.265625 -11.4375 C 46.234375 -7.59375 43.929688 -4.570312 40.359375 -2.375 C 36.796875 -0.175781 32.488281 0.921875 27.4375 0.921875 Z M 39.3125 -29.625 L 39.3125 -32 C 39.3125 -35.78125 38.273438 -38.707031 36.203125 -40.78125 C 34.128906 -42.851562 31.207031 -43.890625 27.4375 -43.890625 C 23.65625 -43.890625 20.726562 -42.851562 18.65625 -40.78125 C 16.582031 -38.707031 15.546875 -35.78125 15.546875 -32 L 15.546875 -29.625 Z M 39.3125 -29.625 "/></g></g></g><g fill="#000000" fill-opacity="1"><g transform="translate(31.652981, 313.698229)"><g><path d="M 15.875 -58.625 L 15.875 -6.671875 L 43.5625 -6.671875 L 43.5625 0 L 8.546875 0 L 8.546875 -58.625 Z M 15.875 -58.625 "/></g></g></g><g fill="#000000" fill-opacity="1"><g transform="translate(74.153882, 313.698229)"><g><path d="M 24.421875 0.8125 C 18.835938 0.8125 14.457031 -0.707031 11.28125 -3.75 C 8.101562 -6.789062 6.515625 -10.96875 6.515625 -16.28125 L 6.515625 -28.5 C 6.515625 -33.820312 8.101562 -38 11.28125 -41.03125 C 14.457031 -44.070312 18.835938 -45.59375 24.421875 -45.59375 C 30.015625 -45.59375 34.398438 -44.070312 37.578125 -41.03125 C 40.753906 -38 42.34375 -33.820312 42.34375 -28.5 L 42.34375 -20.28125 L 13.84375 -20.28125 L 13.84375 -16.6875 C 13.84375 -13.269531 14.773438 -10.582031 16.640625 -8.625 C 18.515625 -6.675781 21.109375 -5.703125 24.421875 -5.703125 C 26.867188 -5.703125 28.988281 -6.082031 30.78125 -6.84375 C 32.570312 -7.601562 33.898438 -8.710938 34.765625 -10.171875 L 42.09375 -10.171875 C 41.164062 -6.753906 39.113281 -4.066406 35.9375 -2.109375 C 32.769531 -0.160156 28.929688 0.8125 24.421875 0.8125 Z M 35.015625 -26.375 L 35.015625 -28.5 C 35.015625 -31.863281 34.085938 -34.46875 32.234375 -36.3125 C 30.390625 -38.15625 27.785156 -39.078125 24.421875 -39.078125 C 21.054688 -39.078125 18.453125 -38.15625 16.609375 -36.3125 C 14.765625 -34.46875 13.84375 -31.863281 13.84375 -28.5 L 13.84375 -26.375 Z M 35.015625 -26.375 "/></g></g></g><g fill="#000000" fill-opacity="1"><g transform="translate(116.654783, 313.698229)"><g><path d="M 5.125 -13.03125 C 5.125 -15.144531 5.488281 -17.054688 6.21875 -18.765625 C 6.957031 -20.472656 8.019531 -21.925781 9.40625 -23.125 C 10.789062 -24.320312 12.457031 -25.242188 14.40625 -25.890625 C 16.363281 -26.546875 18.5625 -26.875 21 -26.875 L 34.359375 -26.875 L 34.359375 -30.53125 C 34.359375 -33.300781 33.445312 -35.457031 31.625 -37 C 29.8125 -38.550781 27.195312 -39.328125 23.78125 -39.328125 C 21.28125 -39.328125 19.144531 -38.863281 17.375 -37.9375 C 15.613281 -37.019531 14.4375 -35.742188 13.84375 -34.109375 L 6.515625 -34.109375 C 7.273438 -37.640625 9.210938 -40.4375 12.328125 -42.5 C 15.453125 -44.5625 19.320312 -45.59375 23.9375 -45.59375 C 29.476562 -45.59375 33.820312 -44.300781 36.96875 -41.71875 C 40.113281 -39.144531 41.6875 -35.550781 41.6875 -30.9375 L 41.6875 0 L 35.015625 0 L 35.015625 -8.546875 L 34.359375 -8.546875 C 33.648438 -5.671875 31.992188 -3.390625 29.390625 -1.703125 C 26.785156 -0.0234375 23.609375 0.8125 19.859375 0.8125 C 15.359375 0.8125 11.773438 -0.429688 9.109375 -2.921875 C 6.453125 -5.421875 5.125 -8.789062 5.125 -13.03125 Z M 21.5 -5.21875 C 23.34375 -5.21875 25.050781 -5.457031 26.625 -5.9375 C 28.195312 -6.425781 29.550781 -7.117188 30.6875 -8.015625 C 31.832031 -8.910156 32.726562 -9.957031 33.375 -11.15625 C 34.03125 -12.351562 34.359375 -13.65625 34.359375 -15.0625 L 34.359375 -21.171875 L 21.171875 -21.171875 C 18.453125 -21.171875 16.316406 -20.460938 14.765625 -19.046875 C 13.222656 -17.640625 12.453125 -15.6875 12.453125 -13.1875 C 12.453125 -10.6875 13.238281 -8.734375 14.8125 -7.328125 C 16.394531 -5.921875 18.625 -5.21875 21.5 -5.21875 Z M 21.5 -5.21875 "/></g></g></g><g fill="#000000" fill-opacity="1"><g transform="translate(159.155687, 313.698229)"><g><path d="M 9.125 -44.78125 L 16.046875 -44.78125 L 16.046875 -37.046875 L 16.6875 -37.046875 C 17.394531 -39.703125 18.859375 -41.789062 21.078125 -43.3125 C 23.304688 -44.832031 26.050781 -45.59375 29.3125 -45.59375 C 34.03125 -45.59375 37.734375 -44.113281 40.421875 -41.15625 C 43.109375 -38.195312 44.453125 -34.140625 44.453125 -28.984375 L 44.453125 -26.46875 L 37.125 -26.46875 L 37.125 -28.09375 C 37.125 -31.625 36.242188 -34.347656 34.484375 -36.265625 C 32.722656 -38.191406 30.210938 -39.15625 26.953125 -39.15625 C 23.742188 -39.15625 21.191406 -38.164062 19.296875 -36.1875 C 17.398438 -34.207031 16.453125 -31.507812 16.453125 -28.09375 L 16.453125 0 L 9.125 0 Z M 9.125 -44.78125 "/></g></g></g><g fill="#000000" fill-opacity="1"><g transform="translate(201.656585, 313.698229)"><g><path d="M 7.171875 0 L 7.171875 -44.78125 L 14.09375 -44.78125 L 14.09375 -37.046875 L 14.734375 -37.046875 C 15.441406 -39.765625 16.867188 -41.867188 19.015625 -43.359375 C 21.160156 -44.847656 23.832031 -45.59375 27.03125 -45.59375 C 29.257812 -45.59375 31.28125 -45.210938 33.09375 -44.453125 C 34.914062 -43.691406 36.460938 -42.617188 37.734375 -41.234375 C 39.015625 -39.847656 40.003906 -38.191406 40.703125 -36.265625 C 41.410156 -34.347656 41.765625 -32.191406 41.765625 -29.796875 L 41.765625 0 L 34.4375 0 L 34.4375 -28.578125 C 34.4375 -31.992188 33.566406 -34.648438 31.828125 -36.546875 C 30.097656 -38.453125 27.6875 -39.40625 24.59375 -39.40625 C 21.5 -39.40625 19.039062 -38.382812 17.21875 -36.34375 C 15.40625 -34.3125 14.5 -31.5625 14.5 -28.09375 L 14.5 0 Z M 7.171875 0 "/></g></g></g><g fill="#000000" fill-opacity="1"><g transform="translate(244.157494, 313.698229)"><g><path d="M 7.734375 0 L 7.734375 -6.671875 L 24.015625 -6.671875 L 24.015625 -38.109375 L 9.765625 -38.109375 L 9.765625 -44.78125 L 31.34375 -44.78125 L 31.34375 -6.671875 L 44.78125 -6.671875 L 44.78125 0 Z M 25.640625 -62.28125 L 27.28125 -62.28125 C 28.851562 -62.28125 30.125 -61.816406 31.09375 -60.890625 C 32.070312 -59.972656 32.5625 -58.785156 32.5625 -57.328125 C 32.5625 -55.859375 32.070312 -54.6875 31.09375 -53.8125 C 30.125 -52.945312 28.851562 -52.515625 27.28125 -52.515625 L 25.640625 -52.515625 C 24.066406 -52.515625 22.789062 -52.9375 21.8125 -53.78125 C 20.84375 -54.625 20.359375 -55.804688 20.359375 -57.328125 C 20.359375 -58.785156 20.84375 -59.972656 21.8125 -60.890625 C 22.789062 -61.816406 24.066406 -62.28125 25.640625 -62.28125 Z M 25.640625 -62.28125 "/></g></g></g><g fill="#000000" fill-opacity="1"><g transform="translate(286.658392, 313.698229)"><g><path d="M 7.171875 0 L 7.171875 -44.78125 L 14.09375 -44.78125 L 14.09375 -37.046875 L 14.734375 -37.046875 C 15.441406 -39.765625 16.867188 -41.867188 19.015625 -43.359375 C 21.160156 -44.847656 23.832031 -45.59375 27.03125 -45.59375 C 29.257812 -45.59375 31.28125 -45.210938 33.09375 -44.453125 C 34.914062 -43.691406 36.460938 -42.617188 37.734375 -41.234375 C 39.015625 -39.847656 40.003906 -38.191406 40.703125 -36.265625 C 41.410156 -34.347656 41.765625 -32.191406 41.765625 -29.796875 L 41.765625 0 L 34.4375 0 L 34.4375 -28.578125 C 34.4375 -31.992188 33.566406 -34.648438 31.828125 -36.546875 C 30.097656 -38.453125 27.6875 -39.40625 24.59375 -39.40625 C 21.5 -39.40625 19.039062 -38.382812 17.21875 -36.34375 C 15.40625 -34.3125 14.5 -31.5625 14.5 -28.09375 L 14.5 0 Z M 7.171875 0 "/></g></g></g><g fill="#000000" fill-opacity="1"><g transform="translate(329.15929, 313.698229)"><g><path d="M 5.9375 -28.5 C 5.9375 -31.101562 6.289062 -33.460938 7 -35.578125 C 7.707031 -37.691406 8.722656 -39.484375 10.046875 -40.953125 C 11.378906 -42.421875 12.992188 -43.5625 14.890625 -44.375 C 16.796875 -45.1875 18.914062 -45.59375 21.25 -45.59375 C 24.507812 -45.59375 27.273438 -44.816406 29.546875 -43.265625 C 31.828125 -41.722656 33.378906 -39.515625 34.203125 -36.640625 L 34.765625 -36.640625 L 34.765625 -44.78125 L 41.6875 -44.78125 L 41.6875 -3.25 C 41.6875 2.007812 40.140625 6.101562 37.046875 9.03125 C 33.953125 11.96875 29.609375 13.4375 24.015625 13.4375 L 13.03125 13.4375 L 13.03125 6.765625 L 24.015625 6.765625 C 27.273438 6.765625 29.8125 5.894531 31.625 4.15625 C 33.445312 2.414062 34.359375 -0.0507812 34.359375 -3.25 L 34.359375 -4.890625 L 34.6875 -13.03125 L 34.203125 -13.03125 C 33.378906 -10.15625 31.828125 -7.941406 29.546875 -6.390625 C 27.273438 -4.847656 24.507812 -4.078125 21.25 -4.078125 C 18.914062 -4.078125 16.8125 -4.484375 14.9375 -5.296875 C 13.0625 -6.109375 11.457031 -7.242188 10.125 -8.703125 C 8.800781 -10.171875 7.769531 -11.960938 7.03125 -14.078125 C 6.300781 -16.203125 5.9375 -18.566406 5.9375 -21.171875 Z M 13.4375 -21.171875 C 13.4375 -17.804688 14.367188 -15.171875 16.234375 -13.265625 C 18.109375 -11.367188 20.675781 -10.421875 23.9375 -10.421875 C 27.195312 -10.421875 29.75 -11.367188 31.59375 -13.265625 C 33.4375 -15.171875 34.359375 -17.804688 34.359375 -21.171875 L 34.359375 -28.5 C 34.359375 -31.863281 33.4375 -34.492188 31.59375 -36.390625 C 29.75 -38.296875 27.195312 -39.25 23.9375 -39.25 C 20.675781 -39.25 18.109375 -38.296875 16.234375 -36.390625 C 14.367188 -34.492188 13.4375 -31.863281 13.4375 -28.5 Z M 13.4375 -21.171875 "/></g></g></g><path stroke-linecap="butt" transform="matrix(0, -0.75, 0.75, 0, 15.963539, 324.345682)" fill="none" stroke-linejoin="miter" d="M 0.00257587 5.00174 L 367.924475 5.00174 " stroke="#000000" stroke-width="10" stroke-opacity="1" stroke-miterlimit="4"/><path stroke-linecap="round" transform="matrix(0, -0.75, 0.75, 0, 15.963539, 324.345682)" fill="none" stroke-linejoin="round" d="M 347.924474 -9.998261 L 367.924475 5.00174 L 347.924474 20.001741 " stroke="#000000" stroke-width="10" stroke-opacity="1" stroke-miterlimit="4"/></svg>