<svg xmlns="http://www.w3.org/2000/svg" xmlns:xlink="http://www.w3.org/1999/xlink" width="1080" zoomAndPan="magnify" viewBox="0 0 810 809.999993" height="1080" preserveAspectRatio="xMidYMid meet" version="1.0"><defs><g/><clipPath id="a57e10a100"><path d="M 257.59375 38.492188 L 360.34375 38.492188 L 360.34375 181.742188 L 257.59375 181.742188 Z M 257.59375 38.492188 " clip-rule="nonzero"/></clipPath></defs><path stroke-linecap="butt" transform="matrix(0.590564, 0, 0, 0.590564, 530.035105, 242.742195)" fill="none" stroke-linejoin="miter" d="M 148.771943 185.124774 L 79.379913 151.695423 C 79.379913 150.385765 80.305933 147.005789 82.151361 141.548881 C 84.069547 136.019214 87.872846 128.604433 93.56126 119.304538 C 99.249673 110.004644 106.393262 101.280205 114.998641 93.137836 C 123.683393 84.916094 135.900253 77.732819 151.655836 71.581395 C 167.411418 65.436585 185.197632 62.360874 205.027706 62.360874 C 241.526154 62.360874 272.997632 73.082872 299.428912 94.520253 C 325.866806 115.884876 339.082445 142.779165 339.082445 175.209737 C 339.082445 215.167534 312.492419 246.480266 259.318982 269.154546 C 252.09602 272.303017 247.518832 276.642086 245.600646 282.178367 C 243.675845 287.708035 242.716752 295.354321 242.716752 305.117226 L 242.716752 331.515433 L 164.911162 331.515433 L 164.911162 280.101435 C 164.911162 271.575429 165.222041 264.888236 165.830569 260.04647 C 166.445711 255.125331 168.482957 249.747796 171.942306 243.907251 C 175.401655 238.066705 180.435239 232.960362 187.043059 228.574992 C 192.11633 225.426521 198.876282 221.735667 207.329529 217.515658 C 215.862149 213.289035 222.159091 209.902444 226.233582 207.369116 C 230.308074 204.835788 234.071687 200.834055 237.531036 195.383761 C 240.990385 189.84748 242.716752 183.127214 242.716752 175.209737 C 242.716752 163.912283 239.025898 154.652075 231.650804 147.429113 C 224.27571 140.126777 215.247007 136.47561 204.564696 136.47561 C 189.119992 136.47561 176.744385 141.436435 167.44449 151.351472 C 158.15121 161.259895 151.927028 172.517662 148.771943 185.124774 Z M 203.526229 357.907025 C 218.666669 357.907025 231.498672 363.211802 242.028851 373.81474 C 252.552416 384.344919 257.817506 397.137235 257.817506 412.198302 C 257.817506 427.034478 252.552416 439.714348 242.028851 450.237913 C 231.498672 460.768093 218.666669 466.033182 203.526229 466.033182 C 188.769427 466.033182 176.129243 460.768093 165.605678 450.237913 C 155.075498 439.714348 149.810409 427.034478 149.810409 412.198302 C 149.810409 397.137235 155.075498 384.344919 165.605678 373.81474 C 176.129243 363.211802 188.769427 357.907025 203.526229 357.907025 Z M 203.526229 357.907025 " stroke="#ffffff" stroke-width="12.68887" stroke-opacity="1" stroke-miterlimit="4"/><path stroke-linecap="butt" transform="matrix(0.204019, 0, 0, 0.204019, 503.796122, 395.367334)" fill="none" stroke-linejoin="miter" d="M 148.771727 185.126458 L 79.384936 151.696729 C 79.384936 150.39477 80.303966 147.005845 82.142027 141.549103 C 84.07582 136.015774 87.86682 128.606092 93.55332 119.30091 C 99.239821 109.995727 106.400599 101.284086 114.997362 93.146838 C 123.689857 84.913858 135.905302 77.733933 151.662843 71.587918 C 167.401238 65.441902 185.20745 62.359321 205.024042 62.359321 C 241.517205 62.359321 272.993995 73.081342 299.435263 94.525383 C 325.857386 115.892839 339.087593 142.774476 339.087593 175.208589 C 339.087593 215.167262 312.493153 246.49088 259.323418 269.160295 C 252.086054 272.300315 247.529196 276.646563 245.595403 282.179891 C 243.680756 287.71322 242.723433 295.35266 242.723433 305.117357 L 242.723433 331.520333 L 164.912197 331.520333 L 164.912197 280.112073 C 164.912197 271.572749 165.218541 264.890633 165.831227 260.046577 C 166.443914 255.125936 168.492586 249.745779 171.93895 243.906107 C 175.40446 238.066435 180.439981 232.954329 187.045511 228.569788 C 192.119325 225.429768 198.878027 221.7345 207.321618 217.503131 C 215.860942 213.290909 222.160129 209.901984 226.238326 207.374651 C 230.316523 204.828171 234.06923 200.845706 237.534741 195.388963 C 240.981104 189.855635 242.723433 183.116079 242.723433 175.208589 C 242.723433 163.912174 239.028165 154.645285 231.656776 147.427067 C 224.26624 140.132264 215.248255 136.475289 204.564527 136.475289 C 189.113329 136.475289 176.744713 141.434224 167.439531 151.352093 C 158.153495 161.269962 151.930894 172.528084 148.771727 185.126458 Z M 203.530618 357.904162 C 218.656326 357.904162 231.503604 363.207733 242.03416 373.814875 C 252.54557 384.345431 257.810848 397.13527 257.810848 412.203538 C 257.810848 427.022903 252.54557 439.717009 242.03416 450.247565 C 231.503604 460.758975 218.656326 466.024253 203.530618 466.024253 C 188.768693 466.024253 176.132026 460.758975 165.60147 450.247565 C 155.070914 439.717009 149.805636 427.022903 149.805636 412.203538 C 149.805636 397.13527 155.070914 384.345431 165.60147 373.814875 C 176.132026 363.207733 188.768693 357.904162 203.530618 357.904162 Z M 203.530618 357.904162 " stroke="#ffffff" stroke-width="12.68887" stroke-opacity="1" stroke-miterlimit="4"/><g fill="#ffffff" fill-opacity="1"><g transform="translate(712.037854, 572.155099)"><g><path d="M 17.140625 -58.5 L 2.3125 -65.65625 C 2.3125 -65.925781 2.515625 -66.648438 2.921875 -67.828125 C 3.328125 -69.003906 4.132812 -70.582031 5.34375 -72.5625 C 6.550781 -74.550781 8.078125 -76.414062 9.921875 -78.15625 C 11.773438 -79.90625 14.382812 -81.4375 17.75 -82.75 C 21.113281 -84.0625 24.910156 -84.71875 29.140625 -84.71875 C 36.941406 -84.71875 43.664062 -82.429688 49.3125 -77.859375 C 54.96875 -73.285156 57.796875 -67.535156 57.796875 -60.609375 C 57.796875 -52.078125 52.113281 -45.390625 40.75 -40.546875 C 39.195312 -39.867188 38.21875 -38.941406 37.8125 -37.765625 C 37.414062 -36.585938 37.21875 -34.957031 37.21875 -32.875 L 37.21875 -27.234375 L 20.578125 -27.234375 L 20.578125 -38.21875 C 20.578125 -40.039062 20.644531 -41.472656 20.78125 -42.515625 C 20.914062 -43.554688 21.351562 -44.695312 22.09375 -45.9375 C 22.832031 -47.1875 23.90625 -48.28125 25.3125 -49.21875 C 26.382812 -49.894531 27.828125 -50.6875 29.640625 -51.59375 C 31.460938 -52.5 32.8125 -53.21875 33.6875 -53.75 C 34.5625 -54.289062 35.367188 -55.148438 36.109375 -56.328125 C 36.847656 -57.503906 37.21875 -58.929688 37.21875 -60.609375 C 37.21875 -63.035156 36.425781 -65.019531 34.84375 -66.5625 C 33.269531 -68.113281 31.335938 -68.890625 29.046875 -68.890625 C 25.753906 -68.890625 23.113281 -67.828125 21.125 -65.703125 C 19.144531 -63.585938 17.816406 -61.1875 17.140625 -58.5 Z M 28.84375 -21.578125 C 32.070312 -21.578125 34.8125 -20.453125 37.0625 -18.203125 C 39.3125 -15.953125 40.4375 -13.210938 40.4375 -9.984375 C 40.4375 -6.828125 39.3125 -4.117188 37.0625 -1.859375 C 34.8125 0.390625 32.070312 1.515625 28.84375 1.515625 C 25.6875 1.515625 22.976562 0.390625 20.71875 -1.859375 C 18.46875 -4.117188 17.34375 -6.828125 17.34375 -9.984375 C 17.34375 -13.210938 18.46875 -15.953125 20.71875 -18.203125 C 22.976562 -20.453125 25.6875 -21.578125 28.84375 -21.578125 Z M 28.84375 -21.578125 "/></g></g></g><g fill="#ffffff" fill-opacity="1"><g transform="translate(541.005344, 266.232729)"><g><path d="M 12.84375 -43.828125 L 1.734375 -49.1875 C 1.734375 -49.394531 1.882812 -49.9375 2.1875 -50.8125 C 2.488281 -51.695312 3.09375 -52.878906 4 -54.359375 C 4.90625 -55.847656 6.050781 -57.25 7.4375 -58.5625 C 8.820312 -59.875 10.773438 -61.019531 13.296875 -62 C 15.816406 -62.976562 18.664062 -63.46875 21.84375 -63.46875 C 27.6875 -63.46875 32.722656 -61.753906 36.953125 -58.328125 C 41.179688 -54.910156 43.296875 -50.601562 43.296875 -45.40625 C 43.296875 -39.007812 39.039062 -34 30.53125 -30.375 C 29.375 -29.875 28.640625 -29.179688 28.328125 -28.296875 C 28.023438 -27.410156 27.875 -26.191406 27.875 -24.640625 L 27.875 -20.40625 L 15.421875 -20.40625 L 15.421875 -28.640625 C 15.421875 -29.992188 15.46875 -31.0625 15.5625 -31.84375 C 15.664062 -32.625 15.992188 -33.476562 16.546875 -34.40625 C 17.097656 -35.34375 17.90625 -36.164062 18.96875 -36.875 C 19.769531 -37.375 20.847656 -37.960938 22.203125 -38.640625 C 23.566406 -39.328125 24.578125 -39.867188 25.234375 -40.265625 C 25.890625 -40.671875 26.492188 -41.316406 27.046875 -42.203125 C 27.597656 -43.085938 27.875 -44.15625 27.875 -45.40625 C 27.875 -47.226562 27.28125 -48.71875 26.09375 -49.875 C 24.914062 -51.03125 23.472656 -51.609375 21.765625 -51.609375 C 19.296875 -51.609375 17.316406 -50.8125 15.828125 -49.21875 C 14.335938 -47.632812 13.34375 -45.835938 12.84375 -43.828125 Z M 21.609375 -16.171875 C 24.023438 -16.171875 26.078125 -15.328125 27.765625 -13.640625 C 29.453125 -11.953125 30.296875 -9.898438 30.296875 -7.484375 C 30.296875 -5.109375 29.453125 -3.078125 27.765625 -1.390625 C 26.078125 0.296875 24.023438 1.140625 21.609375 1.140625 C 19.242188 1.140625 17.21875 0.296875 15.53125 -1.390625 C 13.84375 -3.078125 13 -5.109375 13 -7.484375 C 13 -9.898438 13.84375 -11.953125 15.53125 -13.640625 C 17.21875 -15.328125 19.242188 -16.171875 21.609375 -16.171875 Z M 21.609375 -16.171875 "/></g></g></g><path stroke-linecap="round" transform="matrix(0, 0.75, -0.75, 0, 653.706307, -9.665923)" fill="none" stroke-linejoin="miter" d="M 3.002481 2.999034 L 384.403542 2.999034 " stroke="#ffffff" stroke-width="6" stroke-opacity="1" stroke-miterlimit="4"/><path stroke-linecap="round" transform="matrix(0, 0.75, -0.75, 0, 653.708347, 515.624754)" fill="none" stroke-linejoin="miter" d="M 3.000328 3.001754 L 400.083681 3.001754 " stroke="#ffffff" stroke-width="6" stroke-opacity="1" stroke-miterlimit="4"/><path fill="#ffc200" d="M 358.625 90.011719 C 358.625 62.621094 336.421875 40.417969 309.027344 40.417969 C 281.636719 40.417969 259.433594 62.621094 259.433594 90.011719 C 259.433594 108.605469 269.664062 124.804688 284.804688 133.296875 C 287.355469 134.875 289.042969 136.789062 290.234375 138.886719 C 293.816406 145.179688 292.980469 153.128906 297.886719 158.65625 L 320.207031 158.65625 C 326.75 151.289062 323.082031 139.609375 333.292969 133.296875 L 333.253906 133.296875 C 348.390625 124.804688 358.625 108.605469 358.625 90.011719 " fill-opacity="1" fill-rule="nonzero"/><path fill="#ffffff" d="M 310.921875 137.546875 L 307.136719 137.546875 C 303.261719 137.546875 300.121094 140.6875 300.121094 144.5625 L 300.121094 158.65625 L 301.042969 171.144531 L 303.34375 177.738281 C 303.71875 178.816406 304.351562 179.464844 305.03125 179.464844 L 313.027344 179.464844 C 313.707031 179.464844 314.339844 178.816406 314.714844 177.738281 L 317.015625 171.144531 L 317.9375 158.65625 L 317.9375 144.5625 C 317.9375 140.6875 314.796875 137.546875 310.921875 137.546875 " fill-opacity="1" fill-rule="nonzero"/><g clip-path="url(#a57e10a100)"><path fill="#000000" d="M 332.351562 131.691406 C 332.242188 131.75 332.144531 131.820312 332.054688 131.898438 C 325.773438 135.925781 324.34375 141.921875 323.078125 147.21875 C 322.300781 150.496094 321.542969 153.609375 319.78125 156.191406 L 319.78125 144.5625 C 319.78125 141.558594 318.273438 138.898438 315.976562 137.296875 L 315.976562 113.582031 L 320.9375 113.582031 C 325.703125 113.582031 329.585938 109.703125 329.585938 104.9375 C 329.585938 100.171875 325.703125 96.292969 320.9375 96.292969 C 320.265625 96.292969 319.597656 96.371094 318.964844 96.519531 C 315.035156 97.4375 312.292969 100.898438 312.292969 104.9375 L 312.292969 109.898438 L 305.765625 109.898438 L 305.765625 104.9375 C 305.765625 100.898438 303.023438 97.4375 299.105469 96.523438 C 298.460938 96.371094 297.796875 96.292969 297.121094 96.292969 C 292.355469 96.292969 288.472656 100.171875 288.472656 104.9375 C 288.472656 109.703125 292.355469 113.582031 297.121094 113.582031 L 302.085938 113.582031 L 302.085938 137.296875 C 299.789062 138.898438 298.277344 141.558594 298.277344 144.5625 L 298.277344 156.136719 C 296.542969 153.5625 295.792969 150.472656 295.015625 147.21875 C 294.277344 144.125 293.515625 140.921875 291.835938 137.972656 C 290.359375 135.382812 288.375 133.339844 285.707031 131.691406 C 270.636719 123.238281 261.273438 107.269531 261.273438 90.011719 C 261.273438 63.679688 282.695312 42.257812 309.027344 42.257812 C 335.363281 42.257812 356.785156 63.679688 356.785156 90.011719 C 356.785156 107.269531 347.421875 123.238281 332.351562 131.691406 Z M 302.292969 163.078125 L 302.101562 160.496094 L 315.957031 160.496094 L 315.765625 163.078125 Z M 315.308594 169.304688 L 302.75 169.304688 L 302.5625 166.757812 L 315.496094 166.757812 Z M 312.742188 177.621094 L 305.316406 177.621094 C 305.25 177.527344 303.632812 172.984375 303.632812 172.984375 L 314.425781 172.984375 C 314.425781 172.984375 312.808594 177.527344 312.742188 177.621094 Z M 307.136719 139.390625 L 310.921875 139.390625 C 313.777344 139.390625 316.097656 141.710938 316.097656 144.5625 L 316.097656 156.816406 L 301.960938 156.816406 L 301.960938 144.5625 C 301.960938 141.710938 304.28125 139.390625 307.136719 139.390625 Z M 317.9375 109.898438 L 315.976562 109.898438 L 315.976562 104.9375 C 315.976562 102.617188 317.546875 100.632812 319.808594 100.105469 C 320.171875 100.015625 320.550781 99.972656 320.9375 99.972656 C 323.675781 99.972656 325.902344 102.199219 325.902344 104.9375 C 325.902344 107.671875 323.675781 109.898438 320.9375 109.898438 Z M 305.765625 113.582031 L 312.292969 113.582031 L 312.292969 135.824219 C 311.84375 135.753906 311.390625 135.707031 310.921875 135.707031 L 307.136719 135.707031 C 306.667969 135.707031 306.214844 135.753906 305.765625 135.824219 Z M 297.121094 109.898438 C 294.382812 109.898438 292.15625 107.671875 292.15625 104.9375 C 292.15625 102.199219 294.382812 99.972656 297.121094 99.972656 C 297.507812 99.972656 297.886719 100.015625 298.257812 100.105469 C 300.511719 100.632812 302.085938 102.617188 302.085938 104.9375 L 302.085938 109.898438 Z M 309.027344 38.574219 C 280.667969 38.574219 257.59375 61.648438 257.59375 90.011719 C 257.59375 108.597656 267.675781 125.800781 283.835938 134.863281 C 285.902344 136.140625 287.472656 137.753906 288.636719 139.796875 C 290.054688 142.289062 290.726562 145.097656 291.433594 148.074219 C 292.410156 152.164062 293.417969 156.394531 296.511719 159.878906 C 296.859375 160.273438 297.363281 160.496094 297.886719 160.496094 L 298.410156 160.496094 L 298.601562 163.078125 L 298.199219 163.078125 C 297.183594 163.078125 296.359375 163.902344 296.359375 164.917969 C 296.359375 165.9375 297.183594 166.757812 298.199219 166.757812 L 298.871094 166.757812 L 299.058594 169.304688 L 298.898438 169.304688 C 297.878906 169.304688 297.054688 170.128906 297.054688 171.144531 C 297.054688 172.160156 297.878906 172.984375 298.898438 172.984375 L 299.734375 172.984375 L 301.605469 178.34375 C 302.25 180.199219 303.53125 181.304688 305.03125 181.304688 L 313.027344 181.304688 C 314.523438 181.304688 315.808594 180.199219 316.453125 178.34375 L 318.324219 172.984375 L 319.164062 172.984375 C 320.179688 172.984375 321.003906 172.160156 321.003906 171.144531 C 321.003906 170.128906 320.179688 169.304688 319.164062 169.304688 L 318.996094 169.304688 L 319.1875 166.757812 L 319.859375 166.757812 C 320.875 166.757812 321.699219 165.9375 321.699219 164.917969 C 321.699219 163.902344 320.875 163.078125 319.859375 163.078125 L 319.457031 163.078125 L 319.648438 160.496094 L 320.207031 160.496094 C 320.734375 160.496094 321.234375 160.273438 321.585938 159.878906 C 324.675781 156.394531 325.6875 152.164062 326.660156 148.074219 C 327.886719 142.9375 329.042969 138.085938 334.257812 134.863281 C 334.3125 134.828125 334.367188 134.792969 334.417969 134.753906 C 350.492188 125.613281 360.46875 108.5 360.46875 90.011719 C 360.46875 61.648438 337.390625 38.574219 309.027344 38.574219 " fill-opacity="1" fill-rule="nonzero"/></g><g fill="#000000" fill-opacity="1"><g transform="translate(223.118525, 273.298806)"><g><path d="M 21.28125 -68.71875 L 37.796875 -23 C 38.179688 -21.988281 38.515625 -20.8125 38.796875 -19.46875 C 39.085938 -18.132812 39.359375 -16.863281 39.609375 -15.65625 C 39.867188 -14.1875 40.09375 -12.722656 40.28125 -11.265625 L 41.421875 -11.265625 C 41.421875 -11.265625 41.359375 -11.738281 41.234375 -12.6875 C 41.109375 -13.644531 40.960938 -14.851562 40.796875 -16.3125 C 40.640625 -17.78125 40.484375 -19.40625 40.328125 -21.1875 C 40.171875 -22.96875 40.09375 -24.6875 40.09375 -26.34375 L 40.09375 -68.71875 L 50.6875 -68.71875 L 50.6875 0 L 35.984375 0 L 19.765625 -45.8125 C 19.316406 -47.082031 18.929688 -48.382812 18.609375 -49.71875 C 18.296875 -51.0625 18.039062 -52.335938 17.84375 -53.546875 C 17.59375 -54.878906 17.375 -56.21875 17.1875 -57.5625 L 16.03125 -57.5625 C 16.226562 -56.03125 16.421875 -54.40625 16.609375 -52.6875 C 16.734375 -51.226562 16.859375 -49.625 16.984375 -47.875 C 17.117188 -46.125 17.1875 -44.328125 17.1875 -42.484375 L 17.1875 0 L 6.59375 0 L 6.59375 -68.71875 Z M 21.28125 -68.71875 "/></g></g></g><g fill="#000000" fill-opacity="1"><g transform="translate(280.388088, 273.298806)"><g><path d="M 17.75 -20.140625 C 17.75 -16.890625 18.734375 -14.3125 20.703125 -12.40625 C 22.679688 -10.5 25.328125 -9.546875 28.640625 -9.546875 C 31.941406 -9.546875 34.578125 -10.5 36.546875 -12.40625 C 38.523438 -14.3125 39.515625 -16.890625 39.515625 -20.140625 L 39.515625 -48.6875 C 39.515625 -51.925781 38.523438 -54.5 36.546875 -56.40625 C 34.578125 -58.320312 31.941406 -59.28125 28.640625 -59.28125 C 25.328125 -59.28125 22.679688 -58.320312 20.703125 -56.40625 C 18.734375 -54.5 17.75 -51.925781 17.75 -48.6875 Z M 5.828125 -48.6875 C 5.828125 -51.863281 6.363281 -54.738281 7.4375 -57.3125 C 8.519531 -59.894531 10.046875 -62.109375 12.015625 -63.953125 C 13.992188 -65.796875 16.398438 -67.210938 19.234375 -68.203125 C 22.066406 -69.191406 25.203125 -69.6875 28.640625 -69.6875 C 32.078125 -69.6875 35.207031 -69.191406 38.03125 -68.203125 C 40.863281 -67.210938 43.265625 -65.796875 45.234375 -63.953125 C 47.210938 -62.109375 48.742188 -59.894531 49.828125 -57.3125 C 50.910156 -54.738281 51.453125 -51.863281 51.453125 -48.6875 L 51.453125 -20.140625 C 51.453125 -17.023438 50.910156 -14.160156 49.828125 -11.546875 C 48.742188 -8.941406 47.195312 -6.710938 45.1875 -4.859375 C 43.1875 -3.015625 40.785156 -1.582031 37.984375 -0.5625 C 35.191406 0.445312 32.078125 0.953125 28.640625 0.953125 C 25.203125 0.953125 22.066406 0.460938 19.234375 -0.515625 C 16.398438 -1.503906 13.992188 -2.921875 12.015625 -4.765625 C 10.046875 -6.617188 8.519531 -8.847656 7.4375 -11.453125 C 6.363281 -14.066406 5.828125 -16.960938 5.828125 -20.140625 Z M 5.828125 -48.6875 "/></g></g></g><g fill="#000000" fill-opacity="1"><g transform="translate(337.657651, 273.298806)"><g><path d="M 3.71875 -68.71875 L 53.546875 -68.71875 L 53.546875 -57.75 L 34.65625 -57.75 L 34.65625 0 L 22.625 0 L 22.625 -57.75 L 3.71875 -57.75 Z M 3.71875 -68.71875 "/></g></g></g><g fill="#000000" fill-opacity="1"><g transform="translate(194.489621, 373.048801)"><g><path d="M 28.640625 0.953125 C 25.265625 0.953125 22.160156 0.507812 19.328125 -0.375 C 16.492188 -1.269531 14.054688 -2.5625 12.015625 -4.25 C 9.984375 -5.9375 8.378906 -7.957031 7.203125 -10.3125 C 6.023438 -12.664062 5.375 -15.304688 5.25 -18.234375 L 17.46875 -18.234375 C 17.59375 -15.492188 18.6875 -13.34375 20.75 -11.78125 C 22.820312 -10.226562 25.546875 -9.453125 28.921875 -9.453125 C 32.421875 -9.453125 35.140625 -10.242188 37.078125 -11.828125 C 39.023438 -13.421875 40 -15.554688 40 -18.234375 C 40 -20.585938 39.265625 -22.625 37.796875 -24.34375 C 36.335938 -26.0625 34.269531 -27.332031 31.59375 -28.15625 L 24.34375 -30.265625 C 12.507812 -33.503906 6.59375 -40.3125 6.59375 -50.6875 C 6.59375 -53.550781 7.113281 -56.160156 8.15625 -58.515625 C 9.207031 -60.867188 10.6875 -62.890625 12.59375 -64.578125 C 14.507812 -66.265625 16.832031 -67.550781 19.5625 -68.4375 C 22.300781 -69.332031 25.390625 -69.78125 28.828125 -69.78125 C 35.316406 -69.78125 40.550781 -68.109375 44.53125 -64.765625 C 48.507812 -61.421875 50.65625 -56.820312 50.96875 -50.96875 L 38.84375 -50.96875 C 38.71875 -53.582031 37.703125 -55.617188 35.796875 -57.078125 C 33.890625 -58.546875 31.472656 -59.28125 28.546875 -59.28125 C 25.421875 -59.28125 22.96875 -58.546875 21.1875 -57.078125 C 19.40625 -55.617188 18.515625 -53.679688 18.515625 -51.265625 C 18.515625 -46.679688 21.285156 -43.59375 26.828125 -42 L 34.453125 -39.90625 C 40.179688 -38.3125 44.539062 -35.71875 47.53125 -32.125 C 50.519531 -28.53125 52.015625 -24.085938 52.015625 -18.796875 C 52.015625 -15.804688 51.457031 -13.101562 50.34375 -10.6875 C 49.238281 -8.269531 47.664062 -6.203125 45.625 -4.484375 C 43.59375 -2.765625 41.144531 -1.425781 38.28125 -0.46875 C 35.414062 0.476562 32.203125 0.953125 28.640625 0.953125 Z M 28.640625 0.953125 "/></g></g></g><g fill="#000000" fill-opacity="1"><g transform="translate(251.759184, 373.048801)"><g><path d="M 28.640625 0.953125 C 21.765625 0.953125 16.382812 -0.890625 12.5 -4.578125 C 8.625 -8.273438 6.6875 -13.367188 6.6875 -19.859375 L 6.6875 -68.71875 L 18.703125 -68.71875 L 18.703125 -19.953125 C 18.703125 -16.640625 19.546875 -14.0625 21.234375 -12.21875 C 22.921875 -10.375 25.390625 -9.453125 28.640625 -9.453125 C 31.816406 -9.453125 34.28125 -10.375 36.03125 -12.21875 C 37.78125 -14.0625 38.65625 -16.640625 38.65625 -19.953125 L 38.65625 -68.71875 L 50.59375 -68.71875 L 50.59375 -19.859375 C 50.59375 -13.367188 48.648438 -8.273438 44.765625 -4.578125 C 40.878906 -0.890625 35.503906 0.953125 28.640625 0.953125 Z M 28.640625 0.953125 "/></g></g></g><g fill="#000000" fill-opacity="1"><g transform="translate(309.028746, 373.048801)"><g><path d="M 7.15625 -68.71875 L 29.6875 -68.71875 C 33.125 -68.71875 36.253906 -68.222656 39.078125 -67.234375 C 41.910156 -66.253906 44.328125 -64.875 46.328125 -63.09375 C 48.335938 -61.3125 49.882812 -59.144531 50.96875 -56.59375 C 52.050781 -54.050781 52.59375 -51.222656 52.59375 -48.109375 C 52.59375 -43.523438 51.445312 -39.609375 49.15625 -36.359375 C 46.863281 -33.117188 43.710938 -30.765625 39.703125 -29.296875 L 53.546875 0 L 40.375 0 L 27.96875 -27.484375 L 19.09375 -27.484375 L 19.09375 0 L 7.15625 0 Z M 19.09375 -37.125 L 29.6875 -37.125 C 33 -37.125 35.625 -38.078125 37.5625 -39.984375 C 39.5 -41.898438 40.46875 -44.476562 40.46875 -47.71875 C 40.46875 -51.03125 39.476562 -53.671875 37.5 -55.640625 C 35.53125 -57.617188 32.925781 -58.609375 29.6875 -58.609375 L 19.09375 -58.609375 Z M 19.09375 -37.125 "/></g></g></g><g fill="#000000" fill-opacity="1"><g transform="translate(366.298309, 373.048801)"><g><path d="M 8.203125 0 L 8.203125 -68.71875 L 50.5 -68.71875 L 50.5 -58.21875 L 20.140625 -58.21875 L 20.140625 -40.5625 L 47.15625 -40.5625 L 47.15625 -30.0625 L 20.140625 -30.0625 L 20.140625 -10.5 L 50.5 -10.5 L 50.5 0 Z M 8.203125 0 "/></g></g></g><g fill="#000000" fill-opacity="1"><g transform="translate(194.489621, 472.798796)"><g><path d="M 1.53125 -68.71875 L 10.875 -68.71875 L 14.796875 -21.1875 C 14.921875 -20.101562 15 -18.8125 15.03125 -17.3125 C 15.0625 -15.820312 15.078125 -14.347656 15.078125 -12.890625 C 15.140625 -11.234375 15.171875 -9.515625 15.171875 -7.734375 L 16.234375 -7.734375 C 16.296875 -9.515625 16.359375 -11.234375 16.421875 -12.890625 C 16.484375 -14.347656 16.5625 -15.820312 16.65625 -17.3125 C 16.75 -18.8125 16.859375 -20.101562 16.984375 -21.1875 L 22.90625 -68.71875 L 34.546875 -68.71875 L 40.1875 -21.1875 C 40.3125 -20.101562 40.40625 -18.8125 40.46875 -17.3125 C 40.53125 -15.820312 40.628906 -14.347656 40.765625 -12.890625 C 40.890625 -11.234375 40.984375 -9.515625 41.046875 -7.734375 L 42.09375 -7.734375 C 42.09375 -9.515625 42.125 -11.234375 42.1875 -12.890625 C 42.25 -14.347656 42.296875 -15.820312 42.328125 -17.3125 C 42.359375 -18.8125 42.410156 -20.101562 42.484375 -21.1875 L 46.296875 -68.71875 L 55.75 -68.71875 L 48.6875 0 L 35.125 0 L 29.78125 -47.4375 C 29.65625 -48.90625 29.539062 -50.414062 29.4375 -51.96875 C 29.34375 -53.53125 29.296875 -54.976562 29.296875 -56.3125 C 29.296875 -57.84375 29.296875 -59.335938 29.296875 -60.796875 L 28.25 -60.796875 C 28.25 -59.335938 28.25 -57.84375 28.25 -56.3125 C 28.1875 -54.976562 28.109375 -53.53125 28.015625 -51.96875 C 27.921875 -50.414062 27.773438 -48.90625 27.578125 -47.4375 L 21.765625 0 L 8.40625 0 Z M 1.53125 -68.71875 "/></g></g></g><g fill="#000000" fill-opacity="1"><g transform="translate(251.759184, 472.798796)"><g><path d="M 19.1875 -68.71875 L 19.1875 -41.234375 L 38.1875 -41.234375 L 38.1875 -68.71875 L 50.109375 -68.71875 L 50.109375 0 L 38.1875 0 L 38.1875 -30.265625 L 19.1875 -30.265625 L 19.1875 0 L 7.15625 0 L 7.15625 -68.71875 Z M 19.1875 -68.71875 "/></g></g></g><g fill="#000000" fill-opacity="1"><g transform="translate(309.028746, 472.798796)"><g><path d="M 2.296875 0 L 20.8125 -68.71875 L 36.9375 -68.71875 L 54.984375 0 L 42.671875 0 L 38.5625 -17.28125 L 18.609375 -17.28125 L 14.515625 0 Z M 20.90625 -26.734375 L 36.265625 -26.734375 L 30.453125 -51.265625 C 30.191406 -52.398438 29.953125 -53.539062 29.734375 -54.6875 C 29.515625 -55.832031 29.335938 -56.851562 29.203125 -57.75 C 29.078125 -58.769531 28.953125 -59.785156 28.828125 -60.796875 L 28.34375 -60.796875 C 28.21875 -59.785156 28.09375 -58.769531 27.96875 -57.75 C 27.84375 -56.851562 27.679688 -55.832031 27.484375 -54.6875 C 27.296875 -53.539062 27.046875 -52.398438 26.734375 -51.265625 Z M 20.90625 -26.734375 "/></g></g></g><g fill="#000000" fill-opacity="1"><g transform="translate(366.298309, 472.798796)"><g><path d="M 3.71875 -68.71875 L 53.546875 -68.71875 L 53.546875 -57.75 L 34.65625 -57.75 L 34.65625 0 L 22.625 0 L 22.625 -57.75 L 3.71875 -57.75 Z M 3.71875 -68.71875 "/></g></g></g><g fill="#000000" fill-opacity="1"><g transform="translate(251.759149, 572.548791)"><g><path d="M 3.71875 -68.71875 L 53.546875 -68.71875 L 53.546875 -57.75 L 34.65625 -57.75 L 34.65625 0 L 22.625 0 L 22.625 -57.75 L 3.71875 -57.75 Z M 3.71875 -68.71875 "/></g></g></g><g fill="#000000" fill-opacity="1"><g transform="translate(309.028712, 572.548791)"><g><path d="M 17.75 -20.140625 C 17.75 -16.890625 18.734375 -14.3125 20.703125 -12.40625 C 22.679688 -10.5 25.328125 -9.546875 28.640625 -9.546875 C 31.941406 -9.546875 34.578125 -10.5 36.546875 -12.40625 C 38.523438 -14.3125 39.515625 -16.890625 39.515625 -20.140625 L 39.515625 -48.6875 C 39.515625 -51.925781 38.523438 -54.5 36.546875 -56.40625 C 34.578125 -58.320312 31.941406 -59.28125 28.640625 -59.28125 C 25.328125 -59.28125 22.679688 -58.320312 20.703125 -56.40625 C 18.734375 -54.5 17.75 -51.925781 17.75 -48.6875 Z M 5.828125 -48.6875 C 5.828125 -51.863281 6.363281 -54.738281 7.4375 -57.3125 C 8.519531 -59.894531 10.046875 -62.109375 12.015625 -63.953125 C 13.992188 -65.796875 16.398438 -67.210938 19.234375 -68.203125 C 22.066406 -69.191406 25.203125 -69.6875 28.640625 -69.6875 C 32.078125 -69.6875 35.207031 -69.191406 38.03125 -68.203125 C 40.863281 -67.210938 43.265625 -65.796875 45.234375 -63.953125 C 47.210938 -62.109375 48.742188 -59.894531 49.828125 -57.3125 C 50.910156 -54.738281 51.453125 -51.863281 51.453125 -48.6875 L 51.453125 -20.140625 C 51.453125 -17.023438 50.910156 -14.160156 49.828125 -11.546875 C 48.742188 -8.941406 47.195312 -6.710938 45.1875 -4.859375 C 43.1875 -3.015625 40.785156 -1.582031 37.984375 -0.5625 C 35.191406 0.445312 32.078125 0.953125 28.640625 0.953125 C 25.203125 0.953125 22.066406 0.460938 19.234375 -0.515625 C 16.398438 -1.503906 13.992188 -2.921875 12.015625 -4.765625 C 10.046875 -6.617188 8.519531 -8.847656 7.4375 -11.453125 C 6.363281 -14.066406 5.828125 -16.960938 5.828125 -20.140625 Z M 5.828125 -48.6875 "/></g></g></g><g fill="#000000" fill-opacity="1"><g transform="translate(194.489621, 672.298786)"><g><path d="M 28.640625 0.953125 C 21.765625 0.953125 16.382812 -0.890625 12.5 -4.578125 C 8.625 -8.273438 6.6875 -13.367188 6.6875 -19.859375 L 6.6875 -68.71875 L 18.703125 -68.71875 L 18.703125 -19.953125 C 18.703125 -16.640625 19.546875 -14.0625 21.234375 -12.21875 C 22.921875 -10.375 25.390625 -9.453125 28.640625 -9.453125 C 31.816406 -9.453125 34.28125 -10.375 36.03125 -12.21875 C 37.78125 -14.0625 38.65625 -16.640625 38.65625 -19.953125 L 38.65625 -68.71875 L 50.59375 -68.71875 L 50.59375 -19.859375 C 50.59375 -13.367188 48.648438 -8.273438 44.765625 -4.578125 C 40.878906 -0.890625 35.503906 0.953125 28.640625 0.953125 Z M 28.640625 0.953125 "/></g></g></g><g fill="#000000" fill-opacity="1"><g transform="translate(251.759184, 672.298786)"><g><path d="M 28.640625 0.953125 C 25.265625 0.953125 22.160156 0.507812 19.328125 -0.375 C 16.492188 -1.269531 14.054688 -2.5625 12.015625 -4.25 C 9.984375 -5.9375 8.378906 -7.957031 7.203125 -10.3125 C 6.023438 -12.664062 5.375 -15.304688 5.25 -18.234375 L 17.46875 -18.234375 C 17.59375 -15.492188 18.6875 -13.34375 20.75 -11.78125 C 22.820312 -10.226562 25.546875 -9.453125 28.921875 -9.453125 C 32.421875 -9.453125 35.140625 -10.242188 37.078125 -11.828125 C 39.023438 -13.421875 40 -15.554688 40 -18.234375 C 40 -20.585938 39.265625 -22.625 37.796875 -24.34375 C 36.335938 -26.0625 34.269531 -27.332031 31.59375 -28.15625 L 24.34375 -30.265625 C 12.507812 -33.503906 6.59375 -40.3125 6.59375 -50.6875 C 6.59375 -53.550781 7.113281 -56.160156 8.15625 -58.515625 C 9.207031 -60.867188 10.6875 -62.890625 12.59375 -64.578125 C 14.507812 -66.265625 16.832031 -67.550781 19.5625 -68.4375 C 22.300781 -69.332031 25.390625 -69.78125 28.828125 -69.78125 C 35.316406 -69.78125 40.550781 -68.109375 44.53125 -64.765625 C 48.507812 -61.421875 50.65625 -56.820312 50.96875 -50.96875 L 38.84375 -50.96875 C 38.71875 -53.582031 37.703125 -55.617188 35.796875 -57.078125 C 33.890625 -58.546875 31.472656 -59.28125 28.546875 -59.28125 C 25.421875 -59.28125 22.96875 -58.546875 21.1875 -57.078125 C 19.40625 -55.617188 18.515625 -53.679688 18.515625 -51.265625 C 18.515625 -46.679688 21.285156 -43.59375 26.828125 -42 L 34.453125 -39.90625 C 40.179688 -38.3125 44.539062 -35.71875 47.53125 -32.125 C 50.519531 -28.53125 52.015625 -24.085938 52.015625 -18.796875 C 52.015625 -15.804688 51.457031 -13.101562 50.34375 -10.6875 C 49.238281 -8.269531 47.664062 -6.203125 45.625 -4.484375 C 43.59375 -2.765625 41.144531 -1.425781 38.28125 -0.46875 C 35.414062 0.476562 32.203125 0.953125 28.640625 0.953125 Z M 28.640625 0.953125 "/></g></g></g><g fill="#000000" fill-opacity="1"><g transform="translate(309.028746, 672.298786)"><g><path d="M 8.203125 0 L 8.203125 -68.71875 L 50.5 -68.71875 L 50.5 -58.21875 L 20.140625 -58.21875 L 20.140625 -40.5625 L 47.15625 -40.5625 L 47.15625 -30.0625 L 20.140625 -30.0625 L 20.140625 -10.5 L 50.5 -10.5 L 50.5 0 Z M 8.203125 0 "/></g></g></g><g fill="#000000" fill-opacity="1"><g transform="translate(366.298309, 672.298786)"><g><path d="M 22.53125 -12.125 L 25.015625 -12.125 C 27.046875 -12.125 28.664062 -11.535156 29.875 -10.359375 C 31.082031 -9.179688 31.6875 -7.640625 31.6875 -5.734375 C 31.6875 -3.816406 31.066406 -2.300781 29.828125 -1.1875 C 28.585938 -0.0703125 26.945312 0.484375 24.90625 0.484375 L 22.53125 0.484375 C 20.488281 0.484375 18.847656 -0.0859375 17.609375 -1.234375 C 16.367188 -2.378906 15.75 -3.910156 15.75 -5.828125 C 15.75 -7.671875 16.367188 -9.179688 17.609375 -10.359375 C 18.847656 -11.535156 20.488281 -12.125 22.53125 -12.125 Z M 48.484375 -48.6875 C 48.484375 -45.820312 48.019531 -43.226562 47.09375 -40.90625 C 46.175781 -38.582031 44.875 -36.5625 43.1875 -34.84375 C 41.5 -33.125 39.476562 -31.785156 37.125 -30.828125 C 34.769531 -29.878906 32.160156 -29.367188 29.296875 -29.296875 L 29.296875 -20.71875 L 18.703125 -20.71875 L 18.515625 -39.796875 L 26.0625 -39.796875 C 29.300781 -39.796875 31.859375 -40.578125 33.734375 -42.140625 C 35.617188 -43.703125 36.5625 -45.882812 36.5625 -48.6875 C 36.5625 -51.476562 35.617188 -53.65625 33.734375 -55.21875 C 31.859375 -56.78125 29.269531 -57.5625 25.96875 -57.5625 L 11.734375 -57.5625 L 11.734375 -68.71875 L 25.390625 -68.71875 C 28.890625 -68.71875 32.070312 -68.238281 34.9375 -67.28125 C 37.800781 -66.332031 40.234375 -64.984375 42.234375 -63.234375 C 44.242188 -61.484375 45.785156 -59.382812 46.859375 -56.9375 C 47.941406 -54.488281 48.484375 -51.738281 48.484375 -48.6875 Z M 48.484375 -48.6875 "/></g></g></g><g fill="#ffffff" fill-opacity="1"><g transform="translate(559.12083, 693.192589)"><g><path d="M 17.140625 -58.5 L 2.3125 -65.65625 C 2.3125 -65.925781 2.515625 -66.648438 2.921875 -67.828125 C 3.328125 -69.003906 4.132812 -70.582031 5.34375 -72.5625 C 6.550781 -74.550781 8.078125 -76.414062 9.921875 -78.15625 C 11.773438 -79.90625 14.382812 -81.4375 17.75 -82.75 C 21.113281 -84.0625 24.910156 -84.71875 29.140625 -84.71875 C 36.941406 -84.71875 43.664062 -82.429688 49.3125 -77.859375 C 54.96875 -73.285156 57.796875 -67.535156 57.796875 -60.609375 C 57.796875 -52.078125 52.113281 -45.390625 40.75 -40.546875 C 39.195312 -39.867188 38.21875 -38.941406 37.8125 -37.765625 C 37.414062 -36.585938 37.21875 -34.957031 37.21875 -32.875 L 37.21875 -27.234375 L 20.578125 -27.234375 L 20.578125 -38.21875 C 20.578125 -40.039062 20.644531 -41.472656 20.78125 -42.515625 C 20.914062 -43.554688 21.351562 -44.695312 22.09375 -45.9375 C 22.832031 -47.1875 23.90625 -48.28125 25.3125 -49.21875 C 26.382812 -49.894531 27.828125 -50.6875 29.640625 -51.59375 C 31.460938 -52.5 32.8125 -53.21875 33.6875 -53.75 C 34.5625 -54.289062 35.367188 -55.148438 36.109375 -56.328125 C 36.847656 -57.503906 37.21875 -58.929688 37.21875 -60.609375 C 37.21875 -63.035156 36.425781 -65.019531 34.84375 -66.5625 C 33.269531 -68.113281 31.335938 -68.890625 29.046875 -68.890625 C 25.753906 -68.890625 23.113281 -67.828125 21.125 -65.703125 C 19.144531 -63.585938 17.816406 -61.1875 17.140625 -58.5 Z M 28.84375 -21.578125 C 32.070312 -21.578125 34.8125 -20.453125 37.0625 -18.203125 C 39.3125 -15.953125 40.4375 -13.210938 40.4375 -9.984375 C 40.4375 -6.828125 39.3125 -4.117188 37.0625 -1.859375 C 34.8125 0.390625 32.070312 1.515625 28.84375 1.515625 C 25.6875 1.515625 22.976562 0.390625 20.71875 -1.859375 C 18.46875 -4.117188 17.34375 -6.828125 17.34375 -9.984375 C 17.34375 -13.210938 18.46875 -15.953125 20.71875 -18.203125 C 22.976562 -20.453125 25.6875 -21.578125 28.84375 -21.578125 Z M 28.84375 -21.578125 "/></g></g></g><path stroke-linecap="butt" transform="matrix(0.204019, 0, 0, 0.204019, 686.307617, 125.972898)" fill="none" stroke-linejoin="miter" d="M 148.772824 185.125987 L 79.386033 151.696259 C 79.386033 150.394299 80.305064 147.005375 82.143124 141.548632 C 84.076918 136.015303 87.867918 128.605621 93.554418 119.300439 C 99.240918 110.014403 106.401696 101.283615 114.998459 93.146367 C 123.690955 84.913387 135.9064 77.733463 151.663941 71.587447 C 167.402335 65.441432 185.189402 62.358851 205.02514 62.358851 C 241.518303 62.358851 272.995092 73.080871 299.436361 94.524913 C 325.858483 115.892368 339.088691 142.774006 339.088691 175.208118 C 339.088691 215.166792 312.49425 246.490409 259.324516 269.159824 C 252.087152 272.299845 247.511147 276.646092 245.5965 282.179421 C 243.681854 287.712749 242.72453 295.352189 242.72453 305.116886 L 242.72453 331.519862 L 164.913295 331.519862 L 164.913295 280.111603 C 164.913295 271.572279 165.219638 264.890162 165.832325 260.046107 C 166.445012 255.125465 168.493684 249.745308 171.940048 243.905636 C 175.405558 238.065964 180.441078 232.953858 187.046609 228.569317 C 192.120422 225.429297 198.879124 221.734029 207.322716 217.521807 C 215.862039 213.290438 222.161226 209.901514 226.239424 207.37418 C 230.298474 204.8277 234.070328 200.845235 237.535838 195.388493 C 240.982202 189.855164 242.72453 183.115608 242.72453 175.208118 C 242.72453 163.911704 239.029262 154.644814 231.657873 147.426597 C 224.267338 140.131794 215.249352 136.474819 204.565625 136.474819 C 189.114427 136.474819 176.74581 141.433753 167.440628 151.351622 C 158.154592 161.269491 151.931991 172.527613 148.772824 185.125987 Z M 203.531716 357.903692 C 218.657423 357.903692 231.504702 363.207263 242.035258 373.814404 C 252.546667 384.34496 257.811945 397.134799 257.811945 412.203068 C 257.811945 427.041578 252.546667 439.716539 242.035258 450.247095 C 231.504702 460.758504 218.657423 466.023782 203.531716 466.023782 C 188.769791 466.023782 176.133123 460.758504 165.602567 450.247095 C 155.072011 439.716539 149.806733 427.041578 149.806733 412.203068 C 149.806733 397.134799 155.072011 384.34496 165.602567 373.814404 C 176.133123 363.207263 188.769791 357.903692 203.531716 357.903692 Z M 203.531716 357.903692 " stroke="#ffffff" stroke-width="12.68887" stroke-opacity="1" stroke-miterlimit="4"/></svg>