<svg xmlns="http://www.w3.org/2000/svg" xmlns:xlink="http://www.w3.org/1999/xlink" width="75" zoomAndPan="magnify" viewBox="0 0 56.25 56.249997" height="75" preserveAspectRatio="xMidYMid meet" version="1.0"><defs><clipPath id="ef35d17cb0"><path d="M 0 2 L 51 2 L 51 51 L 0 51 Z M 0 2 " clip-rule="nonzero"/></clipPath><clipPath id="2231302b4b"><path d="M 10.339844 -3.546875 L 57.25 10.078125 L 43.011719 59.121094 L -3.898438 45.496094 Z M 10.339844 -3.546875 " clip-rule="nonzero"/></clipPath><clipPath id="98232264aa"><path d="M 10.339844 -3.546875 L 57.25 10.078125 L 43.011719 59.121094 L -3.898438 45.496094 Z M 10.339844 -3.546875 " clip-rule="nonzero"/></clipPath><clipPath id="405dd9c8ca"><path d="M 12 27 L 46 27 L 46 44.503906 L 12 44.503906 Z M 12 27 " clip-rule="nonzero"/></clipPath><clipPath id="d7e0b8a5b3"><path d="M 1 43 L 11 43 L 11 44.503906 L 1 44.503906 Z M 1 43 " clip-rule="nonzero"/></clipPath><clipPath id="33e0704b09"><path d="M 48 41 L 54.601562 41 L 54.601562 44 L 48 44 Z M 48 41 " clip-rule="nonzero"/></clipPath><clipPath id="05ab822471"><path d="M 50 27 L 54.601562 27 L 54.601562 43 L 50 43 Z M 50 27 " clip-rule="nonzero"/></clipPath><clipPath id="9a5ea147e7"><path d="M 46 20 L 54.601562 20 L 54.601562 30 L 46 30 Z M 46 20 " clip-rule="nonzero"/></clipPath><clipPath id="0719bcd069"><path d="M 0.570312 24 L 9 24 L 9 32 L 0.570312 32 Z M 0.570312 24 " clip-rule="nonzero"/></clipPath><clipPath id="9f4546648f"><path d="M 0.570312 26 L 7 26 L 7 30 L 0.570312 30 Z M 0.570312 26 " clip-rule="nonzero"/></clipPath><clipPath id="c3b4d1e1f6"><path d="M 8 11.199219 L 32 11.199219 L 32 20 L 8 20 Z M 8 11.199219 " clip-rule="nonzero"/></clipPath><clipPath id="1ac2500433"><path d="M 7 11.199219 L 32 11.199219 L 32 20 L 7 20 Z M 7 11.199219 " clip-rule="nonzero"/></clipPath><clipPath id="2ae09833d9"><path d="M 8 11.199219 L 30 11.199219 L 30 19 L 8 19 Z M 8 11.199219 " clip-rule="nonzero"/></clipPath><clipPath id="7e9ce39254"><path d="M 19 42 L 23 42 L 23 44.503906 L 19 44.503906 Z M 19 42 " clip-rule="nonzero"/></clipPath></defs><g clip-path="url(#ef35d17cb0)"><g clip-path="url(#2231302b4b)"><g clip-path="url(#98232264aa)"><path fill="#f1e181" d="M 50.5625 33.195312 C 51.046875 28.074219 49.589844 23.035156 47.605469 18.359375 C 45.851562 14.234375 43.492188 10.3125 40.144531 7.285156 C 38.527344 5.816406 36.644531 4.351562 34.570312 3.621094 C 32.503906 2.894531 30.261719 2.699219 28.09375 2.984375 C 25.890625 3.261719 23.730469 4.070312 21.917969 5.335938 C 19.859375 6.761719 18.363281 8.761719 16.832031 10.71875 C 13.367188 15.175781 8.988281 18.792969 5.484375 23.234375 C 2.382812 27.160156 0.0234375 31.980469 0.535156 37.125 C 1.027344 42.03125 4.414062 45.753906 8.695312 47.925781 C 13.597656 50.394531 19.257812 50.898438 24.660156 50.304688 C 27.367188 50.015625 30.039062 49.453125 32.683594 48.777344 C 35.292969 48.101562 37.917969 47.398438 40.445312 46.46875 C 42.734375 45.625 44.863281 44.460938 46.519531 42.644531 C 48.097656 40.921875 49.226562 38.804688 49.898438 36.5625 C 50.234375 35.449219 50.4375 34.316406 50.5625 33.195312 " fill-opacity="1" fill-rule="nonzero"/></g></g></g><g clip-path="url(#405dd9c8ca)"><path fill="#000000" d="M 45.132812 27.632812 C 45.128906 27.625 45.125 27.617188 45.117188 27.613281 C 45.109375 27.609375 45.101562 27.605469 45.09375 27.605469 L 19.042969 27.605469 C 19.027344 27.605469 19.015625 27.613281 19.007812 27.621094 L 12.964844 34.320312 C 12.953125 34.335938 12.949219 34.351562 12.960938 34.371094 C 12.964844 34.386719 12.980469 34.398438 13 34.394531 L 37.789062 34.394531 L 37.789062 44.152344 C 37.785156 44.1875 37.800781 44.207031 37.835938 44.207031 C 37.871094 44.207031 37.886719 44.1875 37.882812 44.152344 L 37.882812 34.371094 L 45.042969 27.753906 L 45.042969 37.226562 C 45.042969 37.257812 45.058594 37.273438 45.089844 37.273438 C 45.121094 37.273438 45.136719 37.257812 45.136719 37.226562 L 45.136719 27.652344 C 45.136719 27.644531 45.136719 27.636719 45.132812 27.632812 Z M 45.132812 27.632812 " fill-opacity="1" fill-rule="nonzero"/></g><path fill="#ffffff" d="M 8.964844 43.8125 L 7.851562 43.8125 L 7.535156 42.664062 L 8.648438 42.664062 Z M 1.980469 43.8125 L 3.058594 43.8125 L 3.085938 42.664062 L 2.007812 42.664062 Z M 1.980469 43.8125 " fill-opacity="1" fill-rule="nonzero"/><g clip-path="url(#d7e0b8a5b3)"><path fill="#000000" d="M 10.238281 44.308594 L 7.652344 44.308594 C 7.609375 44.308594 7.574219 44.292969 7.550781 44.261719 C 7.523438 44.226562 7.519531 44.191406 7.53125 44.152344 L 7.71875 43.414062 C 7.71875 43.414062 8.308594 43.863281 8.800781 43.414062 L 10.265625 44.179688 C 10.292969 44.195312 10.304688 44.21875 10.296875 44.253906 C 10.289062 44.285156 10.269531 44.304688 10.238281 44.308594 Z M 4.558594 44.175781 L 3.089844 43.414062 C 2.597656 43.863281 2.011719 43.414062 2.011719 43.414062 L 1.816406 44.152344 C 1.804688 44.195312 1.8125 44.230469 1.835938 44.261719 C 1.863281 44.296875 1.894531 44.3125 1.9375 44.308594 L 4.523438 44.308594 C 4.558594 44.308594 4.582031 44.292969 4.589844 44.257812 C 4.597656 44.222656 4.585938 44.195312 4.554688 44.179688 Z M 4.558594 44.175781 " fill-opacity="1" fill-rule="nonzero"/></g><path fill="#000000" d="M 8.964844 43.855469 L 7.851562 43.855469 C 7.828125 43.855469 7.8125 43.84375 7.808594 43.824219 L 7.492188 42.675781 C 7.488281 42.660156 7.492188 42.648438 7.5 42.636719 C 7.511719 42.625 7.523438 42.617188 7.535156 42.617188 L 8.648438 42.617188 C 8.671875 42.617188 8.6875 42.628906 8.691406 42.652344 L 9.007812 43.796875 C 9.015625 43.835938 9.003906 43.855469 8.964844 43.855469 Z M 7.886719 43.765625 L 8.902344 43.765625 L 8.613281 42.707031 L 7.597656 42.707031 Z M 3.058594 43.855469 L 1.980469 43.855469 C 1.96875 43.855469 1.957031 43.851562 1.949219 43.84375 C 1.9375 43.832031 1.933594 43.820312 1.9375 43.808594 L 1.964844 42.660156 C 1.964844 42.632812 1.980469 42.617188 2.007812 42.617188 L 3.085938 42.617188 C 3.097656 42.617188 3.109375 42.621094 3.117188 42.632812 C 3.125 42.640625 3.132812 42.652344 3.132812 42.664062 L 3.105469 43.8125 C 3.101562 43.839844 3.085938 43.855469 3.058594 43.855469 Z M 2.027344 43.765625 L 3.015625 43.765625 L 3.039062 42.707031 L 2.054688 42.707031 Z M 2.027344 43.765625 " fill-opacity="1" fill-rule="nonzero"/><path fill="#ffffff" d="M 37.789062 33.496094 L 12.953125 33.496094 L 18.992188 26.796875 L 45.046875 26.796875 Z M 37.789062 33.496094 " fill-opacity="1" fill-rule="nonzero"/><path fill="#000000" d="M 37.789062 33.539062 L 12.953125 33.539062 C 12.933594 33.542969 12.917969 33.53125 12.910156 33.515625 C 12.902344 33.496094 12.90625 33.480469 12.917969 33.464844 L 18.960938 26.765625 C 18.96875 26.757812 18.980469 26.75 18.992188 26.75 L 45.046875 26.75 C 45.066406 26.75 45.082031 26.761719 45.089844 26.78125 C 45.097656 26.800781 45.09375 26.816406 45.078125 26.828125 L 37.824219 33.527344 C 37.816406 33.539062 37.804688 33.542969 37.789062 33.539062 Z M 13.054688 33.449219 L 37.773438 33.449219 L 44.929688 26.839844 L 19.015625 26.839844 Z M 13.054688 33.449219 " fill-opacity="1" fill-rule="nonzero"/><path fill="#ffffff" d="M 18.714844 30.457031 C 18.714844 30.457031 19.132812 29.832031 19.570312 29.761719 C 20.011719 29.691406 28.488281 29.730469 28.675781 29.761719 C 28.863281 29.792969 28.75 30.449219 28.75 30.449219 L 27.125 32.015625 L 19.5625 31.886719 Z M 18.714844 30.457031 " fill-opacity="1" fill-rule="nonzero"/><path fill="#000000" d="M 27.121094 32.058594 L 19.5625 31.929688 C 19.542969 31.929688 19.53125 31.921875 19.523438 31.90625 L 18.667969 30.480469 C 18.660156 30.464844 18.660156 30.449219 18.667969 30.433594 C 18.6875 30.40625 19.105469 29.789062 19.554688 29.714844 C 19.910156 29.65625 28.347656 29.660156 28.675781 29.714844 C 28.890625 29.753906 28.8125 30.292969 28.785156 30.460938 C 28.785156 30.46875 28.78125 30.476562 28.773438 30.484375 L 27.148438 32.046875 C 27.140625 32.054688 27.132812 32.058594 27.121094 32.058594 Z M 19.589844 31.839844 L 27.101562 31.96875 L 28.703125 30.429688 C 28.75 30.136719 28.746094 29.824219 28.664062 29.808594 C 28.621094 29.796875 20.128906 29.714844 19.574219 29.808594 C 19.210938 29.867188 18.851562 30.347656 18.765625 30.460938 Z M 19.589844 31.839844 " fill-opacity="1" fill-rule="nonzero"/><path fill="#0097b2" d="M 17.691406 34.277344 C 17.691406 34.277344 22.089844 34.210938 22.898438 34.480469 C 23.703125 34.75 23.773438 35.425781 23.605469 36.132812 C 23.4375 36.839844 21.683594 42.707031 21.210938 42.875 C 20.738281 43.042969 19.691406 42.945312 19.59375 42.402344 L 20.707031 36.726562 L 18.53125 36.675781 L 18.125 42.148438 C 18.125 42.148438 17.28125 42.855469 16.289062 42.113281 L 16.210938 36.566406 C 16.210938 36.566406 15.160156 36.625 14.90625 36.589844 C 14.652344 36.554688 16.78125 34.164062 16.78125 34.164062 Z M 17.691406 34.277344 " fill-opacity="1" fill-rule="nonzero"/><path fill="#ffffff" d="M 17.839844 42.242188 L 17.839844 42.628906 C 17.839844 42.628906 19.371094 43.234375 19.253906 43.476562 C 19.136719 43.714844 16.488281 43.390625 16.457031 43.234375 C 16.421875 43.074219 16.507812 42.238281 16.507812 42.238281 C 17.28125 42.578125 17.839844 42.242188 17.839844 42.242188 Z M 17.839844 42.242188 " fill-opacity="1" fill-rule="nonzero"/><path fill="#000000" d="M 18.742188 43.601562 C 18.332031 43.59375 17.925781 43.5625 17.523438 43.511719 C 16.804688 43.421875 16.433594 43.332031 16.414062 43.246094 C 16.378906 43.089844 16.453125 42.324219 16.460938 42.234375 C 16.464844 42.222656 16.46875 42.210938 16.484375 42.203125 C 16.496094 42.195312 16.511719 42.195312 16.523438 42.203125 C 17.269531 42.523438 17.808594 42.207031 17.816406 42.203125 C 17.832031 42.195312 17.847656 42.195312 17.863281 42.203125 C 17.878906 42.210938 17.882812 42.222656 17.882812 42.242188 L 17.882812 42.605469 C 18.113281 42.695312 19.199219 43.144531 19.296875 43.40625 C 19.3125 43.4375 19.3125 43.46875 19.296875 43.5 C 19.253906 43.574219 19.027344 43.601562 18.742188 43.601562 Z M 16.5 43.21875 C 16.636719 43.328125 18.425781 43.570312 19.046875 43.5 C 19.195312 43.480469 19.214844 43.453125 19.214844 43.453125 C 19.21875 43.445312 19.21875 43.4375 19.214844 43.429688 C 19.144531 43.25 18.34375 42.878906 17.824219 42.671875 C 17.804688 42.664062 17.796875 42.652344 17.792969 42.628906 L 17.792969 42.316406 C 17.378906 42.492188 16.960938 42.488281 16.546875 42.308594 C 16.511719 42.609375 16.496094 42.914062 16.5 43.21875 Z M 16.5 43.226562 Z M 16.5 43.214844 Z M 16.5 43.214844 " fill-opacity="1" fill-rule="nonzero"/><path fill="#000000" d="M 5.085938 23.664062 C 4.0625 23.71875 3.46875 22.28125 4.074219 22.058594 C 4.679688 21.835938 4.363281 21.339844 4.835938 20.691406 C 5.308594 20.042969 6.496094 20.492188 6.71875 20.960938 C 6.941406 21.429688 6.644531 22.074219 6.644531 22.074219 C 6.644531 22.074219 6.113281 23.605469 5.085938 23.664062 Z M 5.085938 23.664062 " fill-opacity="1" fill-rule="nonzero"/><path fill="#000000" d="M 27.617188 30.195312 L 19.691406 30.195312 C 19.667969 30.191406 19.65625 30.179688 19.65625 30.152344 C 19.65625 30.125 19.667969 30.109375 19.691406 30.105469 L 27.617188 30.105469 C 27.652344 30.101562 27.671875 30.117188 27.671875 30.152344 C 27.671875 30.1875 27.652344 30.203125 27.617188 30.195312 Z M 27.375 30.625 C 27.375 30.59375 27.359375 30.578125 27.332031 30.578125 L 19.40625 30.578125 C 19.375 30.578125 19.363281 30.59375 19.363281 30.625 C 19.359375 30.65625 19.375 30.667969 19.40625 30.667969 L 27.332031 30.667969 C 27.363281 30.667969 27.378906 30.65625 27.378906 30.625 Z M 26.988281 31.148438 C 26.988281 31.117188 26.972656 31.101562 26.941406 31.101562 L 19.019531 31.101562 C 18.992188 31.105469 18.980469 31.121094 18.980469 31.144531 C 18.980469 31.171875 18.992188 31.1875 19.019531 31.191406 L 26.945312 31.191406 C 26.972656 31.191406 26.988281 31.175781 26.988281 31.148438 Z M 26.988281 31.148438 " fill-opacity="1" fill-rule="nonzero"/><path fill="#000000" d="M 47.320312 42.785156 L 47.394531 30.265625 C 47.394531 30.265625 47.316406 29.535156 46.679688 29.53125 C 45.996094 29.53125 45.953125 30.257812 45.953125 30.257812 C 45.9375 30.3125 45.902344 30.339844 45.84375 30.339844 C 45.785156 30.339844 45.75 30.3125 45.738281 30.253906 C 45.738281 30.253906 45.796875 29.308594 46.679688 29.3125 C 47.503906 29.3125 47.605469 30.265625 47.605469 30.265625 L 47.648438 42.789062 C 47.683594 42.796875 47.703125 42.824219 47.703125 42.859375 L 47.75 43.4375 L 47.199219 43.4375 C 47.199219 43.4375 47.253906 42.875 47.273438 42.820312 C 47.277344 42.804688 47.292969 42.792969 47.320312 42.785156 Z M 47.320312 42.785156 " fill-opacity="1" fill-rule="nonzero"/><path fill="#ffbd59" d="M 47.238281 28.855469 L 47.167969 29.199219 C 47.101562 29.507812 46.824219 29.59375 46.402344 29.707031 C 45.976562 29.820312 46.023438 30.03125 45.722656 30.121094 C 45.421875 30.207031 45.480469 29.792969 45.480469 29.792969 C 45.53125 29.511719 45.667969 29.277344 45.882812 29.09375 C 46.097656 28.90625 46.351562 28.8125 46.636719 28.804688 L 46.671875 28.617188 Z M 47.238281 28.855469 " fill-opacity="1" fill-rule="nonzero"/><g clip-path="url(#33e0704b09)"><path fill="#000000" d="M 54.121094 43.472656 C 54.085938 43.472656 52.753906 43.472656 52.753906 43.472656 L 51.03125 43.460938 L 50.164062 43.460938 L 48.441406 43.441406 C 48.460938 43.304688 48.519531 43.191406 48.617188 43.097656 C 48.71875 43.003906 48.835938 42.949219 48.972656 42.9375 C 49.46875 42.855469 50.300781 42.511719 50.605469 41.851562 C 50.925781 41.160156 51.710938 42.003906 51.710938 42.003906 C 51.726562 42.308594 51.726562 42.613281 51.710938 42.914062 C 52.210938 42.792969 52.917969 42.457031 53.191406 41.863281 C 53.511719 41.175781 54.292969 42.019531 54.292969 42.019531 C 54.292969 42.019531 54.386719 43.453125 54.121094 43.472656 Z M 54.121094 43.472656 " fill-opacity="1" fill-rule="nonzero"/></g><path fill="#ffffff" d="M 51.816406 38.570312 C 51.855469 39.171875 51.9375 39.949219 51.902344 40.648438 C 51.855469 41.628906 51.816406 42.453125 51.816406 42.453125 C 51.171875 42.667969 49.988281 42.394531 49.988281 42.394531 C 49.988281 42.394531 49.582031 39.917969 49.25 37.945312 C 49.101562 37.058594 48.976562 36.292969 48.929688 35.929688 C 48.78125 34.761719 49.140625 28.554688 49.140625 28.554688 C 49.140625 28.554688 50.890625 27.445312 51.609375 28.027344 C 52.328125 28.609375 52.765625 29.171875 51.566406 35.484375 C 51.476562 35.96875 51.730469 37.214844 51.816406 38.570312 Z M 51.816406 38.570312 " fill-opacity="1" fill-rule="nonzero"/><path fill="#000000" d="M 51.175781 42.582031 C 50.773438 42.574219 50.371094 42.527344 49.980469 42.4375 C 49.957031 42.433594 49.949219 42.421875 49.945312 42.402344 C 49.945312 42.378906 49.535156 39.902344 49.207031 37.953125 C 49.035156 36.9375 48.925781 36.257812 48.886719 35.9375 C 48.738281 34.777344 49.078125 28.804688 49.09375 28.550781 C 49.09375 28.535156 49.101562 28.523438 49.113281 28.515625 C 49.1875 28.46875 50.902344 27.394531 51.636719 27.992188 C 52.316406 28.539062 52.851562 28.972656 51.613281 35.496094 C 51.558594 35.769531 51.625 36.304688 51.707031 36.980469 C 51.761719 37.464844 51.828125 38.003906 51.863281 38.566406 C 51.871094 38.695312 51.878906 38.832031 51.890625 38.972656 C 51.945312 39.53125 51.964844 40.089844 51.949219 40.652344 C 51.898438 41.628906 51.863281 42.453125 51.863281 42.453125 C 51.863281 42.476562 51.851562 42.488281 51.832031 42.496094 C 51.617188 42.558594 51.398438 42.585938 51.175781 42.582031 Z M 50.03125 42.359375 C 50.210938 42.398438 51.199219 42.59375 51.773438 42.417969 C 51.78125 42.257812 51.8125 41.511719 51.859375 40.648438 C 51.871094 40.089844 51.851562 39.535156 51.800781 38.980469 C 51.789062 38.835938 51.78125 38.699219 51.773438 38.574219 C 51.734375 38.011719 51.671875 37.46875 51.613281 36.992188 C 51.535156 36.308594 51.46875 35.765625 51.523438 35.476562 C 52.753906 29.011719 52.234375 28.589844 51.582031 28.0625 C 50.925781 27.535156 49.375 28.460938 49.183594 28.582031 C 49.160156 29 48.832031 34.808594 48.972656 35.925781 C 49.015625 36.25 49.125 36.925781 49.292969 37.933594 C 49.605469 39.773438 49.980469 42.066406 50.03125 42.359375 Z M 51.816406 42.453125 Z M 51.816406 42.453125 " fill-opacity="1" fill-rule="nonzero"/><g clip-path="url(#05ab822471)"><path fill="#ffffff" d="M 53.136719 27.972656 C 53.898438 28.5 54.382812 29.027344 53.671875 35.414062 C 53.617188 35.898438 53.964844 37.128906 54.152344 38.46875 C 54.359375 39.90625 54.382812 42.351562 54.382812 42.351562 C 53.757812 42.617188 52.558594 42.496094 52.558594 42.496094 C 52.558594 42.496094 51.3125 37.210938 51.074219 36.054688 C 50.835938 34.902344 50.710938 28.683594 50.710938 28.683594 C 50.710938 28.683594 52.378906 27.449219 53.136719 27.972656 Z M 53.136719 27.972656 " fill-opacity="1" fill-rule="nonzero"/><path fill="#000000" d="M 53.167969 42.570312 C 52.835938 42.570312 52.578125 42.546875 52.554688 42.542969 C 52.53125 42.542969 52.519531 42.53125 52.515625 42.507812 C 52.503906 42.457031 51.265625 37.210938 51.03125 36.070312 C 50.792969 34.929688 50.675781 28.941406 50.667969 28.691406 C 50.667969 28.675781 50.671875 28.664062 50.683594 28.652344 C 50.753906 28.601562 52.378906 27.398438 53.160156 27.9375 C 53.878906 28.433594 54.445312 28.824219 53.710938 35.417969 C 53.679688 35.695312 53.785156 36.226562 53.917969 36.894531 C 54.011719 37.367188 54.117188 37.90625 54.195312 38.46875 C 54.398438 39.890625 54.425781 42.332031 54.425781 42.355469 C 54.425781 42.375 54.417969 42.390625 54.398438 42.398438 C 54.058594 42.535156 53.5625 42.570312 53.167969 42.570312 Z M 52.597656 42.457031 C 52.785156 42.472656 53.78125 42.539062 54.339844 42.320312 C 54.339844 42.03125 54.300781 39.804688 54.109375 38.476562 C 54.03125 37.921875 53.925781 37.386719 53.832031 36.914062 C 53.699219 36.234375 53.589844 35.703125 53.625 35.410156 C 54.351562 28.867188 53.808594 28.488281 53.113281 28.011719 C 52.417969 27.53125 50.945312 28.578125 50.761719 28.710938 C 50.769531 29.132812 50.890625 34.949219 51.117188 36.050781 C 51.34375 37.152344 52.492188 42.011719 52.597656 42.457031 Z M 52.597656 42.457031 " fill-opacity="1" fill-rule="nonzero"/></g><path fill="#ffbd59" d="M 53.671875 28.945312 C 53.910156 29.140625 54.019531 29.589844 53.933594 30.019531 C 53.847656 30.453125 53.910156 30.34375 53.855469 30.652344 C 53.800781 30.957031 53.457031 30.71875 53.457031 30.71875 C 53.226562 30.550781 53.078125 30.328125 53.007812 30.050781 C 52.9375 29.773438 52.960938 29.507812 53.082031 29.246094 Z M 53.671875 28.945312 " fill-opacity="1" fill-rule="nonzero"/><path fill="#ffbd59" d="M 51.089844 18.492188 C 51.265625 19.140625 51.570312 19.722656 52.007812 20.234375 L 50.71875 22.183594 L 50.011719 20.472656 C 50.113281 19.792969 49.636719 19.0625 49.636719 19.0625 Z M 51.089844 18.492188 " fill-opacity="1" fill-rule="nonzero"/><path fill="#ffbd59" d="M 48.890625 17.585938 C 48.988281 17.242188 49.347656 16.796875 50.417969 16.878906 C 51.726562 16.976562 51.25 17.671875 51.210938 18.71875 C 51.171875 19.765625 49.429688 19.683594 49.429688 19.683594 C 48.78125 19.621094 48.792969 17.933594 48.890625 17.585938 Z M 48.890625 17.585938 " fill-opacity="1" fill-rule="nonzero"/><g clip-path="url(#9a5ea147e7)"><path fill="#0097b2" d="M 54.855469 25.730469 C 54.855469 26.25 54.277344 29.113281 53.964844 29.421875 C 53.808594 29.453125 53.652344 29.453125 53.496094 29.421875 C 53.324219 29.386719 53.175781 29.3125 53.042969 29.195312 C 53.042969 29.195312 53.042969 29.144531 53.050781 29.054688 C 52.78125 29.078125 52.46875 29.097656 52.128906 29.117188 L 51.738281 29.136719 C 49.847656 29.234375 49.097656 28.921875 49.097656 28.921875 C 49.097656 28.921875 49.046875 28.882812 49.066406 28.660156 C 49.152344 27.515625 49.398438 27.179688 49.371094 26.96875 C 49.351562 26.8125 49.222656 26.3125 49.054688 25.695312 C 48.992188 25.984375 48.90625 26.265625 48.804688 26.542969 C 48.78125 26.601562 48.746094 26.664062 48.707031 26.746094 C 48.332031 27.472656 47.328125 28.90625 47.328125 28.90625 C 47.171875 28.921875 47.015625 28.90625 46.863281 28.863281 C 46.753906 28.808594 46.667969 28.726562 46.609375 28.621094 C 46.699219 28.480469 47.066406 26.792969 47.535156 25.84375 C 47.734375 25.4375 48.050781 21.679688 48.4375 21.175781 C 48.757812 20.757812 50.015625 20.472656 50.015625 20.472656 L 50.015625 20.480469 C 50.0625 20.617188 50.148438 20.722656 50.273438 20.796875 C 50.398438 20.867188 50.53125 20.890625 50.671875 20.863281 C 51.171875 20.796875 51.601562 20.585938 51.960938 20.230469 L 52.007812 20.230469 C 52.007812 20.230469 53.226562 20.265625 53.867188 21.109375 C 54.363281 21.757812 54.859375 25.214844 54.855469 25.730469 Z M 54.855469 25.730469 " fill-opacity="1" fill-rule="nonzero"/></g><path fill="#ffffff" d="M 50.027344 19.074219 C 50.410156 19.089844 51.214844 18.613281 51.214844 18.613281 C 51.207031 20.269531 49.675781 20.410156 49.097656 20.21875 C 48.523438 20.023438 48.871094 18.679688 48.871094 18.679688 C 48.910156 19 49.039062 19.007812 49.039062 19.007812 C 49.394531 18.835938 49.644531 19.0625 50.027344 19.074219 Z M 51.640625 17.179688 C 51.335938 16.445312 49.882812 16.269531 49.277344 17.074219 C 49.277344 17.074219 50 16.609375 50.976562 17.042969 C 51.054688 17.074219 51.105469 17.128906 51.136719 17.207031 C 51.140625 17.246094 51.136719 17.289062 51.125 17.328125 C 51.074219 17.5 50.976562 17.640625 50.835938 17.75 C 50.304688 18.234375 51.214844 18.617188 51.214844 18.617188 C 51.214844 18.617188 52.132812 18.371094 51.640625 17.179688 Z M 51.640625 17.179688 " fill-opacity="1" fill-rule="nonzero"/><path fill="#0097b2" d="M 7.164062 42.910156 L 4.359375 35.679688 L 3.546875 42.925781 L 1.742188 42.925781 L 1.882812 35.683594 L 1.355469 30.722656 L 2.402344 30.652344 L 2.46875 30.652344 L 4.101562 30.53125 C 4.101562 30.539062 4.101562 30.578125 4.101562 30.648438 L 5.335938 30.648438 L 6.914062 34.707031 L 8.996094 42.917969 Z M 7.164062 42.910156 " fill-opacity="1" fill-rule="nonzero"/><path fill="#ffbd59" d="M 12.933594 24.328125 L 12.730469 24.820312 L 12.117188 25.511719 L 11.117188 25.742188 C 11.046875 25.871094 10.679688 26.546875 10.261719 27.210938 C 9.3125 28.71875 9.039062 28.71875 8.945312 28.71875 C 8.550781 28.71875 7.847656 27.980469 7.351562 27.425781 C 7.152344 27.210938 6.964844 26.988281 6.792969 26.753906 L 6.765625 26.707031 L 8.140625 25.746094 L 9.007812 26.972656 L 10.425781 25.226562 C 10.605469 25.007812 10.835938 24.882812 11.121094 24.851562 L 11.777344 24.785156 L 12.121094 24.394531 C 12.144531 24.339844 12.3125 24.03125 12.570312 24.113281 L 12.621094 24.132812 L 12.554688 24.355469 C 12.652344 24.265625 12.761719 24.25 12.886719 24.300781 Z M 12.933594 24.328125 " fill-opacity="1" fill-rule="nonzero"/><path fill="#ffbd59" d="M 6.632812 23.902344 C 6.480469 24.089844 6.359375 24.125 6.054688 24.101562 L 5.902344 25.066406 L 4.425781 24.757812 L 5.003906 23.476562 C 4.949219 23.363281 4.765625 22.953125 4.902344 22.75 C 4.984375 22.652344 5.089844 22.621094 5.214844 22.65625 C 5.21875 22.492188 5.242188 22.328125 5.28125 22.171875 C 5.359375 21.882812 5.546875 21.707031 5.835938 21.644531 C 6.128906 21.578125 6.371094 21.660156 6.566406 21.882812 L 6.625 22.050781 C 6.640625 22.109375 7.066406 23.359375 6.632812 23.902344 Z M 6.632812 23.902344 " fill-opacity="1" fill-rule="nonzero"/><g clip-path="url(#0719bcd069)"><path fill="#ffffff" d="M 8.808594 26.621094 L 7.542969 27.933594 L 7.023438 27.390625 L 5.722656 31.242188 L 5.679688 31.242188 C 5.664062 31.242188 3.953125 31.132812 3.480469 31.382812 C 3.128906 31.574219 2.75 31.671875 2.347656 31.675781 C 2.128906 31.675781 1.914062 31.644531 1.707031 31.585938 C 1.441406 31.511719 1.195312 31.394531 0.972656 31.230469 L 0.941406 31.203125 L 2.859375 26.878906 L 1.441406 26.964844 L 2.316406 24.933594 C 2.503906 24.523438 2.824219 24.296875 3.273438 24.261719 L 4.773438 24.15625 L 4.792969 24.175781 C 4.792969 24.175781 5.253906 24.628906 5.640625 24.5625 C 5.828125 24.515625 5.957031 24.398438 6.023438 24.214844 L 6.042969 24.167969 L 7.351562 24.699219 C 7.539062 24.777344 7.6875 24.898438 7.796875 25.070312 Z M 8.808594 26.621094 " fill-opacity="1" fill-rule="nonzero"/><path fill="#000000" d="M 2.347656 31.71875 C 2.125 31.71875 1.90625 31.6875 1.695312 31.625 C 1.421875 31.550781 1.171875 31.429688 0.945312 31.261719 L 0.914062 31.234375 C 0.894531 31.222656 0.890625 31.203125 0.898438 31.183594 L 2.789062 26.925781 L 1.445312 27.007812 C 1.425781 27.007812 1.414062 27.003906 1.40625 26.988281 C 1.398438 26.972656 1.398438 26.960938 1.40625 26.945312 L 2.28125 24.914062 C 2.476562 24.488281 2.808594 24.253906 3.277344 24.214844 L 4.777344 24.109375 C 4.789062 24.109375 4.800781 24.113281 4.8125 24.121094 L 4.828125 24.140625 C 4.828125 24.140625 5.273438 24.578125 5.636719 24.515625 C 5.808594 24.46875 5.925781 24.363281 5.984375 24.195312 L 6.007812 24.148438 C 6.019531 24.121094 6.039062 24.113281 6.066406 24.125 L 7.371094 24.65625 C 7.566406 24.734375 7.722656 24.867188 7.839844 25.042969 L 8.84375 26.59375 C 8.859375 26.613281 8.859375 26.632812 8.84375 26.652344 L 7.574219 27.964844 C 7.566406 27.972656 7.554688 27.976562 7.542969 27.980469 C 7.53125 27.980469 7.519531 27.972656 7.507812 27.964844 L 7.042969 27.476562 L 5.765625 31.257812 C 5.757812 31.28125 5.742188 31.289062 5.71875 31.289062 L 5.675781 31.289062 C 5.660156 31.289062 3.957031 31.183594 3.5 31.421875 C 3.140625 31.617188 2.757812 31.714844 2.347656 31.71875 Z M 0.996094 31.1875 L 1.003906 31.1875 C 1.21875 31.347656 1.460938 31.460938 1.71875 31.535156 C 2.328125 31.703125 2.90625 31.640625 3.460938 31.335938 C 3.945312 31.078125 5.664062 31.1875 5.683594 31.191406 L 5.691406 31.191406 L 6.980469 27.371094 C 6.984375 27.355469 6.996094 27.34375 7.015625 27.339844 C 7.03125 27.335938 7.042969 27.339844 7.054688 27.355469 L 7.539062 27.863281 L 8.742188 26.609375 L 7.757812 25.09375 C 7.652344 24.929688 7.511719 24.8125 7.332031 24.738281 L 6.066406 24.222656 L 6.066406 24.234375 C 5.992188 24.433594 5.855469 24.554688 5.648438 24.605469 C 5.238281 24.675781 4.769531 24.210938 4.765625 24.203125 L 3.285156 24.308594 C 2.851562 24.34375 2.546875 24.558594 2.367188 24.957031 L 1.519531 26.917969 L 2.867188 26.835938 C 2.882812 26.832031 2.894531 26.839844 2.90625 26.855469 C 2.914062 26.867188 2.914062 26.882812 2.90625 26.898438 Z M 0.996094 31.1875 " fill-opacity="1" fill-rule="nonzero"/></g><g clip-path="url(#9f4546648f)"><path fill="#ffbd59" d="M 6.070312 28.726562 L 6.070312 28.738281 L 5.585938 29.140625 C 5.480469 29.230469 5.359375 29.285156 5.222656 29.304688 L 4.507812 29.410156 C 4.398438 29.425781 4.289062 29.417969 4.183594 29.382812 L 3.808594 29.261719 L 1.390625 29.140625 C 1.121094 29.128906 0.859375 29.066406 0.757812 28.789062 C 0.65625 28.511719 0.789062 28.21875 0.894531 27.988281 C 1 27.757812 1.101562 27.554688 1.210938 27.308594 C 1.371094 26.957031 1.460938 26.816406 1.621094 26.464844 L 3.007812 26.765625 L 2.523438 28.082031 L 3.90625 28.398438 L 4.234375 28.125 C 4.417969 27.972656 4.632812 27.886719 4.871094 27.875 C 4.894531 27.875 4.914062 27.882812 4.9375 27.890625 C 5.03125 27.9375 5.046875 28.003906 4.988281 28.089844 C 4.933594 28.175781 4.863281 28.246094 4.773438 28.300781 L 4.578125 28.507812 L 5.132812 28.507812 L 5.683594 28.113281 L 5.703125 28.113281 C 5.773438 28.125 5.832031 28.15625 5.878906 28.210938 C 5.894531 28.234375 5.90625 28.257812 5.90625 28.285156 C 5.957031 28.304688 5.996094 28.335938 6.019531 28.382812 C 6.042969 28.425781 6.046875 28.46875 6.035156 28.515625 C 6.050781 28.53125 6.0625 28.546875 6.074219 28.566406 C 6.097656 28.617188 6.097656 28.671875 6.070312 28.726562 Z M 6.070312 28.726562 " fill-opacity="1" fill-rule="nonzero"/></g><path fill="#ffbd59" d="M 12.003906 27.671875 C 12.234375 27.359375 12.523438 27.125 12.882812 26.976562 C 13.160156 26.878906 13.421875 26.753906 13.667969 26.59375 L 14.996094 26.59375 C 14.996094 26.59375 14.972656 26.886719 15.402344 26.976562 C 15.832031 27.066406 16.347656 27.132812 17 27.964844 C 17.652344 28.796875 19.449219 30.933594 19.449219 30.933594 L 21.789062 30.472656 C 22.039062 30.90625 22.144531 31.371094 22.109375 31.871094 C 22.109375 31.871094 19.71875 32.867188 19 32.820312 C 18.28125 32.777344 17.15625 31.449219 17.15625 31.449219 C 17.15625 31.449219 17.785156 34.011719 17.695312 34.28125 C 17.605469 34.550781 16.570312 34.484375 15.648438 34.550781 C 14.726562 34.621094 13.085938 34.417969 13.085938 34.417969 Z M 12.003906 27.671875 " fill-opacity="1" fill-rule="nonzero"/><path fill="#ffffff" d="M 12.792969 36.695312 C 12.792969 36.695312 11.355469 29.324219 11.355469 28.757812 C 11.355469 28.191406 11.625 27.65625 13.0625 27.5 C 14.503906 27.339844 16.097656 27.273438 16.570312 28.332031 C 17.039062 29.390625 16.75 36.175781 16.75 36.175781 C 16.75 36.175781 20.414062 35.773438 20.726562 36.695312 C 20.726562 36.695312 12.792969 36.800781 12.792969 36.695312 Z M 12.792969 36.695312 " fill-opacity="1" fill-rule="nonzero"/><path fill="#000000" d="M 20.769531 36.683594 C 20.449219 35.800781 17.265625 36.089844 16.800781 36.140625 C 16.828125 35.457031 17.066406 29.339844 16.613281 28.324219 C 16.148438 27.28125 14.628906 27.292969 13.058594 27.464844 C 11.511719 27.636719 11.3125 28.25 11.3125 28.769531 C 11.3125 29.328125 12.675781 36.324219 12.75 36.707031 L 11.671875 43.535156 C 11.667969 43.5625 11.679688 43.582031 11.710938 43.585938 L 11.71875 43.585938 C 11.742188 43.585938 11.757812 43.570312 11.761719 43.546875 L 12.832031 36.757812 C 12.960938 36.773438 13.261719 36.785156 13.671875 36.792969 L 13.898438 43.316406 C 13.898438 43.34375 13.914062 43.359375 13.941406 43.359375 C 13.972656 43.359375 13.984375 43.34375 13.984375 43.3125 L 13.761719 36.789062 C 14.125 36.792969 14.574219 36.796875 15.070312 36.796875 C 15.5625 36.796875 16.136719 36.796875 16.707031 36.789062 L 17.445312 43.703125 C 17.449219 43.730469 17.464844 43.742188 17.492188 43.746094 C 17.519531 43.742188 17.535156 43.722656 17.53125 43.695312 L 16.792969 36.773438 C 18.21875 36.761719 19.707031 36.742188 20.683594 36.730469 L 21.328125 43.476562 C 21.332031 43.503906 21.347656 43.519531 21.375 43.519531 C 21.40625 43.519531 21.417969 43.5 21.417969 43.472656 Z M 12.828125 36.65625 C 12.738281 36.191406 11.394531 29.285156 11.394531 28.75 C 11.394531 28.269531 11.585938 27.699219 13.0625 27.542969 C 14.597656 27.375 16.085938 27.355469 16.523438 28.347656 C 16.988281 29.382812 16.703125 36.105469 16.703125 36.171875 L 16.703125 36.6875 C 14.734375 36.695312 13.042969 36.695312 12.832031 36.65625 Z M 16.792969 36.683594 L 16.792969 36.210938 C 17.398438 36.148438 18.007812 36.121094 18.617188 36.128906 C 19.777344 36.144531 20.480469 36.324219 20.65625 36.640625 C 19.480469 36.660156 18.082031 36.675781 16.792969 36.683594 Z M 16.792969 36.683594 " fill-opacity="1" fill-rule="nonzero"/><path fill="#000000" d="M 13.8125 26.078125 C 13.8125 26.078125 13.25 25.835938 13.085938 24.996094 C 12.925781 24.160156 12.660156 23.761719 12.996094 23.492188 C 13.332031 23.222656 13.511719 23.019531 13.738281 22.976562 C 13.964844 22.929688 13.964844 22.59375 14.4375 22.59375 C 14.90625 22.59375 15.039062 22.660156 15.222656 22.59375 C 15.40625 22.527344 15.425781 22.457031 15.671875 22.660156 C 15.917969 22.859375 15.738281 23.625 15.738281 23.625 L 15.335938 25.109375 L 14.59375 26.347656 Z M 13.8125 26.078125 " fill-opacity="1" fill-rule="nonzero"/><path fill="#ffffff" d="M 14.800781 25.199219 C 14.800781 25.199219 14.328125 25.246094 14.328125 24.886719 C 14.328125 24.523438 14.847656 24.730469 14.847656 24.730469 L 14.871094 24.128906 C 15.207031 24.171875 15.746094 23.632812 15.746094 23.632812 C 15.890625 23.976562 15.96875 24.335938 15.988281 24.710938 C 15.945312 25.835938 14.886719 26.0625 14.886719 26.0625 L 14.847656 26.617188 L 13.792969 26.59375 L 13.816406 26.078125 C 14.847656 26.300781 14.800781 25.199219 14.800781 25.199219 Z M 14.800781 25.199219 " fill-opacity="1" fill-rule="nonzero"/><path fill="#000000" d="M 14.847656 26.664062 L 13.792969 26.644531 C 13.78125 26.640625 13.769531 26.636719 13.761719 26.628906 C 13.75 26.621094 13.746094 26.609375 13.75 26.59375 L 13.769531 26.078125 C 13.769531 26.066406 13.777344 26.054688 13.789062 26.042969 C 13.800781 26.035156 13.8125 26.035156 13.824219 26.035156 C 14.109375 26.097656 14.332031 26.0625 14.488281 25.929688 C 14.722656 25.734375 14.757812 25.375 14.757812 25.25 C 14.625 25.253906 14.503906 25.214844 14.398438 25.128906 C 14.328125 25.066406 14.292969 24.984375 14.292969 24.890625 C 14.289062 24.800781 14.320312 24.730469 14.390625 24.675781 C 14.511719 24.59375 14.714844 24.636719 14.8125 24.667969 L 14.835938 24.121094 C 14.835938 24.109375 14.839844 24.097656 14.851562 24.089844 C 14.859375 24.082031 14.871094 24.078125 14.886719 24.078125 C 15.144531 24.117188 15.578125 23.742188 15.722656 23.597656 C 15.734375 23.585938 15.75 23.582031 15.761719 23.582031 C 15.777344 23.585938 15.789062 23.59375 15.796875 23.609375 C 15.804688 23.621094 15.980469 23.984375 16.046875 24.703125 C 16.007812 25.738281 15.128906 26.039062 14.945312 26.089844 L 14.902344 26.621094 C 14.902344 26.65625 14.882812 26.671875 14.847656 26.664062 Z M 13.839844 26.550781 L 14.804688 26.574219 L 14.847656 26.054688 C 14.847656 26.03125 14.859375 26.019531 14.882812 26.015625 C 14.925781 26.003906 15.90625 25.78125 15.949219 24.707031 C 15.921875 24.363281 15.851562 24.03125 15.730469 23.707031 C 15.59375 23.828125 15.207031 24.167969 14.914062 24.171875 L 14.890625 24.734375 C 14.890625 24.75 14.886719 24.761719 14.871094 24.769531 C 14.859375 24.777344 14.84375 24.777344 14.832031 24.769531 C 14.753906 24.738281 14.535156 24.675781 14.433594 24.746094 C 14.386719 24.78125 14.371094 24.828125 14.375 24.882812 C 14.371094 24.957031 14.394531 25.015625 14.449219 25.066406 C 14.554688 25.136719 14.671875 25.164062 14.796875 25.152344 C 14.8125 25.152344 14.820312 25.15625 14.832031 25.164062 C 14.84375 25.171875 14.847656 25.183594 14.847656 25.195312 C 14.847656 25.21875 14.867188 25.726562 14.546875 25.992188 C 14.339844 26.152344 14.109375 26.195312 13.855469 26.128906 Z M 13.839844 26.550781 " fill-opacity="1" fill-rule="nonzero"/><path fill="#ffffff" d="M 21.867188 30.589844 C 21.867188 30.589844 22.230469 30.5 22.289062 30.1875 C 22.347656 29.875 22.566406 29.414062 22.722656 29.421875 C 22.882812 29.433594 22.824219 29.644531 22.824219 29.644531 C 22.824219 29.644531 23.558594 29.199219 23.839844 29.238281 C 24.117188 29.277344 23.882812 29.40625 23.882812 29.40625 C 23.882812 29.40625 24.160156 29.277344 24.234375 29.371094 C 24.308594 29.464844 24.105469 29.726562 24.105469 29.726562 C 24.105469 29.726562 24.464844 29.53125 24.523438 29.679688 C 24.578125 29.828125 24.402344 30.113281 24.191406 30.191406 C 23.980469 30.269531 23.808594 30.351562 23.699219 30.546875 C 23.585938 30.742188 23.320312 30.917969 23.085938 31.03125 C 22.855469 31.140625 22.125 31.511719 22.125 31.511719 Z M 21.867188 30.589844 " fill-opacity="1" fill-rule="nonzero"/><path fill="#000000" d="M 34.0625 18.523438 L 33.09375 25.074219 C 33.0625 25.289062 32.964844 25.46875 32.796875 25.613281 C 32.632812 25.757812 32.441406 25.828125 32.21875 25.828125 L 20.050781 25.828125 C 19.921875 25.832031 19.796875 25.800781 19.679688 25.746094 C 19.558594 25.691406 19.457031 25.613281 19.375 25.515625 C 19.289062 25.414062 19.230469 25.300781 19.199219 25.175781 C 19.164062 25.046875 19.160156 24.921875 19.179688 24.792969 L 20.335938 18.242188 C 20.375 18.03125 20.476562 17.859375 20.640625 17.722656 C 20.804688 17.585938 20.992188 17.515625 21.207031 17.515625 L 33.183594 17.515625 C 33.3125 17.515625 33.433594 17.542969 33.550781 17.59375 C 33.667969 17.648438 33.769531 17.722656 33.851562 17.820312 C 33.9375 17.917969 33.996094 18.027344 34.035156 18.148438 C 34.070312 18.273438 34.078125 18.398438 34.0625 18.523438 Z M 34.0625 18.523438 " fill-opacity="1" fill-rule="nonzero"/><path fill="#ffffff" d="M 27.675781 25.359375 L 27.046875 27.808594 L 29.03125 27.808594 C 29.117188 27.804688 29.183594 27.835938 29.234375 27.902344 C 29.285156 27.96875 29.300781 28.042969 29.273438 28.121094 L 24.132812 28.121094 C 24 28.121094 23.890625 28.070312 23.8125 27.964844 C 23.730469 27.859375 23.707031 27.742188 23.742188 27.613281 L 24.34375 25.335938 C 24.378906 25.300781 27.675781 25.359375 27.675781 25.359375 Z M 27.675781 25.359375 " fill-opacity="1" fill-rule="nonzero"/><path fill="#000000" d="M 29.269531 28.167969 L 24.132812 28.167969 C 23.984375 28.167969 23.863281 28.109375 23.773438 27.992188 C 23.683594 27.875 23.660156 27.746094 23.695312 27.601562 L 24.300781 25.324219 C 24.300781 25.316406 24.304688 25.308594 24.3125 25.304688 C 24.332031 25.285156 24.359375 25.257812 27.671875 25.3125 C 27.6875 25.3125 27.699219 25.320312 27.707031 25.328125 C 27.71875 25.339844 27.71875 25.355469 27.714844 25.367188 L 27.101562 27.761719 L 29.035156 27.761719 C 29.132812 27.761719 29.207031 27.800781 29.265625 27.878906 C 29.324219 27.957031 29.34375 28.042969 29.316406 28.136719 C 29.308594 28.160156 29.292969 28.167969 29.269531 28.167969 Z M 24.382812 25.375 L 23.789062 27.632812 C 23.761719 27.746094 23.78125 27.847656 23.855469 27.941406 C 23.925781 28.035156 24.019531 28.082031 24.136719 28.082031 L 29.226562 28.082031 C 29.234375 28.03125 29.222656 27.984375 29.191406 27.941406 C 29.148438 27.886719 29.09375 27.859375 29.027344 27.859375 L 27.046875 27.859375 C 27.03125 27.859375 27.019531 27.855469 27.007812 27.84375 C 27 27.828125 26.996094 27.816406 27 27.800781 L 27.617188 25.410156 C 26.394531 25.382812 24.621094 25.359375 24.382812 25.375 Z M 24.382812 25.375 " fill-opacity="1" fill-rule="nonzero"/><path fill="#ffffff" d="M 31.851562 25.378906 L 19.683594 25.378906 C 19.558594 25.378906 19.441406 25.351562 19.328125 25.300781 C 19.214844 25.25 19.117188 25.175781 19.039062 25.078125 C 18.960938 24.984375 18.902344 24.878906 18.871094 24.757812 C 18.839844 24.636719 18.835938 24.515625 18.855469 24.394531 L 20.011719 17.84375 C 20.046875 17.644531 20.140625 17.476562 20.296875 17.347656 C 20.453125 17.214844 20.632812 17.148438 20.835938 17.148438 L 32.8125 17.148438 C 32.933594 17.148438 33.050781 17.175781 33.164062 17.226562 C 33.273438 17.277344 33.371094 17.351562 33.449219 17.441406 C 33.53125 17.535156 33.585938 17.640625 33.621094 17.757812 C 33.652344 17.875 33.660156 17.996094 33.644531 18.117188 L 32.675781 24.667969 C 32.644531 24.871094 32.550781 25.039062 32.394531 25.175781 C 32.238281 25.308594 32.058594 25.378906 31.851562 25.378906 Z M 31.851562 25.378906 " fill-opacity="1" fill-rule="nonzero"/><path fill="#000000" d="M 31.851562 25.425781 L 19.683594 25.425781 C 19.550781 25.425781 19.425781 25.398438 19.308594 25.34375 C 19.191406 25.289062 19.089844 25.210938 19.003906 25.109375 C 18.921875 25.007812 18.863281 24.894531 18.828125 24.769531 C 18.792969 24.644531 18.789062 24.515625 18.8125 24.386719 L 19.964844 17.84375 C 20.003906 17.632812 20.101562 17.457031 20.265625 17.320312 C 20.433594 17.179688 20.621094 17.113281 20.835938 17.113281 L 32.8125 17.113281 C 32.941406 17.113281 33.0625 17.140625 33.179688 17.191406 C 33.296875 17.246094 33.398438 17.320312 33.480469 17.417969 C 33.566406 17.515625 33.625 17.625 33.664062 17.75 C 33.699219 17.871094 33.707031 18 33.6875 18.125 L 32.722656 24.675781 C 32.6875 24.890625 32.589844 25.066406 32.425781 25.210938 C 32.257812 25.351562 32.066406 25.421875 31.851562 25.425781 Z M 20.835938 17.199219 C 20.644531 17.195312 20.472656 17.257812 20.324219 17.382812 C 20.179688 17.507812 20.085938 17.664062 20.054688 17.855469 L 18.898438 24.402344 C 18.878906 24.519531 18.882812 24.632812 18.914062 24.746094 C 18.945312 24.859375 18.996094 24.960938 19.074219 25.050781 C 19.148438 25.140625 19.238281 25.210938 19.347656 25.261719 C 19.453125 25.3125 19.566406 25.335938 19.683594 25.335938 L 31.851562 25.335938 C 32.046875 25.335938 32.21875 25.269531 32.367188 25.140625 C 32.515625 25.011719 32.605469 24.851562 32.636719 24.65625 L 33.601562 18.105469 C 33.621094 17.992188 33.613281 17.878906 33.578125 17.769531 C 33.546875 17.660156 33.492188 17.558594 33.417969 17.472656 C 33.34375 17.386719 33.253906 17.316406 33.148438 17.269531 C 33.042969 17.222656 32.933594 17.199219 32.816406 17.199219 Z M 20.835938 17.199219 " fill-opacity="1" fill-rule="nonzero"/><path fill="#ffffff" d="M 26.296875 24.703125 C 26.296875 24.796875 26.265625 24.875 26.199219 24.941406 C 26.132812 25.007812 26.054688 25.039062 25.960938 25.039062 C 25.867188 25.039062 25.789062 25.007812 25.722656 24.941406 C 25.65625 24.875 25.621094 24.796875 25.621094 24.703125 C 25.621094 24.609375 25.65625 24.53125 25.722656 24.464844 C 25.789062 24.398438 25.867188 24.367188 25.960938 24.367188 C 26.054688 24.367188 26.132812 24.398438 26.199219 24.464844 C 26.265625 24.53125 26.296875 24.609375 26.296875 24.703125 Z M 26.296875 24.703125 " fill-opacity="1" fill-rule="nonzero"/><path fill="#000000" d="M 25.964844 25.085938 C 25.859375 25.085938 25.769531 25.046875 25.695312 24.972656 C 25.621094 24.898438 25.582031 24.808594 25.582031 24.703125 C 25.582031 24.597656 25.617188 24.503906 25.695312 24.429688 C 25.769531 24.355469 25.859375 24.316406 25.964844 24.320312 C 26.070312 24.320312 26.160156 24.355469 26.234375 24.429688 C 26.3125 24.507812 26.347656 24.597656 26.347656 24.703125 C 26.347656 24.808594 26.308594 24.898438 26.234375 24.972656 C 26.160156 25.046875 26.070312 25.085938 25.964844 25.085938 Z M 25.964844 24.410156 C 25.886719 24.410156 25.816406 24.4375 25.757812 24.496094 C 25.703125 24.550781 25.671875 24.621094 25.671875 24.703125 C 25.671875 24.78125 25.699219 24.851562 25.757812 24.910156 C 25.816406 24.964844 25.882812 24.996094 25.964844 24.996094 C 26.046875 24.996094 26.113281 24.964844 26.171875 24.910156 C 26.230469 24.851562 26.257812 24.785156 26.257812 24.703125 C 26.257812 24.621094 26.230469 24.554688 26.171875 24.496094 C 26.113281 24.4375 26.046875 24.410156 25.964844 24.410156 Z M 25.964844 24.410156 " fill-opacity="1" fill-rule="nonzero"/><path fill="#000000" d="M 20.953125 17.644531 C 20.953125 17.722656 20.914062 17.757812 20.839844 17.757812 C 20.765625 17.757812 20.726562 17.722656 20.726562 17.644531 C 20.726562 17.570312 20.765625 17.535156 20.839844 17.535156 C 20.914062 17.535156 20.953125 17.570312 20.953125 17.644531 Z M 21.445312 17.535156 C 21.367188 17.53125 21.328125 17.570312 21.328125 17.648438 C 21.328125 17.722656 21.367188 17.761719 21.445312 17.761719 C 21.519531 17.761719 21.558594 17.722656 21.554688 17.644531 C 21.554688 17.570312 21.519531 17.535156 21.445312 17.535156 Z M 22.046875 17.535156 C 21.972656 17.53125 21.933594 17.570312 21.933594 17.648438 C 21.933594 17.722656 21.972656 17.761719 22.046875 17.761719 C 22.125 17.761719 22.160156 17.722656 22.160156 17.644531 C 22.160156 17.570312 22.125 17.535156 22.050781 17.535156 Z M 22.046875 17.535156 " fill-opacity="1" fill-rule="nonzero"/><path fill="#000000" d="M 33.65625 18.25 C 33.65625 18.28125 33.640625 18.296875 33.609375 18.296875 L 24.636719 18.296875 L 23.523438 24.027344 L 32.757812 24.074219 C 32.785156 24.078125 32.796875 24.09375 32.796875 24.121094 C 32.796875 24.148438 32.785156 24.160156 32.757812 24.167969 L 18.933594 24.097656 C 18.90625 24.09375 18.890625 24.078125 18.886719 24.050781 C 18.890625 24.023438 18.90625 24.007812 18.933594 24.003906 L 23.433594 24.027344 L 24.542969 18.296875 L 19.964844 18.296875 C 19.933594 18.296875 19.917969 18.28125 19.917969 18.25 C 19.917969 18.21875 19.933594 18.203125 19.964844 18.207031 L 33.609375 18.207031 C 33.640625 18.207031 33.65625 18.21875 33.65625 18.25 Z M 33.65625 18.25 " fill-opacity="1" fill-rule="nonzero"/><path fill="#000000" d="M 23.789062 19.199219 C 23.789062 19.226562 23.777344 19.242188 23.746094 19.242188 L 20.617188 19.242188 C 20.589844 19.238281 20.578125 19.222656 20.578125 19.199219 C 20.578125 19.171875 20.589844 19.15625 20.617188 19.152344 L 23.738281 19.152344 C 23.773438 19.148438 23.789062 19.164062 23.789062 19.199219 Z M 23.273438 21.691406 L 20.144531 21.691406 C 20.117188 21.695312 20.105469 21.710938 20.105469 21.738281 C 20.105469 21.765625 20.117188 21.777344 20.144531 21.785156 L 23.269531 21.785156 C 23.304688 21.789062 23.320312 21.773438 23.320312 21.738281 C 23.320312 21.703125 23.304688 21.6875 23.269531 21.691406 Z M 23.566406 19.847656 L 21.738281 19.847656 C 21.707031 19.847656 21.691406 19.863281 21.691406 19.894531 C 21.691406 19.925781 21.707031 19.9375 21.738281 19.9375 L 23.558594 19.9375 C 23.589844 19.941406 23.605469 19.925781 23.605469 19.894531 C 23.605469 19.867188 23.589844 19.851562 23.558594 19.847656 Z M 23.476562 20.367188 L 21.648438 20.367188 C 21.617188 20.367188 21.605469 20.382812 21.605469 20.410156 C 21.605469 20.441406 21.617188 20.457031 21.648438 20.457031 L 23.46875 20.457031 C 23.5 20.457031 23.515625 20.441406 23.515625 20.410156 C 23.515625 20.382812 23.5 20.367188 23.46875 20.367188 Z M 23.40625 20.859375 L 21.582031 20.859375 C 21.550781 20.859375 21.535156 20.875 21.539062 20.90625 C 21.535156 20.9375 21.550781 20.953125 21.582031 20.953125 L 23.402344 20.953125 C 23.433594 20.953125 23.449219 20.9375 23.449219 20.90625 C 23.445312 20.878906 23.429688 20.863281 23.402344 20.863281 Z M 23.066406 22.234375 L 21.246094 22.234375 C 21.214844 22.230469 21.199219 22.246094 21.199219 22.277344 C 21.199219 22.308594 21.214844 22.324219 21.246094 22.324219 L 23.066406 22.324219 C 23.097656 22.324219 23.113281 22.308594 23.113281 22.277344 C 23.113281 22.246094 23.097656 22.230469 23.066406 22.234375 Z M 22.976562 22.75 L 21.15625 22.75 C 21.125 22.75 21.109375 22.765625 21.109375 22.792969 C 21.109375 22.824219 21.125 22.839844 21.15625 22.839844 L 22.976562 22.839844 C 23.007812 22.839844 23.019531 22.824219 23.019531 22.792969 C 23.019531 22.765625 23.007812 22.75 22.976562 22.75 Z M 22.976562 22.75 " fill-opacity="1" fill-rule="nonzero"/><path fill="#000000" d="M 27.015625 18.957031 C 27.015625 19.113281 26.710938 19.703125 26.59375 19.972656 C 26.480469 20.246094 26.113281 20.207031 25.660156 20.214844 C 25.207031 20.226562 24.984375 20.179688 25.027344 20 C 25.074219 19.820312 25.351562 18.964844 25.351562 18.964844 C 25.421875 18.800781 27.011719 18.800781 27.015625 18.957031 Z M 27.40625 18.957031 C 27.40625 18.957031 27.128906 19.816406 27.082031 19.996094 C 27.039062 20.175781 27.257812 20.21875 27.714844 20.210938 C 28.171875 20.203125 28.535156 20.242188 28.652344 19.96875 C 28.769531 19.691406 29.074219 19.109375 29.070312 18.953125 C 29.066406 18.796875 27.476562 18.800781 27.40625 18.960938 Z M 29.460938 18.957031 C 29.460938 18.957031 29.183594 19.816406 29.140625 19.996094 C 29.09375 20.175781 29.3125 20.21875 29.769531 20.210938 C 30.226562 20.203125 30.589844 20.242188 30.707031 19.96875 C 30.824219 19.691406 31.125 19.109375 31.125 18.953125 C 31.121094 18.796875 29.53125 18.800781 29.460938 18.960938 Z M 29.460938 18.957031 " fill-opacity="1" fill-rule="nonzero"/><path fill="#000000" d="M 29.667969 22.277344 C 29.671875 22.308594 29.65625 22.324219 29.625 22.324219 L 28.746094 22.324219 C 28.714844 22.324219 28.699219 22.308594 28.699219 22.277344 C 28.699219 22.246094 28.714844 22.234375 28.746094 22.234375 L 29.621094 22.234375 C 29.65625 22.230469 29.671875 22.246094 29.667969 22.277344 Z M 25.363281 22.324219 L 28.09375 22.324219 C 28.125 22.324219 28.136719 22.308594 28.136719 22.277344 C 28.136719 22.246094 28.125 22.230469 28.09375 22.234375 L 25.363281 22.234375 C 25.332031 22.230469 25.316406 22.246094 25.316406 22.277344 C 25.316406 22.308594 25.332031 22.324219 25.363281 22.324219 Z M 29.558594 22.621094 L 25.292969 22.621094 C 25.261719 22.621094 25.25 22.632812 25.25 22.664062 C 25.25 22.695312 25.261719 22.710938 25.292969 22.710938 L 29.558594 22.710938 C 29.589844 22.710938 29.605469 22.695312 29.605469 22.664062 C 29.605469 22.632812 29.589844 22.617188 29.558594 22.621094 Z M 29.558594 22.621094 " fill-opacity="1" fill-rule="nonzero"/><path fill="#0097b2" d="M 43.027344 16.546875 L 41.882812 20.421875 L 33.082031 20.492188 L 32.507812 21.0625 L 32.441406 20.421875 L 32.035156 20.421875 L 32.882812 16.546875 Z M 43.027344 16.546875 " fill-opacity="1" fill-rule="nonzero"/><path fill="#000000" d="M 32.070312 20.742188 L 32.054688 20.742188 C 32.035156 20.738281 32.027344 20.726562 32.023438 20.707031 L 31.960938 20.101562 L 31.597656 20.101562 C 31.585938 20.101562 31.574219 20.09375 31.5625 20.085938 C 31.554688 20.074219 31.550781 20.058594 31.554688 20.046875 L 32.402344 16.167969 C 32.40625 16.144531 32.421875 16.132812 32.445312 16.132812 L 42.597656 16.132812 C 42.613281 16.132812 42.625 16.136719 42.632812 16.148438 C 42.640625 16.164062 42.644531 16.175781 42.640625 16.191406 L 41.492188 20.070312 C 41.488281 20.089844 41.472656 20.101562 41.449219 20.101562 L 32.667969 20.167969 L 32.109375 20.726562 C 32.097656 20.738281 32.085938 20.746094 32.070312 20.742188 Z M 31.652344 20.019531 L 32.007812 20.019531 C 32.035156 20.019531 32.050781 20.03125 32.054688 20.058594 L 32.109375 20.605469 L 32.613281 20.085938 C 32.621094 20.078125 32.632812 20.074219 32.644531 20.074219 L 41.410156 20.007812 L 42.53125 16.21875 L 32.476562 16.21875 Z M 31.652344 20.019531 " fill-opacity="1" fill-rule="nonzero"/><path fill="#ffffff" d="M 35.890625 17.179688 C 35.890625 17.175781 35.890625 17.171875 35.890625 17.167969 C 35.890625 17.167969 35.886719 17.167969 35.882812 17.160156 C 35.878906 17.152344 35.882812 17.160156 35.875 17.160156 L 35.863281 17.160156 L 33.4375 17.117188 L 33.429688 17.117188 C 33.421875 17.121094 33.414062 17.125 33.40625 17.128906 C 33.40625 17.128906 33.40625 17.136719 33.40625 17.136719 C 33.402344 17.140625 33.398438 17.144531 33.398438 17.148438 L 32.988281 18.761719 C 32.976562 18.796875 32.992188 18.816406 33.03125 18.816406 L 35.339844 18.816406 C 35.363281 18.816406 35.378906 18.804688 35.382812 18.785156 L 35.890625 17.199219 C 35.890625 17.191406 35.890625 17.1875 35.890625 17.179688 Z M 35.679688 17.230469 L 34.367188 17.988281 L 33.550781 17.214844 Z M 35.308594 18.726562 L 33.09375 18.726562 L 33.457031 17.253906 L 34.328125 18.078125 C 34.335938 18.085938 34.347656 18.089844 34.359375 18.089844 C 34.367188 18.09375 34.375 18.09375 34.382812 18.089844 L 35.765625 17.289062 Z M 40.796875 17.335938 C 40.796875 17.367188 40.78125 17.382812 40.753906 17.382812 L 36.738281 17.382812 C 36.714844 17.378906 36.703125 17.363281 36.703125 17.335938 C 36.703125 17.3125 36.714844 17.296875 36.738281 17.292969 L 40.753906 17.292969 C 40.785156 17.292969 40.796875 17.308594 40.796875 17.335938 Z M 40.511719 18.585938 C 40.511719 18.617188 40.496094 18.628906 40.464844 18.628906 L 36.453125 18.628906 C 36.425781 18.625 36.414062 18.609375 36.414062 18.585938 C 36.414062 18.558594 36.425781 18.542969 36.453125 18.539062 L 40.464844 18.539062 C 40.496094 18.539062 40.511719 18.554688 40.511719 18.585938 Z M 40.714844 17.964844 C 40.714844 17.996094 40.699219 18.011719 40.667969 18.007812 L 38.425781 18.007812 C 38.394531 18.011719 38.378906 17.996094 38.378906 17.964844 C 38.378906 17.933594 38.394531 17.917969 38.425781 17.917969 L 40.667969 17.917969 C 40.699219 17.917969 40.714844 17.933594 40.714844 17.964844 Z M 36.605469 17.964844 C 36.605469 17.933594 36.621094 17.917969 36.648438 17.917969 L 37.863281 17.917969 C 37.894531 17.917969 37.910156 17.933594 37.910156 17.964844 C 37.910156 17.996094 37.894531 18.011719 37.863281 18.007812 L 36.65625 18.007812 C 36.625 18.007812 36.609375 17.996094 36.609375 17.964844 Z M 36.605469 17.964844 " fill-opacity="1" fill-rule="nonzero"/><path fill="#000000" d="M 42.175781 21.558594 C 42.175781 21.589844 42.160156 21.601562 42.128906 21.601562 L 37.230469 21.601562 C 37.195312 21.609375 37.175781 21.59375 37.175781 21.558594 C 37.175781 21.523438 37.195312 21.507812 37.230469 21.511719 L 42.128906 21.511719 C 42.160156 21.511719 42.175781 21.527344 42.175781 21.558594 Z M 42.175781 21.558594 " fill-opacity="1" fill-rule="nonzero"/><path fill="#ffffff" d="M 37.230469 21.558594 C 37.230469 21.632812 37.203125 21.699219 37.148438 21.75 C 37.097656 21.804688 37.03125 21.828125 36.957031 21.828125 C 36.882812 21.828125 36.820312 21.800781 36.765625 21.75 C 36.714844 21.695312 36.6875 21.632812 36.6875 21.554688 C 36.6875 21.480469 36.714844 21.417969 36.769531 21.363281 C 36.824219 21.3125 36.886719 21.285156 36.960938 21.289062 C 37.035156 21.289062 37.097656 21.316406 37.152344 21.367188 C 37.203125 21.421875 37.230469 21.484375 37.230469 21.558594 Z M 42.398438 21.289062 C 42.324219 21.289062 42.261719 21.3125 42.207031 21.367188 C 42.15625 21.421875 42.128906 21.484375 42.128906 21.558594 C 42.128906 21.632812 42.15625 21.695312 42.207031 21.75 C 42.261719 21.804688 42.324219 21.828125 42.398438 21.828125 C 42.472656 21.828125 42.539062 21.804688 42.589844 21.75 C 42.644531 21.695312 42.671875 21.632812 42.671875 21.558594 C 42.671875 21.484375 42.644531 21.417969 42.589844 21.367188 C 42.539062 21.3125 42.472656 21.289062 42.398438 21.289062 Z M 39.742188 21.289062 C 39.667969 21.289062 39.601562 21.3125 39.550781 21.367188 C 39.496094 21.417969 39.46875 21.484375 39.46875 21.558594 C 39.46875 21.632812 39.496094 21.695312 39.546875 21.75 C 39.601562 21.800781 39.664062 21.828125 39.738281 21.828125 C 39.816406 21.828125 39.878906 21.804688 39.929688 21.75 C 39.984375 21.695312 40.011719 21.632812 40.011719 21.558594 C 40.011719 21.484375 39.984375 21.421875 39.933594 21.367188 C 39.878906 21.3125 39.816406 21.289062 39.742188 21.289062 Z M 39.742188 21.289062 " fill-opacity="1" fill-rule="nonzero"/><path fill="#000000" d="M 43.398438 21.96875 C 43.363281 21.964844 43.335938 21.945312 43.324219 21.914062 C 43.308594 21.878906 43.3125 21.847656 43.332031 21.820312 C 43.554688 21.464844 44.191406 20.492188 44.394531 20.492188 C 44.648438 20.492188 45.28125 21.988281 45.160156 22.117188 C 45.058594 22.214844 43.828125 22.035156 43.398438 21.96875 Z M 43.398438 21.96875 " fill-opacity="1" fill-rule="nonzero"/><path fill="#ffffff" d="M 44.265625 21.453125 L 44.320312 20.8125 C 44.324219 20.78125 44.339844 20.769531 44.371094 20.769531 C 44.402344 20.773438 44.414062 20.789062 44.410156 20.820312 L 44.355469 21.460938 C 44.355469 21.488281 44.339844 21.503906 44.308594 21.5 C 44.277344 21.5 44.261719 21.484375 44.265625 21.453125 Z M 44.300781 21.683594 C 44.234375 21.683594 44.199219 21.71875 44.199219 21.785156 C 44.199219 21.847656 44.234375 21.882812 44.300781 21.882812 C 44.367188 21.882812 44.398438 21.847656 44.398438 21.785156 C 44.398438 21.71875 44.367188 21.683594 44.300781 21.683594 Z M 44.300781 21.683594 " fill-opacity="1" fill-rule="nonzero"/><g clip-path="url(#c3b4d1e1f6)"><path fill="#0097b2" d="M 19.351562 14.535156 L 18.644531 19.476562 C 18.609375 19.695312 18.484375 19.808594 18.261719 19.816406 L 8.382812 19.816406 C 8.292969 19.816406 8.21875 19.785156 8.160156 19.714844 C 8.101562 19.644531 8.078125 19.566406 8.097656 19.476562 L 8.808594 14.535156 C 8.84375 14.316406 8.96875 14.203125 9.191406 14.195312 L 19.066406 14.195312 C 19.15625 14.195312 19.230469 14.230469 19.289062 14.296875 C 19.347656 14.367188 19.371094 14.449219 19.351562 14.535156 Z M 31.511719 11.582031 L 22.542969 11.582031 C 22.34375 11.585938 22.226562 11.691406 22.195312 11.886719 L 21.886719 14.0625 C 21.871094 14.144531 21.890625 14.214844 21.941406 14.277344 C 21.996094 14.339844 22.0625 14.371094 22.144531 14.371094 L 31.113281 14.371094 C 31.316406 14.363281 31.433594 14.261719 31.460938 14.0625 L 31.773438 11.886719 C 31.785156 11.808594 31.769531 11.734375 31.714844 11.671875 C 31.660156 11.609375 31.59375 11.582031 31.511719 11.582031 Z M 31.511719 11.582031 " fill-opacity="1" fill-rule="nonzero"/></g><path fill="#ffffff" d="M 31.476562 26.480469 L 36.640625 26.460938 C 36.75 26.460938 36.835938 26.503906 36.902344 26.589844 C 36.96875 26.675781 36.988281 26.769531 36.960938 26.875 L 35.96875 30.578125 C 35.921875 30.738281 35.816406 30.820312 35.648438 30.816406 L 30.464844 30.800781 C 30.355469 30.796875 30.269531 30.753906 30.203125 30.667969 C 30.136719 30.582031 30.121094 30.488281 30.148438 30.382812 L 31.160156 26.71875 C 31.207031 26.5625 31.308594 26.480469 31.476562 26.480469 Z M 31.476562 26.480469 " fill-opacity="1" fill-rule="nonzero"/><path fill="#000000" d="M 35.652344 30.863281 L 30.464844 30.84375 C 30.339844 30.847656 30.242188 30.796875 30.167969 30.699219 C 30.089844 30.601562 30.070312 30.492188 30.101562 30.371094 L 31.113281 26.710938 C 31.164062 26.523438 31.285156 26.433594 31.476562 26.433594 L 36.644531 26.414062 C 36.765625 26.414062 36.867188 26.464844 36.941406 26.5625 C 37.015625 26.660156 37.039062 26.765625 37.007812 26.886719 L 36.015625 30.585938 C 35.964844 30.773438 35.84375 30.867188 35.652344 30.863281 Z M 36.644531 26.503906 L 31.476562 26.527344 C 31.332031 26.527344 31.242188 26.597656 31.207031 26.734375 L 30.195312 30.394531 C 30.171875 30.484375 30.1875 30.5625 30.242188 30.636719 C 30.296875 30.710938 30.375 30.75 30.46875 30.75 L 35.652344 30.769531 C 35.796875 30.769531 35.886719 30.699219 35.925781 30.558594 L 36.917969 26.855469 C 36.941406 26.769531 36.925781 26.6875 36.867188 26.617188 C 36.8125 26.542969 36.738281 26.503906 36.644531 26.503906 Z M 31.160156 26.722656 Z M 31.160156 26.722656 " fill-opacity="1" fill-rule="nonzero"/><path fill="#000000" d="M 35.320312 30.429688 L 30.148438 30.429688 C 30.125 30.425781 30.109375 30.410156 30.109375 30.382812 C 30.109375 30.359375 30.125 30.34375 30.148438 30.339844 L 35.320312 30.339844 C 35.519531 30.339844 35.644531 30.242188 35.691406 30.046875 L 36.597656 26.449219 C 36.605469 26.417969 36.625 26.410156 36.652344 26.417969 C 36.683594 26.425781 36.695312 26.441406 36.6875 26.472656 L 35.78125 30.066406 C 35.71875 30.308594 35.566406 30.425781 35.320312 30.429688 Z M 35.320312 30.429688 " fill-opacity="1" fill-rule="nonzero"/><path fill="#0097b2" d="M 31.757812 26.664062 L 35.886719 26.648438 C 35.972656 26.648438 36.042969 26.683594 36.09375 26.75 C 36.148438 26.820312 36.164062 26.894531 36.140625 26.980469 L 35.347656 29.9375 C 35.3125 30.066406 35.226562 30.132812 35.09375 30.132812 L 30.949219 30.117188 C 30.863281 30.117188 30.792969 30.082031 30.742188 30.011719 C 30.691406 29.941406 30.675781 29.867188 30.699219 29.785156 L 31.507812 26.855469 C 31.542969 26.730469 31.625 26.664062 31.757812 26.664062 Z M 31.757812 26.664062 " fill-opacity="1" fill-rule="nonzero"/><path fill="#000000" d="M 34.710938 32.058594 L 29.136719 32.058594 C 29.113281 32.054688 29.101562 32.046875 29.09375 32.027344 C 29.085938 32.007812 29.089844 31.992188 29.105469 31.976562 L 30.433594 30.769531 C 30.457031 30.75 30.476562 30.75 30.5 30.769531 C 30.519531 30.792969 30.519531 30.8125 30.5 30.832031 L 29.257812 31.96875 L 34.695312 31.96875 L 37.335938 29.324219 L 36.757812 27.484375 C 36.75 27.453125 36.757812 27.4375 36.789062 27.425781 C 36.816406 27.417969 36.835938 27.429688 36.84375 27.457031 L 37.429688 29.324219 C 37.433594 29.339844 37.429688 29.355469 37.417969 29.371094 L 34.742188 32.042969 C 34.734375 32.050781 34.722656 32.058594 34.710938 32.058594 Z M 34.710938 32.058594 " fill-opacity="1" fill-rule="nonzero"/><path fill="#000000" d="M 32.101562 26.527344 C 32.09375 26.527344 32.089844 26.527344 32.082031 26.527344 C 32.054688 26.511719 32.050781 26.492188 32.066406 26.464844 L 32.21875 26.199219 C 32.289062 26.074219 32.394531 26.015625 32.535156 26.015625 L 35.773438 26.015625 C 35.894531 26.015625 35.992188 26.0625 36.066406 26.15625 C 36.140625 26.253906 36.160156 26.359375 36.125 26.476562 C 36.117188 26.507812 36.097656 26.519531 36.070312 26.507812 C 36.039062 26.5 36.03125 26.480469 36.039062 26.453125 C 36.0625 26.363281 36.046875 26.285156 35.992188 26.214844 C 35.9375 26.140625 35.863281 26.105469 35.773438 26.105469 L 32.535156 26.105469 C 32.425781 26.105469 32.347656 26.148438 32.292969 26.242188 L 32.136719 26.511719 C 32.128906 26.519531 32.117188 26.527344 32.101562 26.527344 Z M 32.101562 26.527344 " fill-opacity="1" fill-rule="nonzero"/><path fill="#000000" d="M 32.492188 32.441406 L 30.980469 32.441406 C 30.960938 32.441406 30.949219 32.429688 30.941406 32.414062 C 30.929688 32.398438 30.929688 32.382812 30.941406 32.367188 L 31.210938 31.984375 C 31.226562 31.960938 31.25 31.957031 31.273438 31.976562 C 31.296875 31.992188 31.300781 32.011719 31.285156 32.039062 L 31.066406 32.34375 L 32.460938 32.34375 L 32.695312 32.003906 C 32.714844 31.984375 32.734375 31.980469 32.753906 31.996094 C 32.777344 32.011719 32.78125 32.03125 32.769531 32.054688 L 32.523438 32.417969 C 32.515625 32.429688 32.503906 32.4375 32.492188 32.441406 Z M 32.492188 32.441406 " fill-opacity="1" fill-rule="nonzero"/><path fill="#ffffff" d="M 32.152344 27.730469 C 32.058594 27.730469 31.980469 27.695312 31.914062 27.632812 C 31.847656 27.566406 31.816406 27.484375 31.8125 27.390625 C 31.8125 27.300781 31.847656 27.21875 31.914062 27.152344 C 31.976562 27.085938 32.058594 27.054688 32.152344 27.054688 C 32.246094 27.050781 32.324219 27.085938 32.390625 27.152344 C 32.457031 27.21875 32.492188 27.296875 32.492188 27.390625 C 32.492188 27.484375 32.460938 27.5625 32.394531 27.628906 C 32.328125 27.695312 32.246094 27.730469 32.152344 27.730469 Z M 32.152344 27.144531 C 31.996094 27.144531 31.914062 27.226562 31.914062 27.382812 C 31.910156 27.542969 31.992188 27.625 32.148438 27.628906 C 32.308594 27.628906 32.390625 27.550781 32.394531 27.390625 C 32.394531 27.324219 32.371094 27.269531 32.324219 27.21875 C 32.277344 27.171875 32.222656 27.148438 32.152344 27.148438 Z M 34.988281 28.714844 C 34.894531 28.714844 34.8125 28.683594 34.746094 28.617188 C 34.679688 28.550781 34.648438 28.472656 34.648438 28.378906 C 34.648438 28.285156 34.679688 28.203125 34.746094 28.136719 C 34.8125 28.070312 34.894531 28.039062 34.988281 28.039062 C 35.078125 28.039062 35.160156 28.070312 35.226562 28.136719 C 35.292969 28.203125 35.324219 28.285156 35.324219 28.378906 C 35.324219 28.472656 35.292969 28.550781 35.226562 28.617188 C 35.160156 28.6875 35.082031 28.71875 34.988281 28.71875 Z M 34.988281 28.128906 C 34.828125 28.136719 34.75 28.214844 34.75 28.375 C 34.753906 28.535156 34.835938 28.617188 34.996094 28.613281 C 35.152344 28.613281 35.234375 28.53125 35.234375 28.371094 C 35.234375 28.304688 35.207031 28.25 35.160156 28.203125 C 35.113281 28.15625 35.054688 28.132812 34.988281 28.132812 Z M 34.25 27.277344 C 34.25 27.246094 34.234375 27.230469 34.207031 27.230469 L 32.722656 27.230469 C 32.6875 27.226562 32.667969 27.238281 32.667969 27.277344 C 32.667969 27.3125 32.6875 27.328125 32.722656 27.320312 L 34.207031 27.320312 C 34.234375 27.320312 34.246094 27.308594 34.25 27.28125 Z M 35.117188 27.613281 C 35.117188 27.582031 35.101562 27.566406 35.070312 27.566406 L 32.675781 27.566406 C 32.648438 27.570312 32.636719 27.585938 32.636719 27.613281 C 32.636719 27.640625 32.648438 27.652344 32.675781 27.660156 L 35.070312 27.660156 C 35.097656 27.660156 35.113281 27.644531 35.117188 27.617188 Z M 31.679688 29.574219 C 31.589844 29.574219 31.507812 29.539062 31.441406 29.472656 C 31.375 29.410156 31.34375 29.328125 31.34375 29.234375 C 31.34375 29.140625 31.375 29.0625 31.441406 28.996094 C 31.507812 28.929688 31.589844 28.898438 31.679688 28.898438 C 31.773438 28.898438 31.855469 28.929688 31.921875 28.996094 C 31.988281 29.0625 32.019531 29.140625 32.019531 29.234375 C 32.019531 29.328125 31.988281 29.410156 31.921875 29.472656 C 31.855469 29.539062 31.773438 29.574219 31.679688 29.574219 Z M 31.679688 28.988281 C 31.523438 28.992188 31.441406 29.074219 31.445312 29.234375 C 31.449219 29.394531 31.53125 29.472656 31.691406 29.472656 C 31.847656 29.472656 31.929688 29.390625 31.929688 29.230469 C 31.929688 29.164062 31.90625 29.105469 31.855469 29.058594 C 31.808594 29.011719 31.75 28.988281 31.679688 28.988281 Z M 33.777344 29.121094 C 33.777344 29.09375 33.765625 29.078125 33.734375 29.078125 L 32.25 29.078125 C 32.21875 29.078125 32.203125 29.09375 32.203125 29.121094 C 32.203125 29.152344 32.21875 29.167969 32.25 29.167969 L 33.734375 29.167969 C 33.765625 29.167969 33.777344 29.152344 33.777344 29.121094 Z M 34.644531 29.460938 C 34.644531 29.429688 34.628906 29.414062 34.597656 29.414062 L 32.203125 29.414062 C 32.175781 29.414062 32.160156 29.429688 32.160156 29.460938 C 32.160156 29.492188 32.175781 29.507812 32.203125 29.507812 L 34.597656 29.507812 C 34.628906 29.507812 34.644531 29.492188 34.644531 29.460938 Z M 34.523438 28.484375 C 34.523438 28.453125 34.507812 28.4375 34.480469 28.4375 L 32.710938 28.4375 C 32.679688 28.4375 32.664062 28.453125 32.664062 28.484375 C 32.664062 28.511719 32.679688 28.527344 32.710938 28.527344 L 34.476562 28.527344 C 34.511719 28.527344 34.523438 28.511719 34.519531 28.476562 Z M 34.523438 28.484375 " fill-opacity="1" fill-rule="nonzero"/><g clip-path="url(#1ac2500433)"><path fill="#000000" d="M 30.84375 14.074219 L 21.875 14.074219 C 21.78125 14.074219 21.703125 14.039062 21.640625 13.96875 C 21.578125 13.894531 21.554688 13.8125 21.570312 13.714844 L 21.878906 11.539062 C 21.917969 11.320312 22.050781 11.203125 22.273438 11.199219 L 31.242188 11.199219 C 31.335938 11.195312 31.414062 11.230469 31.476562 11.300781 C 31.542969 11.378906 31.566406 11.464844 31.546875 11.558594 L 31.238281 13.734375 C 31.199219 13.953125 31.066406 14.066406 30.84375 14.074219 Z M 22.273438 11.289062 C 22.097656 11.296875 21.996094 11.386719 21.96875 11.558594 L 21.660156 13.734375 C 21.648438 13.804688 21.664062 13.867188 21.710938 13.917969 C 21.753906 13.96875 21.808594 13.992188 21.875 13.992188 L 30.84375 13.992188 C 31.019531 13.984375 31.121094 13.894531 31.148438 13.722656 L 31.457031 11.554688 C 31.46875 11.480469 31.453125 11.417969 31.402344 11.363281 C 31.359375 11.3125 31.304688 11.289062 31.238281 11.289062 Z M 17.859375 19.320312 L 7.976562 19.320312 C 7.875 19.320312 7.792969 19.285156 7.722656 19.207031 C 7.65625 19.128906 7.628906 19.035156 7.648438 18.929688 L 8.355469 13.992188 C 8.371094 13.882812 8.421875 13.796875 8.5 13.726562 C 8.582031 13.65625 8.675781 13.617188 8.78125 13.613281 L 18.660156 13.613281 C 18.765625 13.613281 18.847656 13.648438 18.917969 13.726562 C 18.984375 13.808594 19.011719 13.902344 18.992188 14.003906 L 18.285156 18.945312 C 18.269531 19.050781 18.21875 19.136719 18.140625 19.210938 C 18.058594 19.28125 17.964844 19.316406 17.859375 19.320312 Z M 8.78125 13.703125 C 8.589844 13.710938 8.476562 13.808594 8.445312 14 L 7.738281 18.941406 C 7.722656 19.019531 7.742188 19.085938 7.792969 19.148438 C 7.839844 19.203125 7.902344 19.230469 7.976562 19.230469 L 17.859375 19.230469 C 18.050781 19.222656 18.164062 19.121094 18.195312 18.929688 L 18.902344 13.992188 C 18.917969 13.914062 18.898438 13.84375 18.847656 13.785156 C 18.796875 13.730469 18.734375 13.703125 18.660156 13.703125 Z M 8.78125 13.703125 " fill-opacity="1" fill-rule="nonzero"/></g><g clip-path="url(#2ae09833d9)"><path fill="#ffffff" d="M 24.03125 12.605469 C 24 12.78125 23.917969 12.925781 23.785156 13.042969 C 23.652344 13.15625 23.496094 13.21875 23.320312 13.222656 C 23.238281 13.226562 23.164062 13.210938 23.09375 13.179688 C 23.019531 13.148438 22.957031 13.101562 22.90625 13.042969 C 22.855469 12.980469 22.820312 12.914062 22.800781 12.835938 C 22.78125 12.761719 22.78125 12.683594 22.796875 12.605469 C 22.824219 12.429688 22.90625 12.285156 23.042969 12.167969 C 23.175781 12.050781 23.332031 11.992188 23.507812 11.984375 C 23.589844 11.984375 23.664062 12 23.734375 12.03125 C 23.808594 12.0625 23.871094 12.109375 23.921875 12.167969 C 23.972656 12.230469 24.007812 12.296875 24.027344 12.375 C 24.046875 12.453125 24.046875 12.527344 24.03125 12.605469 Z M 29.988281 12.15625 L 25.164062 12.15625 L 25.128906 12.40625 L 29.9375 12.40625 Z M 28.625 12.769531 L 25.078125 12.769531 L 25.042969 13.011719 L 28.582031 13.011719 Z M 10.761719 15.164062 C 10.796875 14.96875 10.75 14.792969 10.621094 14.644531 C 10.492188 14.496094 10.332031 14.425781 10.136719 14.429688 C 9.929688 14.4375 9.746094 14.507812 9.589844 14.644531 C 9.433594 14.78125 9.339844 14.949219 9.304688 15.15625 C 9.273438 15.347656 9.320312 15.519531 9.449219 15.667969 C 9.574219 15.816406 9.738281 15.886719 9.929688 15.882812 C 10.136719 15.875 10.316406 15.804688 10.472656 15.671875 C 10.628906 15.535156 10.726562 15.367188 10.761719 15.164062 Z M 10.554688 14.703125 C 10.664062 14.832031 10.707031 14.980469 10.675781 15.152344 C 10.644531 15.332031 10.558594 15.480469 10.417969 15.601562 C 10.277344 15.722656 10.113281 15.785156 9.929688 15.789062 C 9.765625 15.792969 9.625 15.734375 9.515625 15.609375 C 9.40625 15.476562 9.367188 15.328125 9.394531 15.160156 C 9.429688 14.980469 9.515625 14.828125 9.652344 14.710938 C 9.792969 14.589844 9.953125 14.527344 10.136719 14.519531 C 10.304688 14.515625 10.445312 14.574219 10.554688 14.703125 Z M 10.351562 17.625 C 10.382812 17.429688 10.339844 17.257812 10.210938 17.105469 C 10.085938 16.957031 9.921875 16.886719 9.730469 16.890625 C 9.523438 16.898438 9.339844 16.96875 9.183594 17.105469 C 9.027344 17.242188 8.933594 17.414062 8.894531 17.617188 C 8.863281 17.8125 8.90625 17.988281 9.035156 18.140625 C 9.164062 18.285156 9.324219 18.355469 9.519531 18.351562 C 9.726562 18.34375 9.90625 18.273438 10.0625 18.136719 C 10.21875 18 10.316406 17.832031 10.351562 17.625 Z M 10.144531 17.164062 C 10.253906 17.292969 10.292969 17.445312 10.265625 17.613281 C 10.230469 17.792969 10.148438 17.945312 10.007812 18.066406 C 9.867188 18.1875 9.707031 18.25 9.523438 18.257812 C 9.355469 18.261719 9.21875 18.199219 9.109375 18.074219 C 8.996094 17.945312 8.957031 17.792969 8.988281 17.625 C 9.019531 17.445312 9.105469 17.292969 9.242188 17.171875 C 9.382812 17.050781 9.542969 16.988281 9.730469 16.980469 C 9.894531 16.980469 10.035156 17.039062 10.144531 17.164062 Z M 17.273438 14.664062 L 11.96875 14.664062 L 11.929688 14.945312 L 17.226562 14.945312 Z M 15.78125 15.332031 L 11.875 15.332031 L 11.835938 15.609375 L 15.730469 15.609375 Z M 13.375 17.15625 L 11.578125 17.15625 L 11.539062 17.429688 L 13.324219 17.429688 Z M 14.246094 17.824219 L 11.484375 17.824219 L 11.445312 18.101562 L 14.191406 18.101562 Z M 14.246094 17.824219 " fill-opacity="1" fill-rule="nonzero"/></g><path fill="#0097b2" d="M 53.679688 13.421875 L 53.679688 14.726562 C 53.679688 14.96875 53.59375 15.171875 53.421875 15.34375 C 53.253906 15.515625 53.046875 15.597656 52.808594 15.601562 L 48.171875 15.601562 L 47.121094 16.648438 L 47.121094 13.421875 C 47.121094 13.183594 47.207031 12.976562 47.378906 12.804688 C 47.546875 12.636719 47.753906 12.550781 47.996094 12.550781 L 52.808594 12.550781 C 53.046875 12.550781 53.253906 12.636719 53.421875 12.804688 C 53.59375 12.976562 53.679688 13.183594 53.679688 13.421875 Z M 53.679688 13.421875 " fill-opacity="1" fill-rule="nonzero"/><path fill="#000000" d="M 46.769531 16.359375 C 46.734375 16.320312 46.734375 13.097656 46.734375 13.097656 C 46.734375 12.84375 46.820312 12.628906 47 12.453125 C 47.175781 12.273438 47.390625 12.183594 47.644531 12.183594 L 52.457031 12.183594 C 52.707031 12.183594 52.921875 12.273438 53.097656 12.453125 C 53.277344 12.628906 53.367188 12.84375 53.367188 13.097656 L 53.367188 14.398438 C 53.363281 14.648438 53.277344 14.863281 53.097656 15.039062 C 52.921875 15.21875 52.707031 15.304688 52.457031 15.304688 L 47.835938 15.304688 L 46.800781 16.34375 C 46.792969 16.355469 46.78125 16.359375 46.769531 16.359375 Z M 47.644531 12.257812 C 47.414062 12.257812 47.214844 12.339844 47.050781 12.503906 C 46.890625 12.667969 46.808594 12.863281 46.808594 13.09375 L 46.808594 16.238281 L 47.792969 15.25 C 47.820312 15.238281 52.457031 15.238281 52.457031 15.238281 C 52.6875 15.238281 52.882812 15.15625 53.046875 14.996094 C 53.207031 14.832031 53.289062 14.636719 53.289062 14.40625 L 53.289062 13.09375 C 53.289062 12.863281 53.210938 12.667969 53.046875 12.503906 C 52.882812 12.339844 52.6875 12.257812 52.457031 12.257812 Z M 47.644531 12.257812 " fill-opacity="1" fill-rule="nonzero"/><path fill="#ffffff" d="M 48.582031 13.710938 C 48.582031 13.832031 48.539062 13.9375 48.453125 14.019531 C 48.367188 14.105469 48.265625 14.148438 48.144531 14.148438 C 48.023438 14.148438 47.921875 14.105469 47.835938 14.019531 C 47.75 13.9375 47.707031 13.832031 47.707031 13.710938 C 47.707031 13.59375 47.75 13.488281 47.835938 13.402344 C 47.921875 13.320312 48.023438 13.277344 48.144531 13.277344 C 48.265625 13.277344 48.367188 13.320312 48.453125 13.402344 C 48.539062 13.488281 48.582031 13.59375 48.582031 13.710938 Z M 50.050781 13.277344 C 49.929688 13.277344 49.828125 13.316406 49.742188 13.402344 C 49.65625 13.488281 49.613281 13.589844 49.613281 13.710938 C 49.613281 13.832031 49.65625 13.933594 49.738281 14.019531 C 49.824219 14.105469 49.929688 14.148438 50.046875 14.148438 C 50.167969 14.148438 50.273438 14.105469 50.355469 14.019531 C 50.441406 13.9375 50.484375 13.832031 50.484375 13.710938 C 50.484375 13.59375 50.441406 13.488281 50.359375 13.40625 C 50.273438 13.320312 50.171875 13.277344 50.050781 13.277344 Z M 52.03125 13.277344 C 51.910156 13.277344 51.808594 13.316406 51.722656 13.402344 C 51.636719 13.488281 51.59375 13.589844 51.59375 13.710938 C 51.59375 13.832031 51.636719 13.933594 51.71875 14.019531 C 51.804688 14.105469 51.910156 14.148438 52.027344 14.148438 C 52.148438 14.148438 52.253906 14.105469 52.335938 14.019531 C 52.421875 13.9375 52.464844 13.832031 52.464844 13.710938 C 52.464844 13.59375 52.421875 13.488281 52.339844 13.40625 C 52.253906 13.320312 52.152344 13.277344 52.03125 13.277344 Z M 52.03125 13.277344 " fill-opacity="1" fill-rule="nonzero"/><path fill="#0097b2" d="M 23.269531 12.914062 L 23.035156 12.632812 L 23.15625 12.527344 L 23.292969 12.683594 L 23.707031 12.320312 L 23.804688 12.441406 Z M 23.269531 12.914062 " fill-opacity="1" fill-rule="nonzero"/><g clip-path="url(#7e9ce39254)"><path fill="#ffffff" d="M 21.277344 42.832031 L 21.277344 43.21875 C 21.277344 43.21875 22.8125 43.824219 22.695312 44.066406 C 22.578125 44.308594 19.929688 43.980469 19.894531 43.824219 C 19.863281 43.667969 19.945312 42.828125 19.945312 42.828125 C 20.722656 43.167969 21.277344 42.832031 21.277344 42.832031 Z M 21.277344 42.832031 " fill-opacity="1" fill-rule="nonzero"/><path fill="#000000" d="M 22.179688 44.191406 C 21.773438 44.183594 21.371094 44.152344 20.964844 44.101562 C 20.242188 44.011719 19.871094 43.921875 19.851562 43.835938 C 19.816406 43.679688 19.894531 42.914062 19.902344 42.828125 C 19.902344 42.8125 19.910156 42.800781 19.925781 42.792969 C 19.9375 42.785156 19.949219 42.785156 19.964844 42.792969 C 20.707031 43.113281 21.25 42.796875 21.253906 42.792969 C 21.269531 42.78125 21.285156 42.78125 21.300781 42.792969 C 21.316406 42.800781 21.324219 42.8125 21.324219 42.832031 L 21.324219 43.191406 C 21.550781 43.285156 22.636719 43.730469 22.738281 43.992188 C 22.753906 44.023438 22.753906 44.054688 22.738281 44.085938 C 22.695312 44.164062 22.460938 44.191406 22.179688 44.191406 Z M 19.9375 43.808594 C 20.078125 43.917969 21.863281 44.160156 22.488281 44.085938 C 22.636719 44.070312 22.652344 44.042969 22.652344 44.042969 C 22.652344 44.042969 22.652344 44.035156 22.652344 44.019531 C 22.585938 43.839844 21.785156 43.46875 21.261719 43.261719 C 21.242188 43.253906 21.234375 43.238281 21.234375 43.21875 L 21.234375 42.90625 C 20.816406 43.082031 20.402344 43.078125 19.988281 42.894531 C 19.949219 43.199219 19.933594 43.503906 19.9375 43.808594 Z M 19.9375 43.816406 Z M 19.9375 43.804688 Z M 19.9375 43.804688 " fill-opacity="1" fill-rule="nonzero"/></g><path fill="#000000" d="M 24.5625 29.664062 C 24.550781 29.625 24.523438 29.601562 24.488281 29.589844 C 24.398438 29.570312 24.3125 29.582031 24.230469 29.617188 C 24.28125 29.527344 24.324219 29.414062 24.269531 29.34375 C 24.214844 29.273438 24.113281 29.285156 24.019531 29.308594 C 24.019531 29.304688 24.019531 29.296875 24.019531 29.292969 C 24.007812 29.222656 23.914062 29.203125 23.84375 29.191406 C 23.605469 29.160156 23.082031 29.445312 22.878906 29.554688 C 22.878906 29.511719 22.867188 29.46875 22.84375 29.433594 C 22.816406 29.394531 22.773438 29.371094 22.722656 29.371094 L 22.71875 29.371094 C 22.511719 29.371094 22.296875 29.898438 22.242188 30.171875 C 22.1875 30.445312 21.859375 30.535156 21.855469 30.535156 C 21.84375 30.539062 21.832031 30.546875 21.828125 30.554688 C 21.824219 30.566406 21.824219 30.578125 21.828125 30.589844 L 22.085938 31.507812 C 22.089844 31.523438 22.097656 31.53125 22.109375 31.539062 C 22.117188 31.539062 22.121094 31.539062 22.128906 31.539062 C 22.136719 31.539062 22.140625 31.539062 22.148438 31.539062 C 22.15625 31.539062 22.882812 31.175781 23.109375 31.0625 C 23.25 30.992188 23.597656 30.808594 23.738281 30.558594 C 23.847656 30.375 24.015625 30.296875 24.207031 30.222656 C 24.363281 30.15625 24.476562 30.042969 24.542969 29.890625 C 24.582031 29.816406 24.585938 29.742188 24.5625 29.664062 Z M 24.460938 29.863281 C 24.402344 29.992188 24.304688 30.089844 24.175781 30.148438 C 23.964844 30.230469 23.78125 30.3125 23.660156 30.523438 C 23.503906 30.734375 23.308594 30.890625 23.066406 30.988281 C 22.871094 31.085938 22.324219 31.359375 22.15625 31.441406 L 21.925781 30.621094 C 22.136719 30.554688 22.273438 30.414062 22.332031 30.195312 C 22.398438 29.867188 22.609375 29.472656 22.71875 29.472656 C 22.742188 29.46875 22.757812 29.476562 22.769531 29.496094 C 22.789062 29.539062 22.792969 29.585938 22.777344 29.632812 C 22.773438 29.652344 22.777344 29.671875 22.796875 29.683594 C 22.8125 29.695312 22.828125 29.695312 22.847656 29.683594 C 23.046875 29.5625 23.609375 29.25 23.828125 29.28125 C 23.863281 29.285156 23.894531 29.292969 23.925781 29.308594 C 23.910156 29.332031 23.886719 29.355469 23.859375 29.367188 C 23.546875 29.5 23.277344 29.691406 23.050781 29.945312 C 23.039062 29.957031 23.035156 29.972656 23.042969 29.992188 C 23.050781 30.011719 23.066406 30.019531 23.085938 30.019531 C 23.097656 30.019531 23.109375 30.011719 23.117188 30.003906 C 23.117188 30.003906 23.488281 29.589844 23.898438 29.453125 C 23.996094 29.40625 24.160156 29.359375 24.191406 29.402344 C 24.226562 29.445312 24.152344 29.582031 24.074219 29.691406 C 23.855469 29.796875 23.652344 29.925781 23.46875 30.082031 C 23.449219 30.105469 23.449219 30.125 23.46875 30.144531 C 23.476562 30.15625 23.488281 30.160156 23.503906 30.160156 C 23.511719 30.164062 23.523438 30.160156 23.53125 30.152344 C 23.710938 30 23.910156 29.871094 24.121094 29.769531 C 24.210938 29.71875 24.382812 29.648438 24.453125 29.675781 C 24.464844 29.679688 24.472656 29.6875 24.476562 29.699219 C 24.492188 29.757812 24.488281 29.8125 24.460938 29.863281 Z M 24.460938 29.863281 " fill-opacity="1" fill-rule="nonzero"/><path fill="#000000" d="M 27.121094 32.058594 L 27.101562 32.058594 C 27.042969 32.027344 27.011719 31.976562 27.007812 31.910156 C 26.964844 31.652344 27.214844 31.066406 28.640625 29.734375 C 28.664062 29.714844 28.683594 29.714844 28.707031 29.734375 C 28.726562 29.757812 28.726562 29.777344 28.707031 29.800781 C 27.191406 31.207031 27.078125 31.734375 27.097656 31.890625 C 27.097656 31.929688 27.113281 31.957031 27.140625 31.980469 C 27.167969 31.992188 27.175781 32.011719 27.164062 32.039062 C 27.152344 32.054688 27.136719 32.0625 27.121094 32.058594 Z M 27.121094 32.058594 " fill-opacity="1" fill-rule="nonzero"/><path fill="#ffffff" d="M 26.699219 19.058594 C 26.71875 19.085938 26.710938 19.105469 26.6875 19.121094 L 26.039062 19.558594 L 26.339844 19.933594 C 26.359375 19.957031 26.355469 19.976562 26.332031 19.996094 C 26.324219 20.003906 26.3125 20.007812 26.304688 20.007812 C 26.289062 20.007812 26.277344 20 26.269531 19.988281 L 25.964844 19.605469 L 25.410156 19.976562 C 25.402344 19.984375 25.394531 19.984375 25.386719 19.984375 C 25.371094 19.984375 25.355469 19.976562 25.347656 19.964844 C 25.328125 19.9375 25.332031 19.914062 25.363281 19.898438 L 25.910156 19.535156 L 25.546875 19.089844 C 25.535156 19.066406 25.539062 19.046875 25.558594 19.03125 C 25.578125 19.015625 25.601562 19.015625 25.617188 19.035156 L 25.980469 19.484375 L 26.636719 19.050781 C 26.660156 19.035156 26.683594 19.039062 26.699219 19.058594 Z M 28.691406 19.046875 L 28.035156 19.484375 L 27.671875 19.035156 C 27.652344 19.015625 27.632812 19.015625 27.613281 19.03125 C 27.589844 19.046875 27.585938 19.066406 27.601562 19.089844 L 27.960938 19.535156 L 27.414062 19.898438 C 27.390625 19.914062 27.386719 19.9375 27.402344 19.960938 C 27.414062 19.976562 27.425781 19.980469 27.441406 19.980469 C 27.449219 19.980469 27.460938 19.980469 27.464844 19.972656 L 28.019531 19.605469 L 28.328125 19.988281 C 28.347656 20.011719 28.367188 20.015625 28.390625 19.996094 C 28.414062 19.976562 28.417969 19.957031 28.398438 19.933594 L 28.097656 19.554688 L 28.746094 19.121094 C 28.769531 19.105469 28.773438 19.085938 28.757812 19.058594 C 28.742188 19.035156 28.71875 19.03125 28.695312 19.046875 Z M 30.8125 19.058594 C 30.792969 19.035156 30.773438 19.03125 30.75 19.046875 L 30.089844 19.484375 L 29.730469 19.035156 C 29.710938 19.003906 29.6875 19 29.660156 19.023438 C 29.632812 19.042969 29.632812 19.066406 29.65625 19.089844 L 30.015625 19.535156 L 29.46875 19.898438 C 29.445312 19.914062 29.441406 19.9375 29.457031 19.960938 C 29.46875 19.976562 29.480469 19.980469 29.496094 19.980469 C 29.503906 19.980469 29.511719 19.980469 29.519531 19.972656 L 30.074219 19.605469 L 30.382812 19.988281 C 30.390625 20 30.402344 20.007812 30.417969 20.007812 C 30.425781 20.007812 30.4375 20.003906 30.445312 19.996094 C 30.46875 19.976562 30.472656 19.957031 30.453125 19.933594 L 30.152344 19.558594 L 30.800781 19.121094 C 30.824219 19.105469 30.828125 19.082031 30.8125 19.058594 Z M 30.8125 19.058594 " fill-opacity="1" fill-rule="nonzero"/><path fill="#000000" d="M 25.203125 21.214844 C 25.226562 21.238281 25.226562 21.257812 25.203125 21.28125 L 24.964844 21.53125 L 25.128906 21.667969 C 25.148438 21.691406 25.148438 21.710938 25.128906 21.734375 C 25.121094 21.746094 25.109375 21.75 25.09375 21.75 C 25.082031 21.75 25.074219 21.746094 25.066406 21.738281 L 24.878906 21.570312 C 24.867188 21.5625 24.863281 21.550781 24.863281 21.539062 C 24.863281 21.523438 24.867188 21.515625 24.875 21.503906 L 25.144531 21.21875 C 25.164062 21.199219 25.183594 21.199219 25.203125 21.214844 Z M 25.605469 21.214844 L 25.335938 21.503906 C 25.328125 21.511719 25.324219 21.523438 25.324219 21.535156 C 25.328125 21.550781 25.332031 21.5625 25.34375 21.570312 L 25.542969 21.738281 C 25.566406 21.757812 25.589844 21.753906 25.609375 21.730469 C 25.628906 21.707031 25.625 21.6875 25.601562 21.667969 L 25.4375 21.53125 L 25.679688 21.28125 C 25.699219 21.257812 25.699219 21.238281 25.679688 21.214844 C 25.652344 21.179688 25.628906 21.183594 25.601562 21.21875 Z M 26.171875 21.503906 L 25.902344 21.214844 C 25.882812 21.195312 25.863281 21.195312 25.839844 21.214844 C 25.820312 21.238281 25.820312 21.257812 25.839844 21.28125 L 26.082031 21.53125 L 25.917969 21.667969 C 25.894531 21.6875 25.890625 21.710938 25.910156 21.734375 C 25.917969 21.746094 25.929688 21.75 25.945312 21.75 C 25.957031 21.75 25.964844 21.746094 25.972656 21.738281 L 26.175781 21.570312 C 26.1875 21.5625 26.191406 21.550781 26.191406 21.539062 C 26.191406 21.523438 26.1875 21.511719 26.171875 21.503906 Z M 26.171875 21.503906 " fill-opacity="1" fill-rule="nonzero"/><path fill="#000000" d="M 24.769531 23.570312 C 24.757812 23.570312 24.746094 23.566406 24.738281 23.558594 L 24.539062 23.390625 C 24.527344 23.382812 24.523438 23.371094 24.519531 23.359375 C 24.519531 23.347656 24.523438 23.335938 24.53125 23.324219 L 24.804688 23.039062 C 24.824219 23.019531 24.847656 23.019531 24.867188 23.039062 C 24.890625 23.0625 24.890625 23.082031 24.867188 23.105469 L 24.625 23.355469 L 24.792969 23.496094 C 24.8125 23.515625 24.8125 23.535156 24.792969 23.558594 C 24.785156 23.566406 24.777344 23.570312 24.769531 23.570312 Z M 25.179688 23.582031 L 25.464844 23.109375 C 25.480469 23.085938 25.476562 23.0625 25.449219 23.046875 C 25.425781 23.03125 25.402344 23.039062 25.386719 23.0625 L 25.101562 23.535156 C 25.085938 23.5625 25.089844 23.582031 25.117188 23.597656 C 25.125 23.601562 25.132812 23.601562 25.140625 23.597656 C 25.15625 23.601562 25.167969 23.59375 25.179688 23.582031 Z M 25.832031 23.558594 L 26.035156 23.390625 C 26.046875 23.382812 26.050781 23.371094 26.050781 23.359375 C 26.050781 23.347656 26.046875 23.335938 26.039062 23.324219 L 25.769531 23.039062 C 25.75 23.011719 25.726562 23.007812 25.699219 23.03125 C 25.671875 23.054688 25.675781 23.078125 25.703125 23.101562 L 25.945312 23.355469 L 25.78125 23.492188 C 25.757812 23.511719 25.757812 23.535156 25.78125 23.554688 C 25.789062 23.566406 25.800781 23.570312 25.816406 23.570312 C 25.820312 23.570312 25.828125 23.566406 25.832031 23.558594 Z M 25.832031 23.558594 " fill-opacity="1" fill-rule="nonzero"/><path fill="#000000" d="M 36.960938 21.871094 C 36.875 21.871094 36.800781 21.84375 36.738281 21.78125 C 36.675781 21.71875 36.644531 21.644531 36.644531 21.558594 C 36.644531 21.46875 36.675781 21.394531 36.738281 21.335938 C 36.800781 21.273438 36.875 21.242188 36.960938 21.242188 C 37.046875 21.242188 37.121094 21.273438 37.183594 21.335938 C 37.246094 21.398438 37.277344 21.472656 37.277344 21.558594 C 37.277344 21.644531 37.246094 21.71875 37.183594 21.78125 C 37.121094 21.839844 37.046875 21.871094 36.960938 21.871094 Z M 36.960938 21.332031 C 36.8125 21.332031 36.738281 21.40625 36.734375 21.558594 C 36.734375 21.707031 36.808594 21.78125 36.960938 21.785156 C 37.109375 21.785156 37.1875 21.707031 37.1875 21.558594 C 37.1875 21.410156 37.109375 21.335938 36.960938 21.332031 Z M 42.398438 21.871094 C 42.3125 21.871094 42.238281 21.84375 42.175781 21.78125 C 42.113281 21.71875 42.085938 21.644531 42.085938 21.558594 C 42.085938 21.46875 42.117188 21.394531 42.175781 21.332031 C 42.238281 21.273438 42.3125 21.242188 42.402344 21.242188 C 42.488281 21.242188 42.5625 21.273438 42.625 21.335938 C 42.683594 21.398438 42.714844 21.472656 42.714844 21.558594 C 42.714844 21.644531 42.683594 21.71875 42.621094 21.78125 C 42.5625 21.84375 42.488281 21.871094 42.398438 21.871094 Z M 42.398438 21.332031 C 42.25 21.332031 42.175781 21.410156 42.175781 21.558594 C 42.175781 21.707031 42.25 21.785156 42.398438 21.785156 C 42.550781 21.785156 42.625 21.707031 42.625 21.558594 C 42.625 21.40625 42.550781 21.332031 42.398438 21.332031 Z M 39.742188 21.871094 C 39.652344 21.871094 39.578125 21.84375 39.519531 21.78125 C 39.457031 21.71875 39.425781 21.644531 39.425781 21.558594 C 39.425781 21.46875 39.457031 21.394531 39.519531 21.332031 C 39.582031 21.273438 39.65625 21.242188 39.742188 21.242188 C 39.828125 21.242188 39.902344 21.273438 39.964844 21.335938 C 40.027344 21.398438 40.058594 21.472656 40.058594 21.558594 C 40.054688 21.644531 40.027344 21.71875 39.964844 21.78125 C 39.902344 21.84375 39.828125 21.871094 39.742188 21.871094 Z M 39.742188 21.332031 C 39.589844 21.332031 39.515625 21.410156 39.515625 21.558594 C 39.515625 21.707031 39.589844 21.785156 39.742188 21.785156 C 39.890625 21.785156 39.964844 21.707031 39.964844 21.558594 C 39.964844 21.410156 39.890625 21.332031 39.742188 21.332031 Z M 39.742188 21.332031 " fill-opacity="1" fill-rule="nonzero"/><path fill="#000000" d="M 51.679688 17.160156 C 51.542969 16.824219 51.15625 16.578125 50.671875 16.511719 C 50.214844 16.457031 49.601562 16.566406 49.242188 17.046875 C 49.222656 17.066406 49.222656 17.085938 49.242188 17.105469 C 49.257812 17.121094 49.277344 17.125 49.296875 17.113281 C 49.304688 17.113281 50.011719 16.667969 50.957031 17.085938 C 51.019531 17.113281 51.0625 17.15625 51.089844 17.214844 C 51.089844 17.25 51.089844 17.28125 51.082031 17.316406 C 51.027344 17.476562 50.9375 17.609375 50.804688 17.714844 C 50.667969 17.8125 50.609375 17.945312 50.625 18.109375 C 50.667969 18.351562 50.96875 18.542969 51.109375 18.617188 C 50.90625 18.730469 50.339844 19.03125 50.035156 19.03125 L 50.019531 19.03125 C 49.894531 19.019531 49.769531 19 49.648438 18.960938 C 49.449219 18.90625 49.261719 18.855469 49.027344 18.960938 C 49.003906 18.945312 48.933594 18.894531 48.90625 18.671875 C 48.90625 18.648438 48.890625 18.632812 48.867188 18.632812 C 48.839844 18.628906 48.824219 18.640625 48.820312 18.667969 C 48.804688 18.722656 48.46875 20.054688 49.074219 20.261719 C 49.234375 20.308594 49.394531 20.328125 49.558594 20.328125 C 49.945312 20.332031 50.296875 20.226562 50.617188 20.011719 C 51.019531 19.71875 51.238281 19.25 51.25 18.648438 C 51.46875 18.574219 51.628906 18.433594 51.734375 18.226562 C 51.878906 17.949219 51.859375 17.589844 51.679688 17.160156 Z M 50.570312 19.941406 C 50.121094 20.242188 49.636719 20.324219 49.113281 20.183594 C 48.710938 20.046875 48.804688 19.265625 48.871094 18.894531 C 48.933594 19.046875 49.023438 19.0625 49.035156 19.0625 C 49.042969 19.0625 49.050781 19.0625 49.058594 19.0625 C 49.265625 18.960938 49.4375 19.007812 49.632812 19.0625 C 49.757812 19.101562 49.890625 19.125 50.023438 19.132812 C 50.347656 19.148438 50.960938 18.824219 51.167969 18.707031 C 51.148438 19.25 50.949219 19.667969 50.570312 19.9375 Z M 51.660156 18.191406 C 51.5625 18.375 51.417969 18.5 51.222656 18.570312 C 51.140625 18.53125 50.761719 18.34375 50.71875 18.097656 C 50.710938 17.964844 50.761719 17.859375 50.871094 17.785156 C 51.015625 17.667969 51.117188 17.519531 51.171875 17.335938 C 51.183594 17.292969 51.1875 17.25 51.1875 17.207031 C 51.1875 17.207031 51.1875 17.199219 51.1875 17.199219 C 51.152344 17.105469 51.089844 17.042969 51 17.003906 C 50.726562 16.878906 50.4375 16.8125 50.132812 16.8125 C 49.90625 16.808594 49.683594 16.851562 49.472656 16.933594 C 49.820312 16.648438 50.21875 16.539062 50.664062 16.605469 C 51.113281 16.664062 51.472656 16.886719 51.597656 17.195312 C 51.761719 17.601562 51.785156 17.933594 51.660156 18.1875 Z M 51.660156 18.191406 " fill-opacity="1" fill-rule="nonzero"/></svg>