<svg xmlns="http://www.w3.org/2000/svg" xmlns:xlink="http://www.w3.org/1999/xlink" width="1080" zoomAndPan="magnify" viewBox="0 0 810 809.999993" height="1080" preserveAspectRatio="xMidYMid meet" version="1.0"><defs><clipPath id="d0f15a7300"><path d="M 247 374 L 478 374 L 478 697 L 247 697 Z M 247 374 " clip-rule="nonzero"/></clipPath><clipPath id="e60dbe301a"><path d="M 492.320312 380.757812 L 471.039062 704.058594 L 240.535156 688.882812 L 261.820312 365.582031 Z M 492.320312 380.757812 " clip-rule="nonzero"/></clipPath><clipPath id="1367f56bed"><path d="M 492.320312 380.757812 L 471.039062 704.058594 L 240.535156 688.882812 L 261.820312 365.582031 Z M 492.320312 380.757812 " clip-rule="nonzero"/></clipPath><clipPath id="6ca27ca2d8"><path d="M 141 424 L 240 424 L 240 544 L 141 544 Z M 141 424 " clip-rule="nonzero"/></clipPath><clipPath id="747325ccd2"><path d="M 210.824219 413.308594 L 251.25 531.855469 L 166.777344 560.660156 L 126.351562 442.113281 Z M 210.824219 413.308594 " clip-rule="nonzero"/></clipPath><clipPath id="0a1017a55f"><path d="M 210.824219 413.308594 L 251.25 531.855469 L 166.777344 560.660156 L 126.351562 442.113281 Z M 210.824219 413.308594 " clip-rule="nonzero"/></clipPath><clipPath id="b959db3608"><path d="M 492 537 L 716 537 L 716 759 L 492 759 Z M 492 537 " clip-rule="nonzero"/></clipPath><clipPath id="0284be168c"><path d="M 711.59375 762.53125 L 492.640625 758.082031 L 497.179688 534.628906 L 716.132812 539.078125 Z M 711.59375 762.53125 " clip-rule="nonzero"/></clipPath><clipPath id="065d90c3a8"><path d="M 711.59375 762.53125 L 492.640625 758.082031 L 497.179688 534.628906 L 716.132812 539.078125 Z M 711.59375 762.53125 " clip-rule="nonzero"/></clipPath><clipPath id="49688bf2e1"><path d="M 520 643 L 548 643 L 548 656 L 520 656 Z M 520 643 " clip-rule="nonzero"/></clipPath><clipPath id="3dd6678d32"><path d="M 711.59375 762.53125 L 492.640625 758.082031 L 497.179688 534.628906 L 716.132812 539.078125 Z M 711.59375 762.53125 " clip-rule="nonzero"/></clipPath><clipPath id="cc995c72e2"><path d="M 711.59375 762.53125 L 492.640625 758.082031 L 497.179688 534.628906 L 716.132812 539.078125 Z M 711.59375 762.53125 " clip-rule="nonzero"/></clipPath><clipPath id="c00bf744f9"><path d="M 526 650 L 550 650 L 550 659 L 526 659 Z M 526 650 " clip-rule="nonzero"/></clipPath><clipPath id="02d908d2e9"><path d="M 711.59375 762.53125 L 492.640625 758.082031 L 497.179688 534.628906 L 716.132812 539.078125 Z M 711.59375 762.53125 " clip-rule="nonzero"/></clipPath><clipPath id="b7e9a165db"><path d="M 711.59375 762.53125 L 492.640625 758.082031 L 497.179688 534.628906 L 716.132812 539.078125 Z M 711.59375 762.53125 " clip-rule="nonzero"/></clipPath><clipPath id="4c097bb2af"><path d="M 595 708 L 627 708 L 627 717 L 595 717 Z M 595 708 " clip-rule="nonzero"/></clipPath><clipPath id="552dc060f6"><path d="M 711.59375 762.53125 L 492.640625 758.082031 L 497.179688 534.628906 L 716.132812 539.078125 Z M 711.59375 762.53125 " clip-rule="nonzero"/></clipPath><clipPath id="b05a4a0030"><path d="M 711.59375 762.53125 L 492.640625 758.082031 L 497.179688 534.628906 L 716.132812 539.078125 Z M 711.59375 762.53125 " clip-rule="nonzero"/></clipPath><clipPath id="294e10ebdc"><path d="M 601 714 L 631 714 L 631 722 L 601 722 Z M 601 714 " clip-rule="nonzero"/></clipPath><clipPath id="9421eecea6"><path d="M 711.59375 762.53125 L 492.640625 758.082031 L 497.179688 534.628906 L 716.132812 539.078125 Z M 711.59375 762.53125 " clip-rule="nonzero"/></clipPath><clipPath id="5ed6b86548"><path d="M 711.59375 762.53125 L 492.640625 758.082031 L 497.179688 534.628906 L 716.132812 539.078125 Z M 711.59375 762.53125 " clip-rule="nonzero"/></clipPath><clipPath id="d4d9e35fd3"><path d="M 610 728 L 638 728 L 638 736 L 610 736 Z M 610 728 " clip-rule="nonzero"/></clipPath><clipPath id="eeff248b84"><path d="M 711.59375 762.53125 L 492.640625 758.082031 L 497.179688 534.628906 L 716.132812 539.078125 Z M 711.59375 762.53125 " clip-rule="nonzero"/></clipPath><clipPath id="025657a7f7"><path d="M 711.59375 762.53125 L 492.640625 758.082031 L 497.179688 534.628906 L 716.132812 539.078125 Z M 711.59375 762.53125 " clip-rule="nonzero"/></clipPath><clipPath id="bc9193cc8b"><path d="M 33 489 L 249 489 L 249 765 L 33 765 Z M 33 489 " clip-rule="nonzero"/></clipPath><clipPath id="161f2aba34"><path d="M 0.00390625 580.394531 L 121.191406 487 L 297.90625 716.308594 L 176.71875 809.703125 Z M 0.00390625 580.394531 " clip-rule="nonzero"/></clipPath><clipPath id="0b843554d9"><path d="M 0.00390625 580.394531 L 121.191406 487 L 297.90625 716.308594 L 176.71875 809.703125 Z M 0.00390625 580.394531 " clip-rule="nonzero"/></clipPath><clipPath id="3e5fddba82"><path d="M 478 478 L 585 478 L 585 588 L 478 588 Z M 478 478 " clip-rule="nonzero"/></clipPath><clipPath id="9dfc17971b"><path d="M 531.179688 462.242188 L 585.960938 502.953125 L 509.015625 606.492188 L 454.234375 565.785156 Z M 531.179688 462.242188 " clip-rule="nonzero"/></clipPath><clipPath id="7b03da2e3e"><path d="M 531.179688 462.242188 L 585.960938 502.953125 L 509.015625 606.492188 L 454.234375 565.785156 Z M 531.179688 462.242188 " clip-rule="nonzero"/></clipPath></defs><g clip-path="url(#d0f15a7300)"><g clip-path="url(#e60dbe301a)"><g clip-path="url(#1367f56bed)"><path fill="#001524" d="M 454.792969 589.742188 C 454.011719 592.855469 452.9375 596.082031 451.601562 599.351562 C 456.273438 605.484375 459.34375 612.21875 460.449219 618.695312 C 462.402344 616.597656 464.347656 614.496094 466.289062 612.394531 C 463.992188 608.628906 461.921875 604.691406 459.917969 600.878906 C 459.238281 599.585938 458.558594 598.296875 457.871094 597.011719 C 457.542969 596.402344 456.726562 594.425781 455.417969 591.253906 C 455.21875 590.773438 455.007812 590.261719 454.792969 589.742188 Z M 448.808594 605.429688 C 447.351562 608.335938 445.671875 611.300781 443.726562 614.417969 C 444.277344 616.296875 444.875 618.1875 445.472656 620.09375 C 446.613281 623.714844 447.789062 627.4375 448.683594 631.167969 C 451.03125 628.726562 453.4375 626.183594 455.878906 623.585938 C 453.910156 616.878906 451.632812 611.023438 448.808594 605.429688 Z M 438.367188 622.371094 C 437.71875 623.273438 437.039062 624.195312 436.328125 625.148438 C 437.082031 629.1875 438.078125 633.109375 438.875 636.117188 C 439.09375 636.964844 439.34375 637.804688 439.585938 638.648438 C 439.726562 639.117188 439.863281 639.59375 440 640.066406 C 440.820312 639.242188 441.640625 638.417969 442.453125 637.589844 C 440.316406 632.773438 439.1875 627.308594 438.367188 622.371094 Z M 430.675781 632.394531 C 429.613281 633.699219 428.480469 635.070312 427.234375 636.558594 C 427.792969 640.152344 428.449219 643.640625 429.191406 646.933594 C 429.339844 647.609375 429.507812 648.285156 429.679688 648.960938 C 429.757812 649.285156 429.839844 649.613281 429.917969 649.945312 C 431.363281 648.570312 432.796875 647.183594 434.222656 645.789062 C 432.335938 641.832031 431.34375 637.136719 430.675781 632.394531 Z M 420.738281 644.15625 C 420.820312 644.414062 420.867188 644.683594 420.878906 644.960938 C 421.027344 647.917969 421.203125 651.089844 421.476562 654.273438 C 421.578125 655.40625 421.675781 656.527344 421.632812 657.667969 C 422.359375 657 423.082031 656.324219 423.808594 655.65625 C 422.097656 652.042969 421.492188 647.785156 421.125 643.707031 C 420.996094 643.859375 420.867188 644.007812 420.738281 644.15625 Z M 405.140625 661.328125 C 405.300781 661.691406 405.390625 662.082031 405.410156 662.492188 L 405.449219 663.285156 C 405.535156 665.117188 405.625 667.015625 405.5 668.921875 C 405.460938 669.496094 405.402344 670.074219 405.320312 670.652344 C 405.273438 670.984375 405.195312 671.292969 405.09375 671.578125 C 408.792969 668.800781 412.34375 665.855469 415.773438 662.882812 C 415.550781 662.675781 415.359375 662.433594 415.203125 662.15625 C 413.960938 659.953125 413.917969 657.371094 413.875 655.09375 C 413.863281 654.519531 413.855469 653.957031 413.824219 653.410156 C 413.800781 652.964844 413.78125 652.511719 413.757812 652.058594 C 413.351562 652.503906 412.945312 652.953125 412.539062 653.402344 C 412.511719 653.9375 412.484375 654.464844 412.449219 655 C 412.332031 656.769531 412.121094 658.851562 411.464844 660.855469 C 411.128906 661.875 410.128906 662.542969 409.03125 662.464844 C 407.988281 662.398438 407.160156 661.660156 406.964844 660.632812 C 406.902344 660.289062 406.847656 659.945312 406.800781 659.585938 C 406.253906 660.167969 405.699219 660.746094 405.140625 661.328125 Z M 410.09375 399.585938 C 409.6875 402.652344 409.230469 405.941406 408.710938 409.59375 C 414.140625 417.625 417.949219 429.0625 419.292969 441.09375 C 419.449219 439.910156 419.640625 438.699219 419.839844 437.4375 C 420.222656 435.015625 420.621094 432.515625 420.78125 430.09375 C 421.03125 426.285156 420.640625 423.433594 419.550781 421.113281 C 416.054688 413.683594 412.882812 406.464844 410.09375 399.585938 Z M 402.675781 449.84375 C 402.132812 453.511719 401.535156 457.609375 400.957031 461.777344 L 400.988281 461.851562 C 402.136719 464.3125 403.328125 466.753906 404.527344 469.191406 C 406.09375 472.394531 407.710938 475.703125 409.195312 479.027344 C 411.203125 483.535156 413.136719 488.261719 414.511719 493.214844 C 415.171875 485.535156 415.789062 478.53125 416.402344 471.765625 L 416.96875 465.464844 C 417.441406 460.226562 417.929688 454.859375 418.433594 449.503906 C 417.867188 449.929688 417.140625 450.179688 416.332031 450.179688 C 414.34375 450.183594 412.738281 448.710938 412.605469 446.757812 C 412.09375 439.328125 410.09375 431.722656 406.65625 424.15625 C 406.636719 424.105469 406.617188 424.054688 406.585938 424.003906 C 406.148438 426.925781 405.707031 429.84375 405.257812 432.761719 C 406.691406 436.460938 407.921875 440.363281 409.007812 443.816406 C 409.46875 445.277344 409.914062 446.691406 410.355469 448.023438 C 413.613281 457.945312 414.804688 466.402344 414.207031 475.445312 L 414.136719 476.464844 C 414.011719 478 412.757812 479.113281 411.21875 479.054688 C 409.726562 478.996094 408.589844 477.816406 408.585938 476.308594 C 408.546875 467.117188 405.691406 457.882812 402.675781 449.84375 Z M 398.8125 478.421875 C 398.601562 480.253906 398.398438 482.085938 398.199219 483.914062 L 397.984375 485.859375 C 400.8125 490.980469 402.925781 496.550781 404.972656 501.945312 C 405.464844 503.234375 405.945312 504.503906 406.429688 505.75 C 408.386719 510.769531 410.269531 516.023438 412.136719 521.65625 C 412.269531 520.046875 412.695312 514.945312 412.695312 514.945312 C 412.53125 514.917969 412.371094 514.882812 412.210938 514.828125 C 410.992188 514.429688 410.265625 513.316406 410.351562 511.988281 L 410.367188 511.761719 C 411.113281 500.402344 405.347656 489.027344 400.257812 478.988281 L 399.035156 476.5625 C 398.957031 477.179688 398.882812 477.800781 398.8125 478.421875 Z M 392.707031 564.222656 C 392.421875 566.039062 392.167969 568.011719 392.039062 569.972656 C 391.859375 572.667969 391.929688 575.023438 392.25 577.128906 C 395.277344 577.050781 398.308594 577.183594 401.1875 577.40625 C 400.441406 576.421875 399.667969 575.402344 399.011719 574.28125 L 398.816406 573.941406 C 397.128906 571.054688 395.390625 568.074219 393.464844 565.300781 C 393.210938 564.941406 392.960938 564.578125 392.707031 564.222656 Z M 395.953125 505.21875 L 396.4375 506.453125 C 397.089844 508.15625 397.773438 509.914062 398.535156 511.535156 C 399.964844 514.5625 401.480469 517.617188 402.945312 520.570312 C 403.976562 522.644531 405.011719 524.714844 406.023438 526.800781 C 403.898438 520.742188 401.566406 514.695312 399.046875 508.699219 C 398.1875 506.660156 397.214844 504.585938 396.222656 502.53125 C 396.132812 503.425781 396.042969 504.320312 395.953125 505.21875 Z M 394.085938 525.246094 C 395.539062 528.265625 396.785156 531.472656 397.988281 534.582031 C 399.152344 537.59375 400.253906 540.441406 401.53125 543.121094 C 404.09375 548.5 406.722656 554.019531 409.171875 559.679688 L 409.230469 558.882812 C 407.667969 548.542969 402.542969 538.859375 397.589844 529.496094 C 396.738281 527.886719 395.890625 526.285156 395.070312 524.691406 C 394.816406 524.195312 394.546875 523.6875 394.269531 523.175781 C 394.207031 523.867188 394.144531 524.554688 394.085938 525.246094 Z M 397.570312 668.957031 C 390.972656 675.363281 384.625 680.84375 378.339844 685.5625 C 380.667969 685.214844 383.269531 684.394531 386.113281 683.097656 C 391.527344 680.644531 396.625 677.589844 401.46875 674.203125 C 401.316406 674.210938 401.167969 674.207031 401.019531 674.199219 C 398.992188 674.066406 397.5625 672.492188 397.539062 670.371094 C 397.535156 669.902344 397.546875 669.429688 397.570312 668.957031 Z M 293.542969 593.136719 C 286.765625 593.761719 280.039062 593.277344 272.878906 592.4375 C 293.421875 609.304688 312.652344 628.101562 331.285156 646.324219 C 342.757812 657.546875 354.617188 669.140625 366.65625 680.160156 C 384.519531 667.976562 400.039062 651.066406 411.617188 637.621094 L 411.898438 637.292969 C 423.398438 623.9375 436.378906 608.859375 442.40625 592.148438 C 437.042969 591.648438 431.636719 591.039062 426.394531 590.453125 C 423.4375 590.121094 420.480469 589.789062 417.523438 589.472656 C 414.421875 589.144531 411.1875 588.90625 408.0625 588.679688 C 401.265625 588.183594 394.238281 587.671875 387.589844 586.152344 C 385.632812 585.707031 384.089844 583.691406 384.21875 581.746094 C 384.21875 581.714844 384.230469 581.589844 384.234375 581.5625 C 384.40625 580.121094 384.542969 578.550781 384.671875 576.617188 C 384.699219 576.179688 384.726562 575.746094 384.75 575.3125 C 383.699219 575.207031 382.675781 574.820312 381.847656 574.179688 C 380.640625 573.25 379.957031 571.898438 379.902344 570.355469 C 379.882812 570.234375 379.875 570.113281 379.882812 569.988281 C 380.992188 553.613281 382.261719 537.65625 383.652344 522.554688 C 383.550781 521.703125 383.5 521 383.492188 520.351562 C 383.488281 520.308594 383.492188 520.140625 383.496094 520.097656 C 383.53125 519.542969 383.714844 519.003906 384.039062 518.511719 C 384.539062 513.1875 385.089844 507.871094 385.644531 502.554688 C 385.449219 501.121094 385.386719 499.738281 385.472656 498.4375 C 385.503906 497.960938 385.558594 497.484375 385.628906 497.015625 C 385.710938 496.453125 385.96875 495.949219 386.367188 495.546875 C 386.820312 491.347656 387.296875 487.152344 387.78125 482.953125 C 387.4375 481.777344 387.175781 480.773438 386.972656 479.828125 C 386.914062 479.566406 386.894531 479.296875 386.914062 479.03125 C 386.964844 478.25 387.34375 477.507812 387.957031 476.988281 C 388.136719 476.835938 388.332031 476.707031 388.535156 476.601562 L 390.554688 459.902344 C 388.066406 454.042969 387.039062 449.296875 387.320312 445.003906 C 387.441406 443.367188 388.503906 442.144531 389.976562 441.816406 C 391.007812 441.589844 392.011719 441.863281 392.757812 442.519531 C 393.335938 438.179688 393.914062 434.089844 394.5 430.121094 C 393.660156 427.296875 393.257812 424.804688 393.28125 422.523438 C 393.28125 422.496094 393.285156 422.394531 393.285156 422.363281 C 393.367188 421.128906 394.25 420.027344 395.492188 419.621094 C 395.722656 419.546875 395.949219 419.496094 396.175781 419.476562 C 398.054688 408.203125 400.089844 398.175781 402.371094 388.972656 C 402.109375 389.136719 401.828125 389.273438 401.523438 389.375 C 400.386719 389.761719 399.113281 389.664062 398.109375 389.125 C 398.007812 389.113281 397.894531 389.105469 397.765625 389.09375 C 396.636719 389.007812 395.507812 388.925781 394.382812 388.878906 C 392.46875 388.789062 390.554688 388.699219 388.644531 388.605469 L 383.867188 388.382812 C 375.871094 388.015625 367.734375 387.800781 359.859375 387.585938 L 355.550781 387.46875 C 349.433594 387.300781 343.316406 387.179688 337.199219 387.058594 C 327 386.859375 316.472656 386.652344 306.089844 386.214844 C 306.164062 391.015625 306.21875 395.816406 306.269531 400.617188 C 306.410156 413.203125 306.554688 426.21875 307.078125 439.019531 C 307.222656 442.574219 307.375 446.128906 307.527344 449.679688 C 308.203125 465.382812 308.902344 481.621094 308.839844 497.621094 C 308.792969 509.957031 308.085938 522.246094 307.402344 532.640625 C 307.152344 536.429688 306.886719 540.222656 306.621094 544.011719 C 306.359375 547.796875 306.09375 551.578125 305.847656 555.363281 L 305.691406 557.722656 C 305.441406 561.640625 305.253906 565.574219 305.0625 569.519531 C 304.867188 573.621094 304.664062 577.859375 304.386719 582.027344 C 304.183594 585.144531 303.960938 587.9375 303.699219 590.558594 C 303.589844 592.191406 302.898438 593.546875 301.746094 594.441406 C 300.507812 595.402344 298.804688 595.796875 297.183594 595.5 C 295.589844 595.300781 294.273438 594.429688 293.542969 593.136719 Z M 247.488281 583.550781 C 247.589844 581.984375 248.238281 580.609375 249.304688 579.683594 C 250.347656 578.777344 251.722656 578.359375 253.269531 578.480469 C 257.710938 578.816406 262.273438 579.460938 266.683594 580.085938 C 275.5 581.332031 284.601562 582.613281 293.308594 581.566406 C 293.449219 578.890625 293.605469 576.21875 293.785156 573.542969 C 294.320312 565.402344 295.015625 557.132812 295.6875 549.132812 C 296.359375 541.148438 297.054688 532.890625 297.585938 524.769531 C 298.273438 514.359375 298.601562 505.691406 298.621094 497.492188 C 298.648438 484.25 298.015625 470.59375 297.402344 457.386719 C 296.460938 437.152344 295.492188 416.230469 296.832031 395.851562 C 297.25 389.507812 297.886719 383.367188 298.722656 377.609375 C 298.980469 375.828125 300.328125 374.515625 302.078125 374.351562 C 303.300781 374.234375 304.421875 374.71875 305.136719 375.601562 C 316.070312 376.230469 327.199219 376.585938 337.972656 376.925781 C 346.972656 377.214844 356.28125 377.507812 365.4375 377.964844 C 365.792969 377.980469 366.542969 377.996094 367.597656 378.011719 C 389.117188 378.363281 400.085938 380.007812 403.160156 383.351562 C 403.578125 383.800781 403.832031 384.253906 403.980469 384.679688 C 404.097656 384.558594 404.214844 384.445312 404.34375 384.34375 C 403.839844 382.890625 403.347656 381.4375 402.875 379.992188 C 402.746094 379.582031 402.691406 379.164062 402.71875 378.746094 C 402.8125 377.320312 403.859375 376.046875 405.324219 375.566406 C 406.707031 375.113281 408.121094 375.496094 409.015625 376.5625 C 415.042969 383.738281 418.527344 392.75 421.894531 401.46875 C 424.132812 407.261719 426.445312 413.25 429.457031 418.496094 C 431.125 421.398438 431.75 425.0625 431.421875 430.035156 C 431.253906 432.617188 430.859375 435.207031 430.476562 437.710938 C 430.171875 439.699219 429.882812 441.574219 429.738281 443.277344 C 429.261719 448.792969 428.753906 454.304688 428.242188 459.8125 C 427.945312 462.964844 427.660156 466.117188 427.371094 469.273438 C 424.652344 499.328125 421.1875 538.992188 418.519531 579.292969 C 419.3125 579.375 420.105469 579.460938 420.886719 579.53125 C 430.632812 580.449219 440.410156 581.082031 449.867188 581.695312 C 450.632812 581.746094 451.367188 581.929688 452.027344 582.246094 C 452.160156 581.953125 452.359375 581.691406 452.609375 581.472656 C 453.367188 580.804688 454.308594 580.550781 455.332031 580.734375 C 459.683594 581.515625 465.625 590.984375 473.804688 606.007812 C 474.953125 608.113281 475.9375 609.929688 476.335938 610.511719 C 476.851562 611.269531 477.089844 612.175781 477.027344 613.132812 C 476.953125 614.257812 476.460938 615.410156 475.667969 616.285156 C 472.863281 619.402344 470.074219 622.53125 467.289062 625.664062 C 451.933594 642.914062 436.054688 660.746094 417.535156 675.695312 C 407.71875 683.625 395.496094 693.492188 381.898438 696.1875 C 374.308594 697.6875 362.15625 695.703125 358.710938 688.136719 C 346.796875 677.257812 335.054688 665.792969 323.699219 654.707031 C 300.519531 632.082031 276.550781 608.6875 250.015625 589.191406 C 248.308594 587.9375 247.339844 585.777344 247.488281 583.550781 " fill-opacity="1" fill-rule="nonzero"/></g></g></g><g clip-path="url(#6ca27ca2d8)"><g clip-path="url(#747325ccd2)"><g clip-path="url(#0a1017a55f)"><path fill="#001524" d="M 228.433594 493.296875 C 228.617188 494.519531 228.710938 495.828125 228.722656 497.191406 C 231.296875 498.683594 233.386719 500.625 234.738281 502.769531 C 235.125 501.730469 235.507812 500.695312 235.886719 499.660156 C 234.511719 498.660156 233.1875 497.5625 231.910156 496.503906 C 231.476562 496.144531 231.042969 495.785156 230.609375 495.429688 C 230.402344 495.261719 229.816406 494.675781 228.878906 493.742188 C 228.738281 493.601562 228.585938 493.449219 228.433594 493.296875 Z M 228.628906 499.769531 C 228.539062 501.023438 228.378906 502.328125 228.148438 503.722656 C 228.625 504.3125 229.117188 504.898438 229.613281 505.484375 C 230.558594 506.605469 231.527344 507.757812 232.398438 508.953125 C 232.871094 507.738281 233.351562 506.476562 233.835938 505.1875 C 232.140625 503.089844 230.460938 501.34375 228.628906 499.769531 Z M 227.421875 507.351562 C 227.324219 507.769531 227.21875 508.195312 227.105469 508.640625 C 227.972656 509.96875 228.910156 511.21875 229.636719 512.171875 C 229.84375 512.441406 230.054688 512.703125 230.269531 512.96875 C 230.386719 513.113281 230.507812 513.261719 230.625 513.410156 C 230.796875 512.996094 230.964844 512.582031 231.128906 512.164062 C 229.65625 510.765625 228.445312 508.988281 227.421875 507.351562 Z M 226.167969 512.058594 C 225.980469 512.683594 225.78125 513.339844 225.558594 514.054688 C 226.289062 515.25 227.039062 516.394531 227.792969 517.457031 C 227.945312 517.675781 228.105469 517.890625 228.265625 518.109375 C 228.34375 518.210938 228.421875 518.316406 228.5 518.421875 C 228.808594 517.71875 229.113281 517.011719 229.414062 516.304688 C 228.15625 515.175781 227.105469 513.648438 226.167969 512.058594 Z M 224.371094 517.722656 C 224.4375 517.800781 224.496094 517.890625 224.539062 517.988281 C 225.03125 519.019531 225.566406 520.121094 226.132812 521.214844 C 226.335938 521.605469 226.539062 521.988281 226.691406 522.402344 C 226.851562 522.054688 227.011719 521.707031 227.167969 521.363281 C 226.023438 520.328125 225.175781 518.902344 224.441406 517.503906 C 224.417969 517.578125 224.394531 517.652344 224.371094 517.722656 Z M 221.363281 526.148438 C 221.472656 526.253906 221.5625 526.378906 221.628906 526.523438 L 221.761719 526.800781 C 222.0625 527.441406 222.378906 528.101562 222.613281 528.800781 C 222.6875 529.011719 222.75 529.226562 222.808594 529.445312 C 222.839844 529.570312 222.859375 529.691406 222.863281 529.804688 C 223.769531 528.269531 224.597656 526.695312 225.378906 525.125 C 225.269531 525.085938 225.164062 525.027344 225.066406 524.953125 C 224.300781 524.351562 223.902344 523.4375 223.546875 522.632812 C 223.460938 522.433594 223.371094 522.234375 223.28125 522.042969 C 223.207031 521.886719 223.132812 521.730469 223.054688 521.570312 C 222.976562 521.789062 222.898438 522.011719 222.824219 522.230469 C 222.890625 522.425781 222.960938 522.617188 223.027344 522.8125 C 223.246094 523.460938 223.480469 524.234375 223.542969 525.042969 C 223.574219 525.457031 223.316406 525.84375 222.917969 525.976562 C 222.535156 526.109375 222.128906 525.96875 221.90625 525.632812 C 221.835938 525.519531 221.765625 525.402344 221.695312 525.28125 C 221.585938 525.570312 221.476562 525.859375 221.363281 526.148438 Z M 184.332031 432.199219 C 184.640625 433.355469 184.964844 434.59375 185.320312 435.972656 C 188.445312 438.027344 191.496094 441.535156 193.757812 445.621094 C 193.636719 445.175781 193.527344 444.714844 193.410156 444.238281 C 193.1875 443.316406 192.960938 442.367188 192.65625 441.484375 C 192.183594 440.089844 191.621094 439.128906 190.886719 438.464844 C 188.542969 436.339844 186.34375 434.238281 184.332031 432.199219 Z M 189.136719 451.199219 C 189.488281 452.585938 189.882812 454.132812 190.292969 455.703125 L 190.316406 455.726562 C 191.089844 456.433594 191.875 457.125 192.664062 457.816406 C 193.695312 458.722656 194.765625 459.660156 195.785156 460.625 C 197.167969 461.933594 198.558594 463.328125 199.78125 464.890625 C 198.878906 462.058594 198.058594 459.472656 197.273438 456.972656 L 196.542969 454.644531 C 195.933594 452.707031 195.3125 450.726562 194.699219 448.742188 C 194.558594 448.980469 194.339844 449.175781 194.050781 449.292969 C 193.34375 449.589844 192.554688 449.304688 192.214844 448.628906 C 190.933594 446.058594 189.09375 443.648438 186.746094 441.460938 C 186.734375 441.445312 186.71875 441.429688 186.699219 441.417969 C 186.976562 442.523438 187.253906 443.628906 187.527344 444.734375 C 188.585938 445.835938 189.601562 447.042969 190.5 448.113281 C 190.878906 448.566406 191.246094 449.003906 191.601562 449.414062 C 194.234375 452.460938 195.910156 455.296875 197.039062 458.609375 L 197.164062 458.980469 C 197.347656 459.546875 197.066406 460.128906 196.507812 460.335938 C 195.96875 460.535156 195.390625 460.285156 195.164062 459.746094 C 193.789062 456.480469 191.402344 453.617188 189.136719 451.199219 Z M 192 461.949219 C 192.191406 462.632812 192.394531 463.316406 192.59375 463.996094 L 192.804688 464.722656 C 194.570312 466.125 196.148438 467.796875 197.675781 469.414062 C 198.042969 469.800781 198.402344 470.179688 198.761719 470.550781 C 200.203125 472.050781 201.648438 473.640625 203.148438 475.371094 C 202.960938 474.777344 202.355469 472.898438 202.355469 472.898438 C 202.292969 472.914062 202.230469 472.925781 202.167969 472.929688 C 201.671875 472.96875 201.246094 472.679688 201.082031 472.191406 L 201.054688 472.109375 C 199.636719 467.953125 195.898438 464.757812 192.597656 461.9375 L 191.800781 461.253906 C 191.867188 461.484375 191.929688 461.71875 192 461.949219 Z M 202.542969 493.410156 C 202.707031 494.097656 202.910156 494.839844 203.15625 495.558594 C 203.492188 496.542969 203.863281 497.371094 204.292969 498.074219 C 205.359375 497.597656 206.457031 497.195312 207.515625 496.847656 C 207.101562 496.609375 206.675781 496.359375 206.277344 496.058594 L 206.15625 495.964844 C 205.128906 495.1875 204.066406 494.382812 202.96875 493.683594 C 202.828125 493.589844 202.683594 493.5 202.542969 493.410156 Z M 194.949219 471.914062 L 195.304688 472.285156 C 195.792969 472.792969 196.296875 473.320312 196.808594 473.78125 C 197.765625 474.648438 198.757812 475.511719 199.71875 476.347656 C 200.390625 476.933594 201.066406 477.515625 201.734375 478.109375 C 200.082031 476.265625 198.355469 474.457031 196.570312 472.699219 C 195.960938 472.097656 195.308594 471.503906 194.648438 470.917969 C 194.75 471.25 194.847656 471.582031 194.949219 471.914062 Z M 197.253906 479.324219 C 198.21875 480.183594 199.140625 481.144531 200.027344 482.070312 C 200.890625 482.972656 201.703125 483.824219 202.554688 484.585938 C 204.265625 486.125 206.019531 487.699219 207.730469 489.351562 L 207.632812 489.058594 C 205.542969 485.609375 202.285156 482.921875 199.132812 480.320312 C 198.589844 479.871094 198.050781 479.425781 197.523438 478.980469 C 197.359375 478.84375 197.1875 478.703125 197.011719 478.558594 C 197.09375 478.816406 197.171875 479.070312 197.253906 479.324219 Z M 219.796875 529.988281 C 218.394531 533.246094 216.949219 536.140625 215.410156 538.753906 C 216.1875 538.285156 216.992188 537.605469 217.8125 536.722656 C 219.375 535.046875 220.738281 533.203125 221.960938 531.277344 C 221.910156 531.304688 221.855469 531.324219 221.800781 531.34375 C 221.058594 531.597656 220.316406 531.25 219.996094 530.496094 C 219.925781 530.328125 219.859375 530.160156 219.796875 529.988281 Z M 171.511719 518.40625 C 169.191406 519.632812 166.722656 520.457031 164.046875 521.21875 C 173.863281 524.179688 183.5 528.027344 192.835938 531.753906 C 198.585938 534.050781 204.527344 536.421875 210.449219 538.558594 C 215.003906 531.574219 218.023438 523.25 220.152344 516.746094 L 220.207031 516.589844 C 222.320312 510.128906 224.710938 502.835938 224.378906 495.988281 C 222.394531 496.605469 220.378906 497.191406 218.425781 497.757812 C 217.324219 498.078125 216.21875 498.398438 215.121094 498.726562 C 213.96875 499.066406 212.78125 499.460938 211.632812 499.84375 C 209.140625 500.675781 206.5625 501.535156 203.96875 501.980469 C 203.207031 502.109375 202.359375 501.621094 202.113281 500.910156 C 202.109375 500.898438 202.097656 500.851562 202.09375 500.839844 C 201.941406 500.300781 201.757812 499.722656 201.515625 499.015625 C 201.460938 498.855469 201.40625 498.699219 201.351562 498.539062 C 200.960938 498.65625 200.539062 498.671875 200.148438 498.566406 C 199.582031 498.414062 199.136719 498.035156 198.890625 497.492188 C 198.863281 497.453125 198.84375 497.410156 198.828125 497.363281 C 196.796875 491.367188 194.882812 485.496094 193.140625 479.914062 C 192.976562 479.625 192.855469 479.382812 192.753906 479.152344 C 192.75 479.136719 192.726562 479.078125 192.71875 479.0625 C 192.652344 478.859375 192.636719 478.636719 192.679688 478.417969 C 192.066406 476.445312 191.476562 474.46875 190.886719 472.496094 C 190.601562 472.015625 190.375 471.53125 190.214844 471.054688 C 190.152344 470.878906 190.101562 470.703125 190.058594 470.523438 C 190.003906 470.3125 190.023438 470.09375 190.101562 469.894531 C 189.640625 468.332031 189.191406 466.765625 188.742188 465.199219 C 188.445312 464.828125 188.203125 464.511719 187.988281 464.207031 C 187.929688 464.121094 187.882812 464.027344 187.847656 463.929688 C 187.753906 463.644531 187.777344 463.324219 187.917969 463.046875 C 187.960938 462.96875 188.011719 462.890625 188.066406 462.824219 L 186.3125 456.578125 C 184.558594 454.859375 183.488281 453.324219 182.953125 451.75 C 182.75 451.152344 182.949219 450.558594 183.425781 450.222656 C 183.757812 449.988281 184.15625 449.9375 184.519531 450.058594 C 184.082031 448.429688 183.683594 446.886719 183.304688 445.386719 C 182.585938 444.503906 182.074219 443.679688 181.742188 442.863281 C 181.738281 442.851562 181.722656 442.816406 181.71875 442.804688 C 181.566406 442.351562 181.71875 441.828125 182.097656 441.5 C 182.171875 441.441406 182.242188 441.390625 182.320312 441.347656 C 181.320312 437.054688 180.558594 433.183594 180.007812 429.566406 C 179.9375 429.664062 179.859375 429.753906 179.765625 429.835938 C 179.417969 430.140625 178.949219 430.296875 178.511719 430.25 C 178.472656 430.261719 178.429688 430.277344 178.382812 430.292969 C 177.96875 430.429688 177.554688 430.566406 177.148438 430.714844 C 176.453125 430.96875 175.757812 431.21875 175.0625 431.472656 L 173.328125 432.097656 C 170.425781 433.152344 167.496094 434.28125 164.660156 435.375 L 163.109375 435.96875 C 160.90625 436.816406 158.710938 437.679688 156.511719 438.546875 C 152.851562 439.984375 149.070312 441.472656 145.308594 442.855469 C 146.046875 444.554688 146.777344 446.257812 147.507812 447.957031 C 149.425781 452.417969 151.402344 457.03125 153.488281 461.515625 C 154.066406 462.757812 154.648438 464 155.226562 465.242188 C 157.796875 470.734375 160.453125 476.414062 162.800781 482.121094 C 164.613281 486.523438 166.183594 491.003906 167.480469 494.808594 C 167.953125 496.195312 168.421875 497.585938 168.886719 498.972656 C 169.355469 500.359375 169.820312 501.746094 170.292969 503.128906 L 170.589844 503.992188 C 171.078125 505.425781 171.597656 506.855469 172.113281 508.289062 C 172.652344 509.777344 173.207031 511.316406 173.726562 512.839844 C 174.117188 513.984375 174.449219 515.011719 174.746094 515.980469 C 174.949219 516.578125 174.902344 517.164062 174.625 517.65625 C 174.328125 518.179688 173.777344 518.574219 173.15625 518.707031 C 172.5625 518.871094 171.960938 518.757812 171.511719 518.40625 Z M 153.6875 521.816406 C 153.492188 521.246094 153.519531 520.660156 153.761719 520.171875 C 154 519.691406 154.425781 519.339844 154.996094 519.15625 C 156.628906 518.617188 158.347656 518.171875 160.011719 517.738281 C 163.335938 516.875 166.769531 515.984375 169.710938 514.320312 C 169.367188 513.34375 169.027344 512.371094 168.691406 511.390625 C 167.675781 508.414062 166.699219 505.363281 165.753906 502.417969 C 164.808594 499.472656 163.832031 496.429688 162.816406 493.460938 C 161.519531 489.648438 160.351562 486.515625 159.144531 483.589844 C 157.191406 478.871094 154.941406 474.101562 152.765625 469.488281 C 149.429688 462.421875 145.984375 455.117188 143.441406 447.660156 C 142.648438 445.335938 141.964844 443.058594 141.410156 440.882812 C 141.238281 440.210938 141.523438 439.542969 142.121094 439.222656 C 142.539062 439.003906 143.011719 439.007812 143.394531 439.21875 C 147.382812 437.820312 151.398438 436.296875 155.285156 434.820312 C 158.535156 433.589844 161.894531 432.316406 165.222656 431.121094 C 165.351562 431.074219 165.621094 430.96875 165.996094 430.816406 C 173.714844 427.753906 177.863281 426.714844 179.453125 427.445312 C 179.667969 427.546875 179.828125 427.667969 179.945312 427.796875 C 179.96875 427.738281 179.992188 427.679688 180.023438 427.625 C 179.628906 427.183594 179.238281 426.738281 178.855469 426.292969 C 178.75 426.167969 178.667969 426.027344 178.613281 425.875 C 178.4375 425.351562 178.621094 424.742188 179.070312 424.355469 C 179.496094 423.988281 180.058594 423.914062 180.535156 424.160156 C 183.742188 425.824219 186.320312 428.515625 188.8125 431.121094 C 190.46875 432.855469 192.179688 434.644531 194.027344 436.066406 C 195.050781 436.851562 195.820312 438.066406 196.4375 439.882812 C 196.761719 440.828125 197.003906 441.808594 197.238281 442.757812 C 197.425781 443.511719 197.601562 444.222656 197.800781 444.851562 C 198.449219 446.882812 199.085938 448.921875 199.71875 450.960938 C 200.082031 452.125 200.445312 453.292969 200.8125 454.457031 C 204.296875 465.5625 208.945312 480.203125 213.96875 494.949219 C 214.261719 494.863281 214.554688 494.777344 214.84375 494.6875 C 218.453125 493.566406 222.027344 492.34375 225.484375 491.160156 C 225.765625 491.0625 226.054688 491.023438 226.339844 491.035156 C 226.34375 490.910156 226.375 490.789062 226.429688 490.675781 C 226.601562 490.324219 226.898438 490.09375 227.289062 490.007812 C 228.957031 489.640625 232.476562 492.132812 237.613281 496.269531 C 238.335938 496.851562 238.957031 497.351562 239.183594 497.5 C 239.480469 497.695312 239.699219 497.980469 239.820312 498.332031 C 239.960938 498.742188 239.953125 499.226562 239.800781 499.65625 C 239.265625 501.179688 238.734375 502.707031 238.207031 504.238281 C 235.296875 512.65625 232.285156 521.359375 227.90625 529.429688 C 225.585938 533.707031 222.695312 539.035156 218.25 542.007812 C 215.769531 543.667969 211.148438 544.761719 208.800781 542.578125 C 202.945312 540.46875 197.0625 538.128906 191.375 535.863281 C 179.769531 531.242188 167.765625 526.460938 155.425781 523.453125 C 154.632812 523.257812 153.964844 522.632812 153.6875 521.816406 " fill-opacity="1" fill-rule="nonzero"/></g></g></g><g clip-path="url(#b959db3608)"><g clip-path="url(#0284be168c)"><g clip-path="url(#065d90c3a8)"><path fill="#001524" d="M 658.285156 544.433594 C 663.476562 546.480469 668.289062 549.796875 672.625 552.789062 L 672.910156 552.988281 C 673.808594 553.605469 674.796875 554.246094 675.832031 554.921875 C 681.453125 558.582031 688.449219 563.136719 690.097656 569.609375 C 690.214844 570.078125 690.308594 570.554688 690.375 571.035156 C 693.667969 570.601562 697.039062 570.382812 699.804688 570.207031 C 700.734375 570.144531 701.679688 570.066406 702.632812 569.988281 C 703.542969 569.910156 704.46875 569.832031 705.402344 569.769531 C 698.648438 561.085938 691.125 552.398438 680.933594 547.222656 C 675.445312 544.433594 670.832031 543.226562 665.976562 543.304688 C 664.476562 543.324219 662.914062 543.484375 661.339844 543.761719 C 660.386719 543.929688 659.359375 544.171875 658.285156 544.433594 Z M 690.15625 575.78125 C 689.449219 578.957031 687.683594 581.871094 685.605469 584.589844 C 685.792969 584.527344 685.976562 584.46875 686.164062 584.40625 C 691.171875 582.78125 696.824219 580.941406 702.046875 580.734375 C 703.710938 578.679688 705.269531 576.8125 706.757812 575.070312 C 705.800781 575.105469 704.84375 575.125 703.902344 575.140625 C 702.628906 575.164062 701.363281 575.1875 700.113281 575.253906 C 698.984375 575.3125 697.851562 575.386719 696.714844 575.460938 C 694.582031 575.601562 692.371094 575.75 690.191406 575.78125 C 690.179688 575.78125 690.167969 575.785156 690.15625 575.78125 Z M 675.441406 596.621094 C 678.75 596.285156 682.019531 595.746094 685.101562 595.195312 C 685.78125 595.074219 686.464844 594.941406 687.148438 594.804688 C 688.617188 594.515625 690.128906 594.21875 691.652344 594.042969 C 693.695312 591.367188 695.507812 589.007812 697.296875 586.710938 C 696.164062 586.875 695.035156 587.0625 693.953125 587.3125 C 690.316406 588.140625 686.328125 589.097656 681.402344 590.316406 C 681.246094 590.355469 681.082031 590.378906 680.925781 590.378906 C 680.875 590.378906 680.828125 590.378906 680.777344 590.375 Z M 669.953125 603.058594 C 672.394531 602.882812 674.863281 602.53125 677.269531 602.1875 C 680.191406 601.773438 683.203125 601.34375 686.167969 601.222656 L 687.15625 599.929688 C 686.644531 599.996094 686.132812 600.070312 685.628906 600.148438 C 682.082031 600.703125 677.382812 601.347656 672.476562 601.429688 C 672.128906 601.4375 671.796875 601.371094 671.5 601.242188 Z M 665.953125 607.746094 C 662.769531 611.480469 659.285156 615.441406 655.378906 619.761719 C 659.09375 618.222656 662.890625 616.695312 666.71875 615.351562 C 667.226562 615.171875 667.8125 614.921875 668.453125 614.652344 C 670.328125 613.863281 672.664062 612.878906 674.742188 612.84375 C 675.386719 612.835938 675.980469 612.917969 676.515625 613.089844 C 678.019531 611.316406 679.699219 609.320312 681.417969 607.21875 C 680.210938 607.3125 679.015625 607.40625 677.832031 607.515625 C 675.3125 607.753906 673.207031 607.875 671.210938 607.90625 C 669.355469 607.9375 667.625 607.882812 665.953125 607.746094 Z M 669.0625 620.339844 C 669.476562 620.351562 669.878906 620.378906 670.269531 620.417969 L 670.652344 619.972656 C 670.367188 620.039062 669.308594 620.28125 669.0625 620.339844 Z M 646.40625 629.507812 C 643.402344 632.730469 640.414062 635.898438 637.539062 638.929688 C 638.53125 638.519531 639.511719 638.105469 640.480469 637.691406 C 642.597656 636.796875 644.789062 635.867188 646.996094 635.046875 C 647.441406 634.878906 647.914062 634.695312 648.410156 634.5 C 650.859375 633.542969 653.90625 632.347656 656.722656 632.300781 C 657.945312 632.285156 659.054688 632.484375 660.019531 632.902344 C 660.167969 632.707031 660.316406 632.515625 660.46875 632.324219 C 661.894531 630.496094 663.433594 628.582031 665.222656 626.417969 C 663.957031 626.605469 662.683594 626.761719 661.4375 626.917969 C 659.105469 627.207031 656.699219 627.503906 654.484375 627.964844 C 651.414062 628.613281 648.835938 629.101562 646.40625 629.507812 Z M 510.75 641.277344 C 511.625 642.195312 512.492188 643.128906 513.34375 644.0625 C 513.195312 642.480469 514.101562 641.320312 515.421875 640.453125 C 513.882812 640.75 512.320312 641.042969 510.75 641.277344 Z M 517.070312 648.1875 C 521.546875 647.441406 525.933594 645.933594 529.820312 644.59375 C 530.6875 644.296875 531.570312 643.957031 532.46875 643.613281 C 535.480469 642.460938 538.59375 641.269531 541.800781 641.21875 C 541.953125 641.21875 542.101562 641.214844 542.25 641.21875 C 540.996094 640.691406 539.832031 640.324219 538.644531 640.066406 C 538.394531 640.011719 538.132812 639.925781 537.851562 639.792969 C 535.699219 640.757812 532.898438 641.101562 530.410156 641.410156 C 529.160156 641.5625 527.980469 641.707031 527.0625 641.914062 L 526.269531 642.09375 C 524.101562 642.574219 521.855469 643.074219 519.746094 643.785156 C 519.421875 643.890625 518.914062 644.089844 518.390625 644.296875 C 517.609375 644.601562 517.09375 644.800781 516.730469 644.917969 C 516.671875 645.03125 516.601562 645.136719 516.515625 645.238281 C 516.179688 645.625 515.65625 645.863281 515.121094 645.871094 C 515.074219 645.871094 515.027344 645.871094 514.984375 645.867188 C 515.582031 646.527344 517.070312 648.1875 517.070312 648.1875 Z M 628.335938 648.628906 C 631.972656 647.902344 635.472656 646.765625 639.128906 645.578125 C 640.214844 645.226562 641.300781 644.871094 642.394531 644.53125 C 642.851562 644.390625 643.3125 644.238281 643.789062 644.085938 C 646.238281 643.285156 649.015625 642.378906 651.722656 642.335938 C 652.136719 642.328125 652.542969 642.34375 652.9375 642.378906 C 653.929688 641.015625 655.03125 639.515625 656.175781 637.976562 C 656.007812 638.007812 655.84375 638.039062 655.679688 638.066406 C 654.855469 638.222656 654 638.378906 653.191406 638.621094 C 650.765625 639.359375 648.335938 640.21875 645.773438 641.246094 L 644.425781 641.789062 C 640.109375 643.53125 635.640625 645.335938 630.90625 646.167969 C 630.820312 646.183594 630.730469 646.191406 630.644531 646.195312 Z M 520.46875 651.949219 C 522.734375 654.414062 525.300781 657.097656 528.050781 659.597656 C 528.371094 659.296875 528.796875 659.125 529.257812 659.117188 C 529.546875 659.125 529.738281 659.125 529.9375 659.121094 C 533.046875 659.074219 536.082031 657.929688 539.015625 656.824219 L 540.085938 656.421875 C 540.511719 656.265625 540.945312 656.09375 541.386719 655.921875 C 543.28125 655.167969 545.433594 654.320312 547.582031 654.285156 C 548.183594 654.277344 548.765625 654.332031 549.316406 654.449219 C 550.785156 652.882812 552.277344 651.230469 553.769531 649.527344 C 550.464844 646.132812 547.523438 643.828125 544.53125 642.289062 C 544.367188 642.207031 544.207031 642.125 544.050781 642.046875 C 544.199219 642.246094 544.3125 642.476562 544.382812 642.726562 C 544.589844 643.503906 544.265625 644.292969 543.5625 644.734375 C 540.386719 646.726562 536.488281 647.800781 532.71875 648.839844 C 531.660156 649.128906 530.621094 649.417969 529.625 649.71875 C 526.292969 650.722656 523.332031 651.449219 520.46875 651.949219 Z M 617.816406 659.703125 C 617.898438 659.742188 617.980469 659.785156 618.058594 659.839844 C 618.148438 659.898438 618.382812 659.996094 618.894531 659.984375 C 619.996094 659.96875 621.507812 659.488281 622.609375 659.136719 C 623 659.011719 623.34375 658.902344 623.625 658.824219 C 626.195312 658.121094 628.894531 657.316406 632.382812 656.222656 C 632.976562 656.035156 633.753906 655.726562 634.652344 655.367188 C 637.066406 654.402344 640.078125 653.199219 642.546875 653.160156 C 643.394531 653.148438 644.140625 653.277344 644.769531 653.542969 C 646.027344 651.851562 647.269531 650.160156 648.433594 648.5625 C 647.683594 648.75 646.929688 648.925781 646.1875 649.097656 C 644.398438 649.511719 642.550781 649.941406 640.863281 650.484375 C 636.105469 652.015625 630.957031 653.476562 625.546875 653.824219 C 625.53125 653.824219 625.433594 653.828125 625.417969 653.828125 C 624.824219 653.839844 624.296875 653.644531 623.894531 653.304688 C 623.894531 653.304688 621.742188 655.570312 620.886719 656.476562 C 619.859375 657.5625 618.835938 658.636719 617.816406 659.703125 Z M 532.367188 663.234375 C 533.859375 664.371094 535.335938 665.386719 536.828125 666.300781 C 538.894531 664.605469 540.949219 662.792969 543.042969 660.808594 C 542.71875 660.894531 542.398438 660.984375 542.082031 661.066406 C 541.09375 661.328125 540.132812 661.585938 539.226562 661.863281 C 536.738281 662.621094 534.601562 663.148438 532.367188 663.234375 Z M 614.851562 662.765625 C 612.371094 665.3125 609.910156 667.785156 607.492188 670.167969 C 610.9375 669.640625 614.359375 668.4375 617.675781 667.265625 C 622.082031 665.710938 626.640625 664.105469 631.351562 664.027344 C 632.074219 664.015625 632.792969 664.042969 633.496094 664.101562 C 634.351562 664.179688 635.027344 664.71875 635.3125 665.507812 C 635.855469 664.878906 636.378906 664.257812 636.890625 663.640625 C 637.972656 662.335938 639.078125 660.964844 640.328125 659.359375 C 640.195312 659.390625 640.058594 659.421875 639.925781 659.449219 C 639.359375 659.582031 638.824219 659.707031 638.367188 659.839844 C 637.460938 660.117188 636.550781 660.394531 635.644531 660.675781 C 633.25 661.410156 630.773438 662.167969 628.304688 662.816406 C 627.804688 662.945312 627.238281 663.113281 626.632812 663.292969 C 624.585938 663.898438 622.042969 664.652344 619.710938 664.691406 C 618.027344 664.71875 616.632812 664.359375 615.566406 663.617188 C 615.242188 663.390625 615 663.097656 614.851562 662.765625 Z M 620.363281 672.476562 C 621.066406 672.472656 621.753906 672.515625 622.402344 672.601562 C 625.9375 671.320312 628.929688 670.335938 631.773438 669.511719 C 631.886719 669.390625 632 669.265625 632.109375 669.144531 C 629.90625 669.789062 627.679688 670.414062 625.511719 671.019531 C 623.820312 671.496094 622.089844 671.980469 620.363281 672.476562 Z M 602.492188 675.039062 C 601.304688 676.175781 600.117188 677.285156 598.957031 678.367188 C 600.152344 677.976562 601.339844 677.578125 602.511719 677.1875 C 604.375 676.570312 606.238281 675.953125 608.113281 675.351562 C 607.640625 675.390625 607.171875 675.414062 606.695312 675.421875 C 605.332031 675.441406 604 675.335938 602.730469 675.097656 C 602.652344 675.085938 602.570312 675.0625 602.492188 675.039062 Z M 590.203125 685.996094 C 588.074219 687.773438 585.894531 689.589844 583.808594 691.460938 C 585.625 691.304688 587.402344 691.222656 589.039062 691.148438 C 589.949219 691.105469 590.804688 691.066406 591.578125 691.019531 C 595.957031 690.738281 600.484375 690.550781 605.421875 690.445312 C 606.054688 690.429688 606.785156 690.367188 607.558594 690.300781 C 608.507812 690.222656 609.488281 690.140625 610.46875 690.125 C 610.75 690.121094 611.03125 690.121094 611.304688 690.132812 C 613.972656 686.839844 617.132812 683.9375 620.191406 681.121094 C 621.101562 680.28125 622.015625 679.441406 622.910156 678.59375 C 613.738281 682.523438 604.390625 685.46875 595.59375 687.183594 C 595.449219 687.214844 595.308594 687.226562 595.175781 687.230469 C 594.273438 687.242188 593.476562 686.703125 593.101562 685.824219 C 592.96875 685.515625 592.894531 685.1875 592.878906 684.867188 C 592.558594 684.816406 592.246094 684.699219 591.96875 684.523438 C 591.382812 685.011719 590.796875 685.503906 590.203125 685.996094 Z M 577.191406 698.148438 C 578.960938 699.671875 580.730469 701.207031 582.488281 702.75 C 586.882812 701.515625 591.414062 700.574219 595.957031 699.945312 C 596.785156 699.832031 597.621094 699.710938 598.464844 699.585938 C 601.71875 699.117188 605.066406 698.628906 608.414062 698.46875 C 608.121094 698.304688 607.832031 698.148438 607.546875 697.996094 C 606.828125 697.617188 606.445312 696.875 606.566406 696.105469 C 606.582031 696.015625 606.601562 695.929688 606.628906 695.84375 L 604.222656 695.878906 C 600.328125 695.941406 597.175781 696.035156 594.308594 696.171875 C 593.132812 696.234375 591.90625 696.269531 590.644531 696.308594 C 586.5 696.433594 581.816406 696.582031 577.714844 697.542969 C 577.539062 697.742188 577.363281 697.945312 577.191406 698.148438 Z M 614.742188 702.550781 C 614.324219 702.652344 613.910156 702.742188 613.492188 702.832031 C 613.957031 702.765625 614.425781 702.710938 614.894531 702.664062 C 614.84375 702.628906 614.792969 702.589844 614.742188 702.550781 Z M 586.558594 706.363281 C 587.457031 707.171875 588.328125 707.960938 589.171875 708.738281 C 589.160156 708.652344 589.152344 708.5625 589.148438 708.46875 C 589.105469 707.203125 589.984375 706.238281 591.246094 706.167969 C 595.476562 705.9375 599.722656 705.183594 603.828125 704.457031 C 605.324219 704.191406 606.820312 703.925781 608.320312 703.683594 C 608.894531 703.589844 609.484375 703.488281 610.082031 703.378906 C 610.117188 703.375 610.15625 703.367188 610.191406 703.363281 C 608.195312 703.613281 606.183594 703.761719 604.207031 703.90625 C 602.214844 704.054688 600.152344 704.203125 598.179688 704.460938 C 593.867188 705.023438 590.042969 705.648438 586.558594 706.363281 Z M 610.234375 731.347656 C 611.769531 733.378906 613.179688 735.371094 614.5 737.382812 C 614.523438 737.371094 614.546875 737.355469 614.570312 737.34375 C 617.15625 736.089844 620.253906 735.550781 623.25 735.035156 C 624.769531 734.769531 626.203125 734.523438 627.53125 734.191406 C 631.355469 733.238281 634.710938 732.332031 637.769531 731.429688 C 637.367188 724.855469 630.277344 717.335938 625.980469 712.777344 L 625.453125 712.21875 C 623.851562 710.519531 622.289062 708.96875 620.6875 707.492188 C 618.289062 707.96875 615.757812 708.140625 613.304688 708.304688 C 611.238281 708.441406 609.105469 708.585938 607.125 708.914062 C 602.035156 709.753906 596.792969 710.625 591.480469 710.710938 C 591.414062 710.710938 591.351562 710.710938 591.289062 710.707031 C 597.121094 716.179688 601.785156 721.046875 605.929688 725.964844 C 606.054688 726.058594 606.167969 726.160156 606.265625 726.269531 C 606.425781 726.449219 606.992188 726.851562 608.910156 726.820312 C 610.808594 726.792969 613.070312 726.355469 614.71875 726.042969 C 615.289062 725.929688 615.777344 725.835938 616.132812 725.78125 C 616.601562 725.710938 617.140625 725.597656 617.710938 725.476562 C 619.011719 725.203125 620.488281 724.894531 621.90625 724.875 C 623.457031 724.847656 624.65625 725.175781 625.566406 725.867188 C 625.972656 726.179688 626.210938 726.628906 626.230469 727.136719 C 626.246094 727.691406 625.996094 728.257812 625.550781 728.648438 C 624.34375 729.710938 622.519531 729.941406 621.050781 730.125 C 620.789062 730.15625 620.539062 730.1875 620.300781 730.222656 L 619.046875 730.410156 C 616.996094 730.71875 614.878906 731.035156 612.765625 731.195312 C 611.929688 731.261719 611.09375 731.324219 610.234375 731.347656 Z M 498.632812 752.140625 C 499.582031 752.144531 500.535156 752.136719 501.488281 752.121094 C 515.046875 751.90625 528.734375 749.878906 541.96875 747.921875 C 545.847656 747.347656 549.726562 746.773438 553.605469 746.242188 C 559.105469 745.488281 564.707031 744.832031 570.128906 744.203125 C 582.605469 742.746094 595.492188 741.242188 607.957031 738.417969 C 599.753906 726.625 589.449219 716.867188 579.460938 708.066406 C 578.976562 708.199219 578.488281 708.335938 578.007812 708.480469 C 577.808594 708.539062 577.609375 708.570312 577.417969 708.574219 C 576.414062 708.589844 575.554688 707.855469 575.371094 706.832031 C 575.246094 706.117188 575.472656 705.457031 575.960938 705.007812 C 574.128906 703.421875 572.292969 701.839844 570.460938 700.273438 C 569.648438 699.578125 569.285156 698.605469 569.457031 697.605469 C 569.636719 696.585938 570.351562 695.679688 571.296875 695.25 C 572.269531 694.480469 573.445312 693.820312 574.804688 693.289062 C 578.015625 689.429688 581.902344 686.03125 585.660156 682.746094 C 587.105469 681.480469 588.605469 680.175781 590 678.890625 C 596.015625 673.363281 603.882812 665.996094 611.417969 658.042969 C 614.429688 654.867188 617.449219 651.695312 620.46875 648.523438 C 626.175781 642.53125 632.0625 636.347656 637.820312 630.183594 C 637.222656 629.839844 636.816406 629.214844 636.75 628.453125 C 636.640625 627.179688 637.5 626.070312 638.753906 625.875 C 639.980469 625.679688 641.203125 625.460938 642.425781 625.230469 C 646.070312 621.277344 649.363281 617.648438 652.480469 614.144531 C 655.929688 610.265625 659.289062 606.195312 662.539062 602.257812 C 665.167969 599.078125 667.886719 595.785156 670.636719 592.605469 C 671.875 591.179688 673.234375 589.75 674.550781 588.367188 C 677.964844 584.78125 681.496094 581.070312 683.535156 576.78125 C 686.90625 569.675781 679.324219 564.550781 673.230469 560.429688 C 672.570312 559.984375 671.933594 559.554688 671.339844 559.140625 L 669.6875 557.980469 C 664.269531 554.167969 658.128906 549.847656 651.636719 548.683594 C 650.582031 548.492188 649.890625 547.875 649.539062 547.113281 C 643.992188 550.398438 639.539062 555.183594 635.769531 559.464844 L 633.757812 561.738281 C 629.941406 566.058594 625.996094 570.527344 622.304688 575.097656 C 617.992188 580.4375 613.699219 585.949219 609.546875 591.277344 C 604.589844 597.652344 599.457031 604.246094 594.238281 610.597656 C 589.871094 615.925781 585.328125 621.25 580.9375 626.398438 C 576.097656 632.066406 571.097656 637.929688 566.308594 643.808594 C 557.09375 655.128906 548.976562 664.246094 539.304688 671.964844 C 538.792969 672.371094 538.207031 672.59375 537.613281 672.605469 C 536.640625 672.621094 535.71875 672.066406 535.167969 671.164062 C 526.171875 666.765625 519.359375 659.199219 512.769531 651.886719 C 511.175781 650.117188 509.539062 648.300781 507.886719 646.550781 C 504.390625 659.957031 503.691406 674.050781 503.011719 687.703125 C 502.875 690.449219 502.738281 693.191406 502.582031 695.925781 C 501.617188 712.589844 500.339844 729.515625 499.105469 745.882812 Z M 501.84375 758.121094 C 499.695312 758.15625 497.566406 758.144531 495.519531 758.089844 C 494.582031 758.0625 493.789062 757.722656 493.226562 757.101562 C 492.660156 756.472656 492.386719 755.601562 492.457031 754.644531 C 492.921875 748.414062 493.425781 742.183594 493.925781 735.949219 C 495.0625 721.808594 496.238281 707.191406 496.960938 692.800781 C 497.054688 690.992188 497.140625 689.179688 497.226562 687.363281 C 497.957031 671.703125 498.714844 655.511719 503.699219 640.347656 C 503.996094 639.445312 504.691406 638.699219 505.527344 638.339844 C 505.785156 637.804688 506.25 637.40625 506.851562 637.226562 C 512.683594 635.453125 518.898438 634.347656 523.664062 633.582031 C 524.367188 633.46875 525.105469 633.328125 525.867188 633.1875 C 527.957031 632.796875 530.320312 632.355469 532.582031 632.320312 C 534.570312 632.285156 536.226562 632.566406 537.652344 633.175781 C 544.925781 636.273438 551.785156 639.199219 557.507812 645.160156 C 560.167969 642.007812 562.757812 638.832031 565.007812 636.070312 C 569.558594 630.488281 574.347656 624.96875 578.980469 619.636719 C 583.792969 614.089844 588.769531 608.359375 593.46875 602.558594 C 596.800781 598.449219 600.140625 594.226562 603.371094 590.144531 C 609.730469 582.101562 616.304688 573.789062 623.148438 565.910156 C 623.84375 565.109375 624.539062 564.296875 625.246094 563.480469 C 630.941406 556.855469 636.820312 550.019531 644.109375 545.300781 C 643.863281 545.050781 643.703125 544.71875 643.664062 544.359375 C 643.601562 543.773438 643.886719 543.230469 644.410156 542.945312 C 649.980469 539.890625 658.640625 538.847656 663.816406 538.226562 C 664.984375 538.085938 666.152344 538.003906 667.285156 537.988281 C 672.777344 537.898438 678.058594 539.277344 683.429688 542.203125 C 694.144531 548.035156 704.222656 557.609375 712.59375 569.898438 C 712.976562 569.953125 713.359375 570.015625 713.738281 570.097656 C 714.699219 570.292969 715.410156 571.1875 715.433594 572.214844 C 715.449219 573.113281 714.929688 573.871094 714.117188 574.160156 C 714.191406 574.898438 713.949219 575.640625 713.394531 576.261719 C 711.917969 577.921875 710.371094 579.71875 708.691406 581.734375 C 709.046875 582.046875 709.265625 582.496094 709.285156 582.984375 C 709.3125 583.726562 708.867188 584.371094 708.15625 584.632812 C 707.453125 584.886719 706.675781 585.117188 705.730469 585.347656 C 703.070312 588.636719 700.457031 592 698.179688 594.957031 C 698.363281 595.234375 698.476562 595.566406 698.5 595.929688 C 698.554688 596.835938 698.03125 597.664062 697.195312 597.984375 C 696.667969 598.1875 696.09375 598.371094 695.410156 598.558594 C 694.671875 599.519531 693.019531 601.660156 693.019531 601.660156 C 693.84375 601.941406 694.414062 602.722656 694.441406 603.667969 C 694.472656 604.667969 693.863281 605.492188 692.925781 605.71875 C 691.847656 605.972656 690.679688 606.199219 689.371094 606.398438 L 689.257812 606.546875 C 685.304688 611.621094 681.042969 616.554688 676.917969 621.324219 C 672.46875 626.476562 667.867188 631.804688 663.671875 637.292969 C 660.960938 640.835938 658.285156 644.519531 655.699219 648.082031 C 650.378906 655.410156 644.875 662.988281 638.710938 669.855469 C 631.164062 678.269531 623.496094 685.734375 615.910156 692.050781 C 616.09375 692.460938 616.179688 692.914062 616.140625 693.363281 C 616.074219 694.132812 615.648438 694.78125 614.976562 695.132812 C 614.550781 695.351562 614.085938 695.527344 613.570312 695.660156 C 615.089844 696.425781 616.484375 697.410156 617.589844 698.191406 C 621.867188 701.207031 626.023438 704.871094 629.949219 709.085938 C 633.429688 712.816406 637.03125 716.929688 639.835938 721.671875 C 641.015625 723.667969 642.128906 725.632812 642.78125 727.726562 C 643.03125 728.519531 643.261719 729.300781 643.390625 730.121094 C 644.703125 730.476562 645.488281 731.59375 645.632812 732.667969 C 645.8125 734.007812 645.058594 735.15625 643.714844 735.589844 C 638.738281 737.199219 633.503906 738.652344 627.71875 740.03125 C 626.8125 740.246094 625.867188 740.503906 624.90625 740.769531 C 622.148438 741.527344 619.296875 742.3125 616.507812 742.355469 C 616.046875 742.363281 615.589844 742.351562 615.136719 742.3125 C 615.132812 742.3125 615.125 742.3125 615.121094 742.3125 C 614.761719 742.75 614.28125 743.054688 613.722656 743.195312 C 599.925781 746.675781 585.65625 748.359375 571.855469 749.984375 C 566.613281 750.605469 561.191406 751.242188 555.875 751.972656 C 551.738281 752.539062 547.523438 753.167969 543.453125 753.777344 C 529.867188 755.800781 515.820312 757.898438 501.84375 758.121094 " fill-opacity="1" fill-rule="nonzero"/></g></g></g><g clip-path="url(#49688bf2e1)"><g clip-path="url(#3dd6678d32)"><g clip-path="url(#cc995c72e2)"><path fill="#001524" d="M 522.820312 655.375 C 521.632812 655.394531 520.699219 654.554688 520.605469 653.375 C 520.5 652.136719 521.34375 651.0625 522.570312 650.875 C 527.292969 650.140625 531.824219 648.941406 536.042969 647.300781 C 536.90625 646.964844 537.753906 646.585938 538.648438 646.175781 C 540.859375 645.179688 543.144531 644.148438 545.625 643.882812 C 545.65625 643.878906 545.757812 643.871094 545.789062 643.871094 C 546.53125 643.859375 547.238281 644.34375 547.542969 645.066406 C 547.835938 645.777344 547.699219 646.542969 547.171875 647.0625 C 544.46875 649.714844 540.535156 651.015625 537.0625 652.160156 L 536.082031 652.488281 C 532.597656 653.660156 527.953125 655.042969 522.953125 655.371094 C 522.933594 655.375 522.839844 655.375 522.820312 655.375 " fill-opacity="1" fill-rule="nonzero"/></g></g></g><g clip-path="url(#c00bf744f9)"><g clip-path="url(#02d908d2e9)"><g clip-path="url(#b7e9a165db)"><path fill="#001524" d="M 531.050781 658.71875 C 527.699219 658.769531 526.574219 657.144531 526.21875 655.773438 C 526.050781 655.121094 526.175781 654.480469 526.566406 653.964844 C 526.964844 653.445312 527.589844 653.128906 528.246094 653.117188 C 529.066406 653.105469 529.761719 653.5625 530.105469 654.320312 C 530.1875 654.335938 530.328125 654.355469 530.5625 654.351562 C 532.195312 654.328125 535.429688 653.328125 538.554688 652.371094 C 542.035156 651.300781 545.320312 650.289062 547.3125 650.261719 C 547.949219 650.25 548.449219 650.335938 548.84375 650.53125 C 549.371094 650.792969 549.75 651.304688 549.851562 651.90625 C 549.949219 652.472656 549.777344 653.027344 549.382812 653.425781 C 548.179688 654.632812 546.410156 655.09375 544.847656 655.5 C 544.472656 655.597656 544.105469 655.691406 543.761719 655.792969 L 542.5625 656.160156 C 540.214844 656.875 537.789062 657.609375 535.324219 658.101562 L 534.894531 658.1875 C 533.855469 658.402344 532.433594 658.695312 531.050781 658.71875 " fill-opacity="1" fill-rule="nonzero"/></g></g></g><g clip-path="url(#4c097bb2af)"><g clip-path="url(#552dc060f6)"><g clip-path="url(#b05a4a0030)"><path fill="#001524" d="M 600.957031 716.609375 C 599.789062 716.625 598.652344 716.578125 597.574219 716.457031 C 596.457031 716.332031 595.6875 715.441406 595.707031 714.292969 C 595.726562 713.078125 596.609375 712.097656 597.761719 712.007812 C 602.992188 711.601562 608.007812 710.726562 612.648438 709.84375 C 613.230469 709.734375 613.820312 709.605469 614.421875 709.480469 C 616.394531 709.0625 618.433594 708.628906 620.480469 708.597656 C 622.191406 708.570312 623.664062 708.832031 624.988281 709.390625 C 625.691406 709.691406 626.121094 710.355469 626.105469 711.121094 C 626.089844 711.925781 625.585938 712.65625 624.847656 712.941406 C 622.207031 713.953125 619.199219 714.269531 616.285156 714.574219 C 614.617188 714.75 613.046875 714.914062 611.550781 715.203125 C 608.039062 715.875 604.511719 716.550781 600.957031 716.609375 " fill-opacity="1" fill-rule="nonzero"/></g></g></g><g clip-path="url(#294e10ebdc)"><g clip-path="url(#9421eecea6)"><g clip-path="url(#5ed6b86548)"><path fill="#001524" d="M 604.75 721.832031 C 604.308594 721.839844 603.863281 721.835938 603.417969 721.816406 C 601.980469 721.753906 601.179688 720.644531 601.132812 719.585938 C 601.082031 718.375 601.914062 717.414062 603.164062 717.25 C 605.574219 716.933594 608.019531 716.464844 610.386719 716.007812 C 613.546875 715.398438 616.8125 714.769531 620.09375 714.488281 L 620.492188 714.453125 C 621.320312 714.378906 622.347656 714.289062 623.414062 714.273438 C 624.984375 714.246094 629.773438 714.171875 630.859375 718.0625 C 631.015625 718.617188 630.90625 719.195312 630.570312 719.652344 C 630.238281 720.09375 629.730469 720.355469 629.175781 720.363281 C 629.066406 720.367188 628.949219 720.355469 628.832031 720.335938 C 626.007812 719.847656 623.625 719.640625 621.347656 719.675781 C 619.867188 719.699219 618.40625 719.824219 616.878906 720.058594 C 615.667969 720.246094 614.410156 720.484375 613.1875 720.71875 C 610.4375 721.242188 607.589844 721.785156 604.75 721.832031 " fill-opacity="1" fill-rule="nonzero"/></g></g></g><g clip-path="url(#d4d9e35fd3)"><g clip-path="url(#eeff248b84)"><g clip-path="url(#025657a7f7)"><path fill="#001524" d="M 618 735.507812 C 615.726562 735.542969 612.492188 735.300781 610.671875 732.800781 C 610.277344 732.257812 610.214844 731.574219 610.511719 730.976562 C 610.828125 730.347656 611.480469 729.933594 612.171875 729.921875 C 612.605469 729.914062 613.03125 730.070312 613.367188 730.363281 C 613.765625 730.710938 614.699219 731.121094 616.851562 731.085938 C 619.039062 731.050781 621.621094 730.570312 623.503906 730.222656 C 624.222656 730.089844 624.847656 729.976562 625.332031 729.902344 C 626.132812 729.785156 626.96875 729.625 627.820312 729.464844 C 629.671875 729.113281 631.589844 728.75 633.488281 728.722656 C 634.464844 728.707031 635.34375 728.78125 636.167969 728.949219 C 637 729.113281 637.578125 729.71875 637.679688 730.527344 C 637.785156 731.375 637.3125 732.234375 636.523438 732.609375 C 632.1875 734.691406 626.28125 735.035156 621.535156 735.316406 L 620.449219 735.386719 C 619.671875 735.4375 618.839844 735.492188 618 735.507812 " fill-opacity="1" fill-rule="nonzero"/></g></g></g><g clip-path="url(#bc9193cc8b)"><g clip-path="url(#161f2aba34)"><g clip-path="url(#0b843554d9)"><path fill="#001524" d="M 42.789062 590.0625 C 45.148438 588.410156 47.53125 586.652344 50 584.75 C 59.121094 577.722656 67.832031 569.867188 76.257812 562.273438 C 84.726562 554.636719 93.480469 546.746094 102.691406 539.648438 C 103.042969 539.375 103.394531 539.105469 103.746094 538.835938 C 100.386719 533.960938 103.207031 525.496094 104.464844 521.726562 C 105.714844 517.972656 107.257812 514.128906 109.464844 509.261719 C 109.714844 508.710938 109.949219 508.140625 110.179688 507.566406 C 111.042969 505.441406 111.933594 503.253906 113.769531 501.695312 C 112.910156 502.316406 112.019531 502.972656 111.085938 503.667969 C 109.492188 504.855469 107.910156 506.058594 106.339844 507.273438 C 100.460938 511.800781 94.878906 516.335938 88.195312 521.789062 C 86.375 523.28125 84.554688 524.769531 82.734375 526.261719 C 76.820312 531.105469 70.707031 536.117188 64.585938 540.917969 L 63.734375 541.585938 C 62.871094 542.265625 62 542.949219 61.117188 543.625 C 58.6875 545.5 56.097656 547.40625 53.308594 549.054688 C 53.421875 549.105469 53.527344 549.15625 53.632812 549.21875 C 54.585938 549.769531 55.117188 550.789062 55.050781 551.945312 C 54.894531 554.585938 53.777344 556.90625 52.699219 559.144531 C 52.117188 560.359375 51.5625 561.507812 51.15625 562.699219 C 49.789062 566.6875 48.667969 570.828125 47.585938 574.832031 L 46.972656 577.136719 C 45.816406 581.488281 44.636719 585.945312 42.789062 590.0625 Z M 113.136719 536.609375 C 113.277344 536.765625 113.398438 536.929688 113.507812 537.101562 C 115.105469 539.574219 116.679688 542.183594 118.28125 545.011719 C 118.351562 544.464844 118.421875 543.921875 118.488281 543.386719 C 119.8125 532.949219 121.917969 522.945312 124.753906 513.652344 C 124.847656 513.359375 124.976562 513.09375 125.148438 512.855469 C 123.207031 507.507812 121.296875 502.628906 119.324219 498.015625 C 119.238281 498.0625 119.148438 498.117188 119.0625 498.167969 C 117.585938 499.058594 116.15625 500.007812 114.671875 501.054688 C 115.566406 500.582031 116.667969 500.523438 117.582031 500.925781 C 118.507812 501.328125 119.117188 502.140625 119.25 503.15625 C 119.636719 506.023438 118.496094 508.328125 117.390625 510.558594 C 117.15625 511.039062 116.917969 511.523438 116.691406 512.019531 L 115.703125 514.167969 C 115.617188 515.007812 115.523438 515.832031 115.398438 516.613281 C 114.761719 520.667969 114.222656 525.003906 113.703125 530.261719 C 113.492188 532.375 113.308594 534.492188 113.136719 536.609375 Z M 123.972656 555.792969 C 125.027344 557.933594 126.109375 560.230469 127.304688 562.832031 C 128.332031 553.394531 129.996094 544.136719 132.378906 534.578125 C 130.890625 529.800781 129.558594 525.679688 128.292969 521.90625 C 126.445312 529.851562 125.140625 538.4375 124.308594 548.007812 C 124.082031 550.597656 124.011719 553.273438 123.972656 555.792969 Z M 132.605469 574.824219 C 133.441406 576.769531 134.265625 578.714844 135.09375 580.660156 C 135.628906 574.523438 136.542969 568.773438 137.867188 563.199219 C 138.003906 562.628906 138.3125 562.144531 138.761719 561.800781 C 139.265625 561.410156 139.90625 561.226562 140.5625 561.25 C 139.171875 556.792969 137.820312 552.351562 136.488281 547.96875 C 136.15625 546.867188 135.820312 545.765625 135.484375 544.664062 C 134.273438 551.609375 133.417969 559.285156 132.878906 567.980469 C 132.726562 570.449219 132.652344 572.90625 132.605469 574.824219 Z M 140.910156 594.191406 C 142.019531 596.714844 143.042969 598.992188 144.027344 601.117188 C 144.285156 593.335938 145.148438 586.527344 146.683594 580.011719 C 146.6875 579.992188 146.695312 579.976562 146.699219 579.953125 C 145.289062 575.925781 143.9375 571.859375 142.628906 567.78125 C 141.464844 574.449219 140.835938 581.347656 140.757812 588.34375 C 140.742188 590.042969 140.789062 591.855469 140.910156 594.191406 Z M 150.414062 613.980469 C 150.980469 615.054688 151.558594 616.136719 152.144531 617.207031 C 152.753906 614.09375 153.351562 611.621094 153.585938 610.644531 C 153.726562 610.0625 154.042969 609.570312 154.5 609.214844 C 155.125 608.734375 155.960938 608.558594 156.773438 608.695312 C 154.855469 602.691406 152.871094 596.566406 150.683594 590.824219 C 150.101562 596.621094 149.925781 602.59375 150.160156 608.636719 C 150.222656 610.417969 150.3125 612.199219 150.414062 613.980469 Z M 157.394531 626.414062 C 158.769531 628.726562 160.222656 631.105469 161.734375 633.519531 C 162.144531 631.914062 162.621094 630.171875 163.203125 628.160156 C 161.589844 623.675781 160.089844 619.089844 158.648438 614.578125 C 158.015625 618.457031 157.597656 622.425781 157.394531 626.414062 Z M 167.347656 642.15625 C 168.484375 643.851562 169.679688 645.601562 171.027344 647.539062 C 171.085938 647.285156 171.148438 647.03125 171.210938 646.78125 C 169.988281 644.445312 168.800781 641.976562 167.664062 639.402344 C 167.539062 640.335938 167.433594 641.253906 167.347656 642.15625 Z M 196.496094 640.277344 C 196.160156 643.417969 195.03125 646.414062 193.933594 649.316406 C 193.632812 650.117188 193.335938 650.910156 193.058594 651.695312 C 192.972656 651.929688 192.886719 652.175781 192.792969 652.433594 C 193.804688 651.644531 194.820312 650.847656 195.828125 650.050781 C 196.308594 649.207031 196.675781 648.476562 196.984375 647.769531 L 197.316406 646.996094 C 198.203125 644.929688 199.039062 642.976562 200.703125 641.132812 C 200.800781 641.027344 200.90625 640.929688 201.015625 640.84375 C 201.675781 640.335938 202.539062 640.199219 203.277344 640.484375 C 203.539062 640.585938 203.769531 640.734375 203.964844 640.921875 C 204.0625 640.585938 204.164062 640.25 204.261719 639.917969 C 204.757812 638.25 205.234375 636.640625 205.574219 635.007812 C 202.585938 636.867188 199.5 638.597656 196.496094 640.277344 Z M 218.207031 643.402344 C 218.28125 643.34375 218.359375 643.292969 218.433594 643.246094 C 216.917969 641.476562 215.335938 639.597656 213.808594 637.648438 C 213.765625 637.917969 213.71875 638.179688 213.667969 638.441406 C 213.796875 638.546875 213.917969 638.65625 214.027344 638.769531 C 215.441406 640.207031 216.8125 641.78125 218.128906 643.46875 C 218.15625 643.445312 218.179688 643.421875 218.207031 643.402344 Z M 229.765625 661.921875 C 230.378906 661.449219 231.171875 661.210938 231.941406 661.246094 C 230.851562 659.050781 229.601562 656.996094 228.167969 655.042969 C 227.179688 653.695312 226.15625 652.386719 225.089844 651.082031 C 225.570312 653 225.894531 654.898438 226.15625 656.667969 C 227.117188 658.691406 228.019531 660.796875 228.878906 663.007812 C 229.078125 662.589844 229.375 662.222656 229.765625 661.921875 Z M 235.9375 672.84375 C 235.871094 672.550781 235.804688 672.265625 235.738281 671.980469 C 235.746094 672.277344 235.753906 672.574219 235.753906 672.875 C 235.816406 672.859375 235.875 672.847656 235.9375 672.84375 Z M 237.644531 693.550781 C 237.976562 693.625 238.292969 693.75 238.582031 693.921875 C 238.425781 692.203125 238.269531 690.492188 238.125 688.777344 C 238.011719 687.445312 237.882812 686.019531 237.730469 684.542969 C 237.578125 685.710938 237.480469 686.847656 237.445312 687.96875 C 237.378906 689.820312 237.441406 691.609375 237.632812 693.433594 Z M 238.710938 706.066406 C 239.574219 712.964844 240.132812 719.757812 240.378906 726.324219 C 240.417969 725.207031 240.433594 724.085938 240.433594 722.960938 C 240.429688 715.625 239.871094 708.203125 239.222656 700.933594 C 239.109375 701.960938 239.011719 702.984375 238.914062 703.988281 C 238.851562 704.683594 238.785156 705.375 238.710938 706.066406 Z M 125.320312 725.933594 C 130.652344 728.773438 136.496094 730.988281 142.164062 733.132812 C 143.285156 733.558594 144.402344 733.980469 145.503906 734.40625 C 159.207031 739.675781 171.746094 743.902344 183.835938 747.339844 C 196.175781 750.84375 208.28125 754.054688 220.691406 754.835938 C 224.015625 755.042969 227.253906 755.183594 230.3125 754.636719 C 230.414062 753.972656 230.535156 753.308594 230.652344 752.652344 C 230.878906 751.402344 231.089844 750.222656 231.183594 749.136719 C 231.617188 744.167969 231.851562 739.316406 231.871094 734.722656 C 231.894531 729.359375 231.738281 723.988281 231.40625 718.746094 C 231.253906 718.5625 231.128906 718.355469 231.035156 718.132812 C 230.167969 716.042969 230.453125 713.515625 230.820312 711.511719 C 230.46875 707.859375 230.054688 704.480469 229.570312 701.1875 C 228.4375 693.53125 226.523438 682.136719 222.960938 671.234375 C 220.59375 669.125 220.070312 665.894531 219.769531 662.730469 C 217.195312 656.71875 214.269531 651.550781 210.84375 646.976562 C 210.753906 647.058594 210.1875 647.597656 210.1875 647.597656 C 209.425781 648.792969 208.59375 649.851562 207.707031 650.75 C 207.613281 650.84375 207.515625 650.929688 207.414062 651.007812 C 206.941406 651.371094 206.375 651.570312 205.773438 651.59375 C 203.992188 653.117188 202.085938 654.660156 199.960938 656.300781 L 199.441406 656.695312 C 199.1875 657.039062 198.933594 657.378906 198.679688 657.703125 C 198.492188 657.945312 198.28125 658.160156 198.050781 658.335938 C 197.5625 658.714844 196.992188 658.9375 196.382812 658.988281 C 192.363281 661.9375 188.273438 664.726562 185.136719 666.835938 C 184.800781 667.0625 184.449219 667.222656 184.085938 667.320312 C 183.941406 668.570312 183.269531 669.769531 182.191406 670.597656 C 181.207031 671.355469 180.050781 671.691406 178.933594 671.539062 C 177.855469 671.394531 176.902344 670.808594 176.179688 669.847656 C 175.457031 668.894531 174.746094 667.921875 174.03125 666.949219 C 173.796875 666.992188 173.570312 666.996094 173.34375 666.96875 C 172.761719 666.890625 172.238281 666.585938 171.875 666.109375 C 170.863281 664.792969 170.183594 663.140625 169.839844 661.199219 C 169.839844 661.199219 169.007812 660.046875 168.878906 659.867188 C 168.554688 660.660156 168.167969 661.445312 167.617188 662.253906 C 167.421875 662.542969 167.183594 662.792969 166.914062 663 C 166.117188 663.613281 165.085938 663.828125 164.082031 663.59375 C 163.09375 663.359375 162.277344 662.710938 161.84375 661.808594 C 159.769531 657.519531 158.992188 652.417969 159.46875 646.226562 C 159.105469 646.496094 158.671875 646.632812 158.203125 646.625 C 156.292969 646.585938 154.6875 645.902344 153.4375 644.578125 C 151.839844 642.898438 150.871094 640.265625 150.503906 636.601562 C 150.066406 636.875 149.519531 636.964844 148.976562 636.847656 C 148.34375 636.714844 147.820312 636.332031 147.535156 635.792969 C 145.558594 632.121094 144.476562 627.226562 144.117188 620.410156 C 142.933594 618.160156 141.789062 615.910156 140.71875 613.714844 C 140.605469 613.859375 140.472656 613.988281 140.320312 614.101562 C 139.714844 614.570312 138.941406 614.726562 138.253906 614.53125 C 137.621094 614.34375 137.117188 613.871094 136.886719 613.226562 C 135.574219 609.636719 134.8125 605.371094 134.550781 600.191406 C 133.664062 598.148438 132.753906 596.003906 131.730469 593.5625 C 131.613281 594.578125 131.484375 595.539062 131.332031 596.46875 C 131.246094 597.007812 130.96875 597.488281 130.542969 597.8125 C 129.984375 598.246094 129.230469 598.367188 128.578125 598.128906 C 127.925781 597.898438 127.460938 597.359375 127.300781 596.652344 C 126.195312 591.757812 125.777344 586.375 125.980469 579.726562 C 124.90625 577.152344 123.964844 574.925781 123.089844 572.890625 C 122.921875 574.023438 122.71875 575.085938 122.484375 576.109375 C 122.367188 576.632812 122.101562 577.0625 121.707031 577.363281 C 121.148438 577.792969 120.375 577.910156 119.632812 577.671875 C 118.835938 577.410156 118.199219 576.78125 117.976562 576.027344 C 116.621094 571.433594 116.21875 565.96875 116.710938 558.859375 C 115.261719 555.890625 113.847656 553.132812 112.425781 550.515625 C 112.359375 553.128906 112.1875 555.777344 111.441406 558.304688 C 111.3125 558.734375 111.050781 559.113281 110.6875 559.390625 C 110.074219 559.863281 109.238281 560.019531 108.503906 559.796875 C 107.839844 559.597656 107.328125 559.113281 107.109375 558.464844 C 105.824219 554.703125 106.007812 550.476562 106.257812 546.671875 C 97.980469 553.132812 90.050781 560.289062 82.375 567.214844 C 79.957031 569.394531 77.542969 571.578125 75.113281 573.738281 C 74.046875 574.683594 72.972656 575.652344 71.894531 576.621094 C 67.304688 580.742188 62.5625 585 57.550781 588.863281 C 52.878906 592.464844 48.527344 595.277344 44.308594 597.429688 C 56.917969 608.269531 69 619.953125 80.695312 631.269531 C 101.179688 651.085938 122.359375 671.574219 146.6875 687.707031 C 147.582031 687.300781 148.585938 687.4375 149.332031 688.105469 C 150.207031 688.890625 151.097656 689.652344 151.992188 690.414062 C 152.957031 691.242188 153.925781 692.070312 154.871094 692.921875 C 154.886719 692.9375 155.371094 693.367188 155.5 693.488281 C 156.863281 694.75 157.160156 696.453125 156.296875 697.988281 C 156.15625 698.691406 155.808594 699.308594 155.273438 699.785156 C 152.605469 702.171875 149.824219 704.359375 147.695312 706 C 146.535156 706.894531 145.363281 707.78125 144.195312 708.667969 C 143.035156 709.546875 141.871094 710.429688 140.71875 711.316406 C 134.410156 716.179688 129.332031 720.574219 125.320312 725.933594 Z M 237.121094 763.59375 C 236.242188 764.269531 235.046875 764.5625 233.832031 764.394531 C 232.964844 764.277344 232.171875 763.925781 231.5625 763.402344 C 229.640625 763.757812 227.675781 763.96875 226.085938 763.984375 C 212.992188 764.136719 199.605469 760.734375 187.019531 757.238281 C 172.71875 753.265625 158.125 748.386719 143.644531 742.746094 C 142.480469 742.292969 141.308594 741.839844 140.128906 741.390625 C 132.277344 738.371094 124.15625 735.25 117.050781 730.75 C 114.953125 729.425781 114.828125 726.785156 115.914062 724.996094 C 119.871094 718.507812 125.417969 712.625 133.378906 706.488281 C 137.605469 703.234375 142.09375 700.234375 146.140625 697.605469 C 124.875 684.945312 106.464844 667.597656 90.824219 652.257812 C 82.769531 644.351562 74.761719 636.136719 67.019531 628.191406 C 57.703125 618.632812 48.070312 608.75 38.285156 599.347656 C 37.714844 599.167969 37.222656 598.820312 36.847656 598.351562 C 36.066406 598.566406 35.207031 598.429688 34.527344 597.941406 C 33.609375 597.277344 33.28125 596.167969 33.671875 595.042969 C 37.046875 585.347656 39.253906 578.136719 41.058594 570.933594 C 41.316406 569.921875 41.5625 568.78125 41.832031 567.566406 C 43.046875 562 44.53125 555.234375 48.089844 551.226562 C 47.433594 551.097656 46.824219 550.683594 46.445312 550.054688 C 45.835938 549.046875 46.035156 547.859375 46.933594 547.171875 C 46.957031 547.152344 47.058594 547.078125 47.085938 547.0625 C 48.53125 546.117188 50.011719 545.054688 51.613281 543.824219 C 54.457031 541.628906 57.253906 539.210938 59.960938 536.871094 C 61.605469 535.445312 63.246094 534.023438 64.890625 532.660156 C 68.742188 529.460938 72.578125 526.238281 76.410156 523.019531 C 81.097656 519.082031 85.941406 515.007812 90.75 511.046875 L 93.503906 508.765625 C 97.160156 505.734375 100.933594 502.605469 104.765625 499.652344 C 107.710938 497.382812 110.398438 495.4375 112.992188 493.707031 L 113.117188 493.625 C 118.023438 490.332031 121.230469 489.246094 123.203125 490.207031 C 123.917969 490.554688 124.796875 491.34375 124.925781 493.109375 C 125 494.128906 124.605469 495.078125 123.867188 495.648438 C 123.816406 495.6875 123.761719 495.726562 123.710938 495.761719 C 123.695312 495.785156 123.679688 495.808594 123.660156 495.832031 C 132.664062 513.148438 138.710938 531.875 144.5625 550 C 148.285156 561.539062 152.136719 573.460938 156.707031 584.890625 C 159.652344 592.25 162.320312 599.824219 164.902344 607.152344 C 166.238281 610.949219 167.621094 614.867188 169.027344 618.722656 C 169.699219 618.921875 170.3125 619.335938 170.730469 619.894531 C 171.3125 620.660156 171.488281 621.613281 171.230469 622.566406 L 170.90625 623.785156 C 172.390625 627.710938 174.007812 631.871094 175.8125 635.996094 C 176.617188 635.554688 177.625 635.632812 178.480469 636.214844 C 178.925781 636.519531 179.261719 636.921875 179.480469 637.371094 C 179.941406 637.039062 180.398438 636.710938 180.855469 636.386719 C 180.941406 636.304688 181.03125 636.226562 181.121094 636.160156 C 181.867188 635.582031 182.738281 635.351562 183.632812 635.484375 C 184.273438 635.578125 184.886719 635.859375 185.417969 636.28125 C 187.058594 635.289062 188.917969 634.445312 190.59375 633.683594 C 191.640625 633.210938 192.632812 632.757812 193.308594 632.382812 C 198.65625 629.398438 203.085938 626.800781 207.308594 623.816406 C 208.59375 622.910156 210.332031 622.722656 211.742188 623.335938 C 212.976562 623.871094 213.785156 624.953125 213.96875 626.304688 C 214.015625 626.636719 214.054688 626.976562 214.09375 627.320312 C 222.660156 635.566406 231.386719 644.558594 237.402344 654.425781 C 244.152344 665.503906 245.351562 677.203125 246.621094 689.582031 L 247.054688 693.765625 C 248.179688 704.546875 249.339844 715.691406 248.90625 726.714844 C 248.628906 733.695312 248.167969 745.285156 243.695312 752.746094 C 244.355469 755.453125 243.410156 757.878906 240.945312 759.777344 C 240.261719 760.304688 239.453125 760.796875 238.539062 761.242188 C 238.453125 761.660156 238.292969 762.074219 238.066406 762.488281 C 237.832031 762.917969 237.511719 763.292969 237.121094 763.59375 " fill-opacity="1" fill-rule="nonzero"/></g></g></g><g clip-path="url(#3e5fddba82)"><g clip-path="url(#9dfc17971b)"><g clip-path="url(#7b03da2e3e)"><path fill="#001524" d="M 532.210938 481.722656 C 533.199219 482.53125 534.242188 483.339844 535.355469 484.167969 C 539.464844 487.222656 543.878906 490 548.148438 492.691406 C 552.4375 495.390625 556.871094 498.183594 561.023438 501.269531 C 561.183594 501.386719 561.339844 501.503906 561.496094 501.621094 C 563.179688 499.597656 567.140625 499.78125 568.90625 499.863281 C 570.664062 499.945312 572.496094 500.140625 574.847656 500.496094 C 575.113281 500.539062 575.382812 500.570312 575.660156 500.597656 C 576.671875 500.710938 577.714844 500.828125 578.605469 501.425781 C 578.234375 501.132812 577.847656 500.832031 577.4375 500.515625 C 576.734375 499.976562 576.027344 499.445312 575.320312 498.917969 C 572.671875 496.949219 570.054688 495.109375 566.914062 492.90625 C 566.058594 492.308594 565.199219 491.707031 564.339844 491.109375 C 561.554688 489.164062 558.667969 487.152344 555.875 485.113281 L 555.488281 484.832031 C 555.09375 484.542969 554.695312 484.25 554.296875 483.957031 C 553.203125 483.140625 552.074219 482.265625 551.03125 481.269531 C 551.023438 481.324219 551.011719 481.375 551 481.429688 C 550.878906 481.902344 550.507812 482.253906 550.003906 482.363281 C 548.855469 482.617188 547.726562 482.417969 546.640625 482.230469 C 546.046875 482.125 545.492188 482.027344 544.929688 481.996094 C 543.058594 481.894531 541.152344 481.914062 539.304688 481.9375 L 538.246094 481.949219 C 536.246094 481.984375 534.195312 482.015625 532.210938 481.722656 Z M 563.585938 505.375 C 563.535156 505.453125 563.480469 505.523438 563.421875 505.589844 C 562.554688 506.574219 561.628906 507.5625 560.609375 508.589844 C 560.855469 508.554688 561.09375 508.519531 561.332031 508.480469 C 565.960938 507.785156 570.496094 507.480469 574.8125 507.570312 C 574.949219 507.574219 575.082031 507.597656 575.203125 507.644531 C 577.257812 506.164062 579.113281 504.761719 580.851562 503.359375 C 580.820312 503.328125 580.785156 503.296875 580.753906 503.265625 C 580.195312 502.742188 579.613281 502.242188 578.988281 501.734375 C 579.296875 502.058594 579.457031 502.523438 579.394531 502.964844 C 579.335938 503.410156 579.058594 503.765625 578.640625 503.949219 C 577.460938 504.460938 576.335938 504.25 575.25 504.046875 C 575.015625 504.003906 574.78125 503.960938 574.539062 503.921875 L 573.5 503.757812 C 573.128906 503.824219 572.765625 503.882812 572.417969 503.925781 C 570.605469 504.140625 568.683594 504.433594 566.371094 504.847656 C 565.441406 505.011719 564.511719 505.191406 563.585938 505.375 Z M 556.683594 512.328125 C 555.894531 513.039062 555.042969 513.777344 554.074219 514.601562 C 558.238281 513.902344 562.402344 513.496094 566.78125 513.363281 C 568.644531 512.148438 570.246094 511.082031 571.710938 510.082031 C 568.085938 510.253906 564.253906 510.730469 560.054688 511.53125 C 558.921875 511.746094 557.765625 512.039062 556.683594 512.328125 Z M 549.582031 518.320312 C 548.851562 518.914062 548.117188 519.503906 547.386719 520.089844 C 550.078125 519.578125 552.648438 519.277344 555.195312 519.167969 C 555.453125 519.160156 555.699219 519.234375 555.898438 519.382812 C 556.128906 519.550781 556.285156 519.804688 556.355469 520.085938 C 558.09375 518.953125 559.832031 517.839844 561.546875 516.738281 C 561.976562 516.464844 562.40625 516.1875 562.839844 515.910156 C 559.71875 516.230469 556.328125 516.792969 552.542969 517.613281 C 551.46875 517.84375 550.410156 518.109375 549.582031 518.320312 Z M 542.296875 524.214844 C 541.351562 524.996094 540.5 525.707031 539.707031 526.386719 C 543.070312 525.558594 546.085938 525.105469 549.0625 524.972656 C 549.070312 524.972656 549.078125 524.972656 549.089844 524.972656 C 550.644531 523.882812 552.21875 522.8125 553.808594 521.761719 C 550.8125 522.066406 547.785156 522.632812 544.78125 523.445312 C 544.050781 523.640625 543.28125 523.882812 542.296875 524.214844 Z M 534.976562 530.671875 C 534.582031 531.046875 534.191406 531.425781 533.804688 531.804688 C 535.210938 531.691406 536.339844 531.644531 536.785156 531.628906 C 537.050781 531.617188 537.300781 531.695312 537.507812 531.847656 C 537.789062 532.058594 537.964844 532.394531 538.003906 532.757812 C 540.34375 531.210938 542.722656 529.621094 544.917969 527.992188 C 542.367188 528.445312 539.789062 529.089844 537.230469 529.917969 C 536.476562 530.164062 535.722656 530.414062 534.976562 530.671875 Z M 530.496094 535.164062 C 529.671875 536.03125 528.828125 536.941406 527.980469 537.878906 C 528.71875 537.863281 529.519531 537.855469 530.453125 537.859375 C 532.175781 536.628906 533.957031 535.433594 535.714844 534.269531 C 533.976562 534.46875 532.226562 534.769531 530.496094 535.164062 Z M 524.960938 541.324219 C 524.375 542.015625 523.769531 542.742188 523.101562 543.550781 C 523.21875 543.542969 523.335938 543.539062 523.449219 543.539062 C 524.300781 542.730469 525.214844 541.925781 526.179688 541.128906 C 525.765625 541.1875 525.359375 541.253906 524.960938 541.324219 Z M 529.289062 553.574219 C 527.902344 553.808594 526.484375 553.6875 525.109375 553.570312 C 524.730469 553.539062 524.355469 553.503906 523.984375 553.480469 C 523.875 553.472656 523.757812 553.46875 523.636719 553.457031 C 524.097656 553.796875 524.558594 554.132812 525.023438 554.46875 C 525.441406 554.574219 525.800781 554.640625 526.140625 554.6875 L 526.511719 554.734375 C 527.503906 554.867188 528.4375 554.988281 529.429688 555.476562 C 529.488281 555.507812 529.542969 555.539062 529.59375 555.578125 C 529.886719 555.796875 530.050781 556.152344 530.019531 556.5 C 530.007812 556.625 529.96875 556.742188 529.914062 556.847656 C 530.070312 556.847656 530.226562 556.851562 530.378906 556.855469 C 531.152344 556.863281 531.898438 556.875 532.640625 556.824219 C 531.480469 555.765625 530.371094 554.65625 529.289062 553.574219 Z M 530.574219 563.242188 C 530.605469 563.269531 530.636719 563.296875 530.667969 563.320312 C 531.242188 562.460938 531.855469 561.554688 532.503906 560.664062 C 532.382812 560.679688 532.265625 560.691406 532.148438 560.703125 C 532.117188 560.769531 532.085938 560.832031 532.050781 560.894531 C 531.605469 561.671875 531.097656 562.449219 530.535156 563.21875 C 530.546875 563.226562 530.5625 563.234375 530.574219 563.242188 Z M 524.042969 570.425781 C 524.320312 570.632812 524.515625 570.945312 524.59375 571.277344 C 525.402344 570.546875 526.132812 569.761719 526.792969 568.914062 C 527.25 568.328125 527.6875 567.730469 528.117188 567.117188 C 527.355469 567.554688 526.582031 567.921875 525.855469 568.25 C 525.105469 568.902344 524.3125 569.542969 523.472656 570.179688 C 523.671875 570.214844 523.867188 570.296875 524.042969 570.425781 Z M 520.113281 574.386719 C 520.230469 574.324219 520.34375 574.261719 520.457031 574.199219 C 520.332031 574.238281 520.207031 574.277344 520.078125 574.3125 C 520.09375 574.339844 520.105469 574.363281 520.113281 574.386719 Z M 511.457031 577.621094 C 511.46875 577.773438 511.453125 577.921875 511.414062 578.066406 C 512.128906 577.792969 512.84375 577.519531 513.558594 577.25 C 514.117188 577.039062 514.710938 576.8125 515.324219 576.570312 C 514.804688 576.644531 514.308594 576.742188 513.824219 576.859375 C 513.023438 577.058594 512.265625 577.300781 511.507812 577.601562 Z M 506.230469 579.589844 C 503.382812 580.792969 500.542969 581.851562 497.761719 582.75 C 498.242188 582.632812 498.726562 582.503906 499.207031 582.367188 C 502.347656 581.480469 505.457031 580.34375 508.488281 579.1875 C 508.035156 579.265625 507.585938 579.347656 507.144531 579.425781 C 506.839844 579.480469 506.535156 579.535156 506.230469 579.589844 Z M 484.027344 533.460938 C 483.457031 536.085938 483.214844 538.855469 482.980469 541.539062 C 482.933594 542.070312 482.890625 542.597656 482.839844 543.121094 C 482.242188 549.625 481.945312 555.5 481.9375 561.089844 C 481.929688 566.792969 482.015625 572.363281 483.179688 577.769531 C 483.492188 579.214844 483.824219 580.621094 484.429688 581.863281 C 484.726562 581.824219 485.023438 581.796875 485.320312 581.769531 C 485.878906 581.714844 486.410156 581.660156 486.886719 581.570312 C 489.066406 581.15625 491.171875 580.671875 493.140625 580.125 C 495.4375 579.484375 497.71875 578.769531 499.921875 577.996094 C 499.980469 577.90625 500.054688 577.828125 500.136719 577.761719 C 500.929688 577.136719 502.042969 576.953125 502.949219 576.871094 C 504.464844 576.277344 505.863281 575.695312 507.214844 575.085938 C 510.355469 573.679688 515 571.480469 519.234375 568.640625 C 519.851562 567.371094 521.171875 566.757812 522.488281 566.246094 C 524.75 564.417969 526.609375 562.542969 528.152344 560.523438 C 528.109375 560.496094 527.808594 560.316406 527.808594 560.316406 C 527.203125 560.136719 526.652344 559.90625 526.160156 559.636719 C 526.109375 559.609375 526.058594 559.578125 526.015625 559.542969 C 525.800781 559.386719 525.648438 559.167969 525.566406 558.910156 C 524.699219 558.332031 523.804688 557.703125 522.847656 556.992188 L 522.617188 556.816406 C 522.4375 556.75 522.261719 556.683594 522.09375 556.613281 C 521.96875 556.5625 521.851562 556.5 521.746094 556.421875 C 521.527344 556.257812 521.363281 556.039062 521.265625 555.785156 C 519.515625 554.421875 517.832031 553.007812 516.546875 551.921875 C 516.410156 551.804688 516.300781 551.671875 516.214844 551.53125 C 515.664062 551.617188 515.066406 551.476562 514.582031 551.113281 C 514.136719 550.785156 513.855469 550.332031 513.785156 549.832031 C 513.71875 549.355469 513.855469 548.875 514.175781 548.449219 C 514.5 548.027344 514.828125 547.605469 515.160156 547.179688 C 515.113281 547.085938 515.082031 546.988281 515.066406 546.890625 C 515.027344 546.628906 515.097656 546.371094 515.257812 546.15625 C 515.699219 545.5625 516.324219 545.074219 517.113281 544.691406 C 517.113281 544.691406 517.503906 544.199219 517.566406 544.121094 C 517.1875 544.078125 516.804688 544.007812 516.394531 543.871094 C 516.246094 543.820312 516.109375 543.75 515.988281 543.660156 C 515.628906 543.390625 515.414062 542.976562 515.394531 542.519531 C 515.375 542.066406 515.550781 541.640625 515.886719 541.34375 C 517.472656 539.9375 519.5625 538.988281 522.265625 538.445312 C 522.109375 538.324219 521.996094 538.152344 521.945312 537.953125 C 521.730469 537.128906 521.828125 536.359375 522.242188 535.664062 C 522.769531 534.777344 523.78125 534.046875 525.304688 533.445312 C 525.136719 533.292969 525.03125 533.066406 525.015625 532.820312 C 524.996094 532.535156 525.097656 532.261719 525.292969 532.078125 C 526.625 530.789062 528.589844 529.734375 531.464844 528.757812 C 532.28125 527.976562 533.105469 527.214844 533.917969 526.492188 C 533.84375 526.460938 533.769531 526.417969 533.703125 526.371094 C 533.429688 526.167969 533.269531 525.855469 533.269531 525.535156 C 533.273438 525.242188 533.414062 524.972656 533.664062 524.792969 C 535.042969 523.796875 536.773438 522.957031 538.960938 522.21875 C 539.726562 521.59375 540.535156 520.945312 541.457031 520.210938 C 541.007812 520.285156 540.582031 520.34375 540.164062 520.390625 C 539.921875 520.421875 539.683594 520.359375 539.492188 520.21875 C 539.242188 520.03125 539.097656 519.722656 539.121094 519.414062 C 539.140625 519.105469 539.316406 518.84375 539.597656 518.6875 C 541.558594 517.625 543.8125 516.792969 546.683594 516.078125 C 547.65625 515.308594 548.496094 514.636719 549.261719 514.015625 C 548.753906 514.082031 548.273438 514.121094 547.808594 514.144531 C 547.570312 514.15625 547.355469 514.09375 547.179688 513.964844 C 546.925781 513.777344 546.785156 513.460938 546.796875 513.113281 C 546.8125 512.742188 547.003906 512.390625 547.300781 512.207031 C 549.101562 511.070312 551.390625 510.238281 554.496094 509.589844 C 555.589844 508.613281 556.601562 507.671875 557.546875 506.75 C 556.421875 507.035156 555.265625 507.28125 554.09375 507.265625 C 553.894531 507.265625 553.703125 507.199219 553.539062 507.074219 C 553.261719 506.871094 553.09375 506.53125 553.101562 506.191406 C 553.105469 505.882812 553.253906 505.605469 553.503906 505.433594 C 554.957031 504.425781 556.789062 503.996094 558.449219 503.644531 C 554.683594 500.882812 550.664062 498.351562 546.769531 495.902344 C 545.542969 495.132812 544.320312 494.363281 543.101562 493.585938 C 542.566406 493.242188 542.023438 492.898438 541.476562 492.554688 C 539.160156 491.089844 536.765625 489.574219 534.503906 487.894531 C 532.398438 486.332031 530.667969 484.808594 529.238281 483.261719 C 526.125 489.96875 522.582031 496.550781 519.152344 502.925781 C 513.148438 514.085938 506.9375 525.625 502.96875 537.988281 C 503.25 538.320312 503.316406 538.765625 503.121094 539.167969 C 502.890625 539.636719 502.671875 540.109375 502.453125 540.582031 C 502.214844 541.097656 501.976562 541.609375 501.726562 542.117188 C 501.722656 542.125 501.597656 542.386719 501.5625 542.457031 C 501.1875 543.191406 500.492188 543.523438 499.730469 543.339844 C 499.414062 543.367188 499.109375 543.289062 498.839844 543.121094 C 497.496094 542.265625 496.222656 541.339844 495.261719 540.628906 C 494.738281 540.238281 494.21875 539.84375 493.699219 539.453125 C 493.183594 539.0625 492.664062 538.671875 492.144531 538.285156 C 489.300781 536.171875 486.808594 534.53125 484.027344 533.460938 Z M 481.417969 585.859375 C 481.023438 585.566406 480.75 585.089844 480.675781 584.550781 C 480.625 584.160156 480.679688 583.78125 480.828125 583.457031 C 480.445312 582.675781 480.117188 581.863281 479.917969 581.183594 C 478.269531 575.597656 478.109375 569.457031 478.085938 563.648438 C 478.058594 557.046875 478.382812 550.210938 479.046875 543.332031 C 479.101562 542.78125 479.152344 542.222656 479.203125 541.664062 C 479.546875 537.941406 479.898438 534.085938 480.96875 530.5 C 481.28125 529.445312 482.394531 529.070312 483.292969 529.320312 C 486.550781 530.230469 489.738281 531.894531 493.324219 534.558594 C 495.226562 535.972656 497.054688 537.535156 498.667969 538.949219 C 501.515625 528.316406 506.71875 518.34375 511.394531 509.796875 C 513.804688 505.390625 516.351562 500.972656 518.816406 496.699219 C 521.785156 491.558594 524.847656 486.242188 527.691406 480.917969 C 527.699219 480.652344 527.789062 480.398438 527.945312 480.179688 C 527.757812 479.875 527.710938 479.488281 527.839844 479.136719 C 528.011719 478.664062 528.449219 478.390625 528.976562 478.421875 C 533.53125 478.695312 536.886719 478.769531 540.1875 478.671875 C 540.652344 478.65625 541.167969 478.625 541.722656 478.59375 C 544.25 478.441406 547.324219 478.261719 549.46875 479.296875 C 549.445312 479.003906 549.550781 478.691406 549.773438 478.453125 C 550.132812 478.070312 550.664062 478.011719 551.066406 478.3125 C 551.078125 478.320312 551.121094 478.355469 551.132812 478.367188 C 551.710938 478.871094 552.34375 479.378906 553.066406 479.914062 C 554.347656 480.867188 555.722656 481.769531 557.050781 482.644531 C 557.859375 483.175781 558.664062 483.707031 559.449219 484.246094 C 561.28125 485.507812 563.125 486.761719 564.964844 488.011719 C 567.214844 489.542969 569.542969 491.125 571.820312 492.703125 L 573.132812 493.605469 C 574.871094 494.804688 576.664062 496.042969 578.390625 497.324219 C 579.71875 498.308594 580.875 499.226562 581.929688 500.125 L 581.980469 500.171875 C 583.980469 501.875 584.835938 503.113281 584.660156 504.074219 C 584.597656 504.421875 584.367188 504.894531 583.625 505.164062 C 583.199219 505.316406 582.746094 505.261719 582.414062 505.015625 C 582.390625 505 582.367188 504.980469 582.347656 504.960938 C 582.332031 504.960938 582.320312 504.953125 582.308594 504.949219 C 575.984375 510.894531 568.699219 515.746094 561.652344 520.441406 C 557.164062 523.429688 552.523438 526.515625 548.1875 529.851562 C 545.390625 532.003906 542.472656 534.058594 539.648438 536.050781 C 538.183594 537.082031 536.671875 538.144531 535.195312 539.214844 C 535.1875 539.523438 535.085938 539.835938 534.898438 540.085938 C 534.640625 540.425781 534.253906 540.617188 533.816406 540.621094 L 533.253906 540.628906 C 531.753906 541.738281 530.167969 542.933594 528.621094 544.203125 C 528.90625 544.496094 528.996094 544.9375 528.851562 545.371094 C 528.773438 545.597656 528.640625 545.792969 528.476562 545.941406 C 528.671875 546.097656 528.871094 546.253906 529.0625 546.410156 C 529.109375 546.4375 529.152344 546.464844 529.191406 546.496094 C 529.527344 546.746094 529.734375 547.089844 529.785156 547.488281 C 529.824219 547.773438 529.777344 548.070312 529.660156 548.351562 C 530.28125 548.933594 530.867188 549.625 531.394531 550.25 C 531.726562 550.640625 532.039062 551.011719 532.28125 551.253906 C 534.203125 553.183594 535.851562 554.765625 537.636719 556.214844 C 538.183594 556.652344 538.472656 557.375 538.378906 558.050781 C 538.300781 558.644531 537.933594 559.121094 537.378906 559.363281 C 537.242188 559.425781 537.101562 559.480469 536.960938 559.539062 C 534.464844 564.203125 531.671875 569.023438 528.171875 572.789062 C 524.25 577.019531 519.386719 578.945312 514.242188 580.984375 L 512.503906 581.671875 C 508.023438 583.457031 503.394531 585.300781 498.625 586.449219 C 495.601562 587.171875 490.585938 588.375 486.855469 587.363281 C 485.773438 587.972656 484.625 587.859375 483.511719 587.035156 C 483.203125 586.804688 482.898438 586.519531 482.59375 586.179688 C 482.40625 586.195312 482.210938 586.175781 482.003906 586.128906 C 481.792969 586.082031 481.59375 585.988281 481.417969 585.859375 " fill-opacity="1" fill-rule="nonzero"/></g></g></g></svg>