<svg xmlns="http://www.w3.org/2000/svg" xmlns:xlink="http://www.w3.org/1999/xlink" width="90" zoomAndPan="magnify" viewBox="0 0 67.5 67.499996" height="90" preserveAspectRatio="xMidYMid meet" version="1.0"><path fill="#f1e081" d="M 66.988281 33.488281 C 66.988281 51.992188 51.992188 66.988281 33.488281 66.988281 C 14.988281 66.988281 -0.0117188 51.992188 -0.0117188 33.488281 C -0.0117188 14.988281 14.988281 -0.0117188 33.488281 -0.0117188 C 51.992188 -0.0117188 66.988281 14.988281 66.988281 33.488281 " fill-opacity="1" fill-rule="nonzero"/><path stroke-linecap="round" transform="matrix(0.0250668, 0, 0, -0.0250668, -19.802803, 86.781412)" fill="none" stroke-linejoin="round" d="M 1986.799973 2143.026619 L 1986.799973 1646.541582 L 1683.548284 1646.541582 L 1683.548284 1189.170714 " stroke="#040505" stroke-width="50" stroke-opacity="1" stroke-miterlimit="10"/><path stroke-linecap="round" transform="matrix(0.0250668, 0, 0, -0.0250668, -19.802803, 86.781412)" fill="none" stroke-linejoin="round" d="M 2138.425818 2143.026619 L 2138.425818 1462.502401 L 1986.799973 1462.502401 L 1986.799973 1293.423222 " stroke="#040505" stroke-width="50" stroke-opacity="1" stroke-miterlimit="10"/><path stroke-linecap="round" transform="matrix(0.0250668, 0, 0, -0.0250668, -19.802803, 86.781412)" fill="none" stroke-linejoin="round" d="M 1472.238268 1581.870743 L 1472.238268 1937.326603 L 1775.489957 1937.326603 L 1775.489957 2143.026619 " stroke="#040505" stroke-width="50" stroke-opacity="1" stroke-miterlimit="10"/><path stroke-linecap="round" transform="matrix(0.0250668, 0, 0, -0.0250668, -19.802803, 86.781412)" fill="none" stroke-linejoin="round" d="M 2265.27416 2143.026619 L 2265.27416 1646.541582 L 2568.52585 1646.541582 L 2568.52585 1189.170714 " stroke="#040505" stroke-width="50" stroke-opacity="1" stroke-miterlimit="10"/><path stroke-linecap="round" transform="matrix(0.0250668, 0, 0, -0.0250668, -19.802803, 86.781412)" fill="none" stroke-linejoin="round" d="M 2779.835865 1581.870743 L 2779.835865 1937.326603 L 2476.428343 1937.326603 L 2476.428343 2143.026619 " stroke="#040505" stroke-width="50" stroke-opacity="1" stroke-miterlimit="10"/><path fill="#ffffff" d="M 42.351562 54.75 C 42.351562 53.519531 43.351562 52.519531 44.582031 52.519531 C 45.8125 52.519531 46.808594 53.519531 46.808594 54.75 C 46.808594 55.976562 45.8125 56.972656 44.582031 56.972656 C 43.351562 56.972656 42.351562 55.976562 42.351562 54.75 " fill-opacity="1" fill-rule="nonzero"/><path stroke-linecap="round" transform="matrix(0.0250668, 0, 0, -0.0250668, -19.802803, 86.781412)" fill="none" stroke-linejoin="round" d="M 2479.54501 1277.839887 C 2479.54501 1326.927391 2519.438346 1366.820727 2568.52585 1366.820727 C 2617.613353 1366.820727 2657.350856 1326.927391 2657.350856 1277.839887 C 2657.350856 1228.908217 2617.613353 1189.170714 2568.52585 1189.170714 C 2519.438346 1189.170714 2479.54501 1228.908217 2479.54501 1277.839887 Z M 2479.54501 1277.839887 " stroke="#040505" stroke-width="50" stroke-opacity="1" stroke-miterlimit="10"/><path fill="#ffffff" d="M 27.773438 54.75 C 27.773438 53.519531 28.769531 52.519531 30 52.519531 C 31.230469 52.519531 32.226562 53.519531 32.226562 54.75 C 32.226562 55.976562 31.230469 56.972656 30 56.972656 C 28.769531 56.972656 27.773438 55.976562 27.773438 54.75 " fill-opacity="1" fill-rule="nonzero"/><path stroke-linecap="round" transform="matrix(0.0250668, 0, 0, -0.0250668, -19.802803, 86.781412)" fill="none" stroke-linejoin="round" d="M 1897.974966 1277.839887 C 1897.974966 1326.927391 1937.712469 1366.820727 1986.799973 1366.820727 C 2035.887477 1366.820727 2075.62498 1326.927391 2075.62498 1277.839887 C 2075.62498 1228.908217 2035.887477 1189.170714 1986.799973 1189.170714 C 1937.712469 1189.170714 1897.974966 1228.908217 1897.974966 1277.839887 Z M 1897.974966 1277.839887 " stroke="#040505" stroke-width="50" stroke-opacity="1" stroke-miterlimit="10"/><path fill="#ffffff" d="M 20.167969 56.585938 C 20.167969 55.355469 21.167969 54.359375 22.398438 54.359375 C 23.628906 54.359375 24.625 55.355469 24.625 56.585938 C 24.625 57.816406 23.628906 58.8125 22.398438 58.8125 C 21.167969 58.8125 20.167969 57.816406 20.167969 56.585938 " fill-opacity="1" fill-rule="nonzero"/><path stroke-linecap="round" transform="matrix(0.0250668, 0, 0, -0.0250668, -19.802803, 86.781412)" fill="none" stroke-linejoin="round" d="M 1594.567444 1204.598215 C 1594.567444 1253.685719 1634.46078 1293.423222 1683.548284 1293.423222 C 1732.635787 1293.423222 1772.37329 1253.685719 1772.37329 1204.598215 C 1772.37329 1155.510712 1732.635787 1115.773209 1683.548284 1115.773209 C 1634.46078 1115.773209 1594.567444 1155.510712 1594.567444 1204.598215 Z M 1594.567444 1204.598215 " stroke="#040505" stroke-width="50" stroke-opacity="1" stroke-miterlimit="10"/><path fill="#ffffff" d="M 14.875 46.03125 C 14.875 44.800781 15.871094 43.808594 17.101562 43.808594 C 18.332031 43.808594 19.328125 44.800781 19.328125 46.03125 C 19.328125 47.261719 18.332031 48.261719 17.101562 48.261719 C 15.871094 48.261719 14.875 47.261719 14.875 46.03125 " fill-opacity="1" fill-rule="nonzero"/><path stroke-linecap="round" transform="matrix(0.0250668, 0, 0, -0.0250668, -19.802803, 86.781412)" fill="none" stroke-linejoin="round" d="M 1383.413261 1625.659913 C 1383.413261 1674.747417 1423.150764 1714.329087 1472.238268 1714.329087 C 1521.325772 1714.329087 1561.063275 1674.747417 1561.063275 1625.659913 C 1561.063275 1576.57241 1521.325772 1536.679073 1472.238268 1536.679073 C 1423.150764 1536.679073 1383.413261 1576.57241 1383.413261 1625.659913 Z M 1383.413261 1625.659913 " stroke="#040505" stroke-width="50" stroke-opacity="1" stroke-miterlimit="10"/><path fill="#ffffff" d="M 47.648438 47.289062 C 47.648438 46.058594 48.648438 45.058594 49.878906 45.058594 C 51.109375 45.058594 52.105469 46.058594 52.105469 47.289062 C 52.105469 48.515625 51.109375 49.515625 49.878906 49.515625 C 48.648438 49.515625 47.648438 48.515625 47.648438 47.289062 " fill-opacity="1" fill-rule="nonzero"/><path stroke-linecap="round" transform="matrix(0.0250668, 0, 0, -0.0250668, -19.802803, 86.781412)" fill="none" stroke-linejoin="round" d="M 2690.855026 1575.481576 C 2690.855026 1624.56908 2730.748362 1664.462416 2779.835865 1664.462416 C 2828.923369 1664.462416 2868.660872 1624.56908 2868.660872 1575.481576 C 2868.660872 1526.549906 2828.923369 1486.65657 2779.835865 1486.65657 C 2730.748362 1486.65657 2690.855026 1526.549906 2690.855026 1575.481576 Z M 2690.855026 1575.481576 " stroke="#040505" stroke-width="50" stroke-opacity="1" stroke-miterlimit="10"/><path fill="#ffffff" d="M 20.160156 34.621094 C 14.949219 34.621094 10.707031 30.378906 10.707031 25.167969 C 10.707031 20.472656 14.234375 16.457031 18.832031 15.808594 C 19.390625 11.128906 23.390625 7.539062 28.15625 7.539062 C 30.605469 7.539062 32.964844 8.503906 34.707031 10.199219 C 36.257812 9.15625 38.054688 8.605469 39.945312 8.605469 C 45.125 8.605469 49.339844 12.820312 49.339844 17.996094 C 49.339844 18.027344 49.339844 18.054688 49.339844 18.082031 C 53.328125 18.746094 56.269531 22.179688 56.269531 26.292969 C 56.269531 30.886719 52.535156 34.621094 47.941406 34.621094 L 20.160156 34.621094 " fill-opacity="1" fill-rule="nonzero"/><path fill="#040505" d="M 28.15625 6.910156 C 23.230469 6.910156 19.074219 10.503906 18.277344 15.261719 C 16.164062 15.660156 14.234375 16.730469 12.753906 18.328125 C 11.03125 20.195312 10.078125 22.621094 10.078125 25.167969 C 10.078125 30.722656 14.601562 35.246094 20.160156 35.246094 L 47.941406 35.246094 C 52.882812 35.246094 56.898438 31.230469 56.898438 26.292969 C 56.898438 24.050781 56.066406 21.910156 54.554688 20.253906 C 53.320312 18.902344 51.71875 17.96875 49.957031 17.5625 C 49.730469 12.238281 45.324219 7.980469 39.945312 7.980469 C 38.097656 7.980469 36.335938 8.46875 34.777344 9.410156 C 32.957031 7.8125 30.597656 6.910156 28.15625 6.910156 Z M 28.15625 8.164062 C 30.722656 8.164062 33.03125 9.265625 34.636719 11.023438 C 36.109375 9.898438 37.949219 9.230469 39.945312 9.230469 C 44.789062 9.230469 48.714844 13.15625 48.714844 17.996094 C 48.714844 18.207031 48.703125 18.417969 48.691406 18.628906 C 52.59375 19.003906 55.644531 22.292969 55.644531 26.292969 C 55.644531 30.546875 52.195312 33.992188 47.941406 33.992188 L 20.160156 33.992188 C 15.285156 33.992188 11.332031 30.039062 11.332031 25.167969 C 11.332031 20.542969 14.886719 16.753906 19.410156 16.371094 C 19.699219 11.792969 23.503906 8.164062 28.15625 8.164062 " fill-opacity="1" fill-rule="nonzero"/><path stroke-linecap="round" transform="matrix(0.0250668, 0, 0, -0.0250668, -19.802803, 86.781412)" fill="none" stroke-linejoin="round" d="M 1997.240807 2586.372485 C 1997.240807 2469.341643 2091.831648 2374.750802 2208.86249 2374.750802 " stroke="#040505" stroke-width="50" stroke-opacity="1" stroke-miterlimit="10"/><path stroke-linecap="round" transform="matrix(0.0250668, 0, 0, -0.0250668, -19.802803, 86.781412)" fill="none" stroke-linejoin="round" d="M 2044.925811 2446.434141 C 1881.300799 2526.99998 1683.548284 2459.524142 1602.982444 2296.054963 " stroke="#040505" stroke-width="50" stroke-opacity="1" stroke-miterlimit="10"/><path stroke-linecap="round" transform="matrix(0.0250668, 0, 0, -0.0250668, -19.802803, 86.781412)" fill="none" stroke-linejoin="round" d="M 2417.367505 2907.545009 C 2288.337496 3036.575018 2079.36498 3036.575018 1950.490804 2907.545009 " stroke="#040505" stroke-width="50" stroke-opacity="1" stroke-miterlimit="10"/><path stroke-linecap="round" transform="matrix(0.0250668, 0, 0, -0.0250668, -19.802803, 86.781412)" fill="none" stroke-linejoin="round" d="M 2969.952546 2290.75663 C 2969.952546 2398.437471 2882.685873 2485.704144 2775.160865 2485.704144 C 2667.480024 2485.704144 2580.213351 2398.437471 2580.213351 2290.75663 " stroke="#040505" stroke-width="50" stroke-opacity="1" stroke-miterlimit="10"/></svg>