<svg xmlns="http://www.w3.org/2000/svg" xmlns:xlink="http://www.w3.org/1999/xlink" width="100" zoomAndPan="magnify" viewBox="0 0 75 74.999997" height="100" preserveAspectRatio="xMidYMid meet" version="1.0"><defs><clipPath id="45810abc6a"><path d="M 7.5 0 L 62 0 L 62 65 L 7.5 65 Z M 7.5 0 " clip-rule="nonzero"/></clipPath><clipPath id="d3029417f8"><path d="M 34 4.375 L 36 4.375 L 36 8 L 34 8 Z M 34 4.375 " clip-rule="nonzero"/></clipPath><clipPath id="c617fdec95"><path d="M 21.265625 12 L 25 12 L 25 15 L 21.265625 15 Z M 21.265625 12 " clip-rule="nonzero"/></clipPath><clipPath id="934329cb23"><path d="M 44 13 L 48.265625 13 L 48.265625 16 L 44 16 Z M 44 13 " clip-rule="nonzero"/></clipPath></defs><path fill="#010101" d="M 38.019531 28.226562 C 37.988281 27.195312 37.945312 26.128906 38.152344 25.113281 C 38.371094 24.058594 38.933594 23.203125 39.460938 22.289062 C 40.375 20.695312 41.222656 18.960938 41.328125 17.09375 C 41.414062 15.539062 40.992188 13.90625 39.957031 12.71875 C 38.839844 11.441406 37.140625 10.984375 35.515625 10.855469 C 33.875 10.722656 32.007812 10.710938 30.675781 11.832031 C 29.398438 12.914062 28.707031 14.683594 28.496094 16.316406 C 28.273438 18.046875 28.582031 19.84375 29.414062 21.378906 C 29.871094 22.214844 30.476562 22.960938 30.882812 23.824219 C 31.304688 24.722656 31.460938 25.722656 31.484375 26.707031 C 31.503906 27.554688 31.394531 28.433594 32.304688 28.816406 C 33.203125 29.195312 34.328125 29.273438 35.292969 29.261719 C 36.070312 29.25 37.34375 29.28125 37.863281 28.574219 C 38.367188 27.882812 37.910156 27 37.96875 26.238281 C 37.976562 26.140625 37.828125 26.125 37.800781 26.214844 C 37.632812 26.832031 37.863281 27.6875 37.515625 28.21875 C 37.074219 28.898438 35.609375 28.789062 34.890625 28.761719 C 34.40625 28.742188 33.921875 28.6875 33.449219 28.589844 C 33.070312 28.511719 32.296875 28.433594 32.144531 28 C 32.035156 27.6875 32.214844 27.136719 32.222656 26.804688 C 32.234375 26.402344 32.210938 26 32.15625 25.601562 C 31.949219 23.972656 31.140625 22.769531 30.308594 21.40625 C 29.476562 20.03125 29.089844 18.457031 29.203125 16.851562 C 29.304688 15.335938 29.867188 13.691406 30.960938 12.609375 C 32.144531 11.429688 33.96875 11.492188 35.515625 11.621094 C 37.011719 11.742188 38.574219 12.179688 39.542969 13.414062 C 40.449219 14.574219 40.707031 16.15625 40.535156 17.59375 C 40.304688 19.503906 39.492188 21.253906 38.625 22.945312 C 38.210938 23.742188 37.878906 24.53125 37.753906 25.429688 C 37.625 26.363281 37.679688 27.292969 37.742188 28.226562 C 37.753906 28.402344 38.027344 28.40625 38.019531 28.226562 Z M 38.019531 28.226562 " fill-opacity="1" fill-rule="nonzero"/><path fill="#010101" d="M 31.808594 28.089844 C 31.417969 28.628906 31.769531 29.371094 32.246094 29.726562 C 32.996094 30.289062 34.132812 30.300781 35.023438 30.253906 C 35.859375 30.210938 36.996094 30.109375 37.679688 29.578125 C 38.109375 29.246094 38.289062 28.554688 37.8125 28.179688 C 37.699219 28.089844 37.546875 28.230469 37.648438 28.347656 C 38.269531 29.050781 37.035156 29.480469 36.558594 29.601562 C 35.925781 29.765625 35.277344 29.851562 34.621094 29.855469 C 33.449219 29.863281 31.816406 29.65625 31.925781 28.125 C 31.929688 28.054688 31.84375 28.046875 31.808594 28.089844 Z M 31.808594 28.089844 " fill-opacity="1" fill-rule="nonzero"/><path fill="#010101" d="M 31.945312 29.566406 C 31.429688 31.183594 33.84375 31.375 34.816406 31.253906 C 35.59375 31.152344 36.492188 30.917969 37.15625 30.488281 C 37.558594 30.226562 37.863281 29.6875 37.472656 29.285156 C 37.433594 29.246094 37.359375 29.273438 37.363281 29.332031 C 37.425781 30.40625 35.542969 30.730469 34.761719 30.835938 C 33.753906 30.96875 32.269531 30.914062 32.144531 29.59375 C 32.132812 29.484375 31.980469 29.453125 31.945312 29.566406 Z M 31.945312 29.566406 " fill-opacity="1" fill-rule="nonzero"/><path fill="#010101" d="M 32.773438 30.9375 C 32.671875 31.300781 32.941406 31.632812 33.210938 31.847656 C 33.652344 32.203125 34.257812 32.273438 34.800781 32.203125 C 35.636719 32.09375 36.761719 31.480469 36.71875 30.5 C 36.714844 30.394531 36.5625 30.332031 36.511719 30.441406 C 36.175781 31.140625 35.734375 31.621094 34.949219 31.800781 C 34.515625 31.898438 34.046875 31.890625 33.640625 31.703125 C 33.238281 31.523438 33.097656 31.210938 32.796875 30.929688 C 32.789062 30.921875 32.777344 30.925781 32.773438 30.9375 Z M 32.773438 30.9375 " fill-opacity="1" fill-rule="nonzero"/><path fill="#010101" d="M 33.757812 31.847656 C 33.695312 32.328125 34.25 32.675781 34.671875 32.660156 C 35.0625 32.644531 35.683594 32.277344 35.554688 31.8125 C 35.535156 31.730469 35.4375 31.714844 35.375 31.765625 C 35.117188 31.984375 35.035156 32.316406 34.628906 32.328125 C 34.257812 32.339844 34.050781 32.0625 33.828125 31.820312 C 33.800781 31.789062 33.761719 31.816406 33.757812 31.847656 Z M 33.757812 31.847656 " fill-opacity="1" fill-rule="nonzero"/><path fill="#010101" d="M 34.332031 32.347656 C 34.386719 32.464844 34.566406 32.476562 34.679688 32.46875 C 34.824219 32.453125 34.964844 32.394531 35.082031 32.308594 C 35.199219 32.214844 35.222656 32.039062 35.082031 31.953125 C 34.898438 31.839844 34.660156 31.761719 34.464844 31.890625 C 34.292969 32 34.226562 32.21875 34.328125 32.398438 C 34.433594 32.3125 34.542969 32.230469 34.652344 32.144531 C 34.59375 32.089844 34.535156 32.042969 34.453125 32.03125 C 34.375 32.015625 34.328125 32.054688 34.253906 32.078125 C 34.171875 32.101562 34.15625 32.214844 34.230469 32.257812 C 34.230469 32.257812 34.273438 32.335938 34.277344 32.339844 C 34.300781 32.375 34.332031 32.40625 34.359375 32.4375 C 34.511719 32.636719 34.777344 32.386719 34.683594 32.1875 C 34.742188 32.3125 34.648438 32.199219 34.71875 32.242188 C 34.761719 32.269531 34.828125 32.285156 34.875 32.308594 C 34.863281 32.199219 34.847656 32.09375 34.835938 31.984375 C 34.765625 32.0625 34.691406 32.113281 34.589844 32.148438 C 34.507812 32.175781 34.410156 32.175781 34.347656 32.242188 C 34.320312 32.273438 34.316406 32.3125 34.332031 32.347656 Z M 34.332031 32.347656 " fill-opacity="1" fill-rule="nonzero"/><path fill="#010101" d="M 30.738281 15.375 C 30.183594 16.238281 30.132812 17.609375 30.765625 18.445312 C 30.800781 18.496094 30.894531 18.472656 30.871094 18.402344 C 30.703125 17.902344 30.523438 17.449219 30.507812 16.910156 C 30.492188 16.382812 30.625 15.894531 30.796875 15.402344 C 30.8125 15.363281 30.757812 15.34375 30.738281 15.375 Z M 30.738281 15.375 " fill-opacity="1" fill-rule="nonzero"/><path fill="#010101" d="M 31.105469 16.09375 C 31.035156 16.617188 31.082031 17.230469 31.273438 17.722656 C 31.292969 17.773438 31.359375 17.753906 31.351562 17.703125 C 31.273438 17.160156 31.191406 16.640625 31.164062 16.09375 C 31.160156 16.054688 31.109375 16.058594 31.105469 16.09375 Z M 31.105469 16.09375 " fill-opacity="1" fill-rule="nonzero"/><path fill="#010101" d="M 38.183594 14.417969 C 38.652344 15.09375 38.914062 15.714844 38.960938 16.546875 C 38.964844 16.636719 39.085938 16.632812 39.097656 16.546875 C 39.199219 15.761719 38.863281 14.855469 38.222656 14.378906 C 38.199219 14.363281 38.167969 14.398438 38.183594 14.417969 Z M 38.183594 14.417969 " fill-opacity="1" fill-rule="nonzero"/><path fill="#010101" d="M 37.949219 15.628906 C 38.085938 16.117188 38.222656 16.574219 38.300781 17.082031 C 38.3125 17.15625 38.425781 17.136719 38.429688 17.0625 C 38.433594 16.570312 38.304688 16.007812 38.023438 15.597656 C 38 15.558594 37.9375 15.582031 37.949219 15.628906 Z M 37.949219 15.628906 " fill-opacity="1" fill-rule="nonzero"/><g clip-path="url(#45810abc6a)"><path fill="#010101" d="M 60.386719 31.898438 C 62.65625 24.90625 60.425781 17.050781 56.457031 11.140625 C 54.386719 8.054688 51.570312 5.421875 48.214844 3.597656 C 44.683594 1.679688 40.707031 0.671875 36.714844 0.449219 C 28.703125 0 20.28125 2.898438 14.539062 8.609375 C 12.988281 10.152344 11.65625 11.953125 10.757812 13.957031 C 9.828125 16.023438 9.246094 18.195312 8.863281 20.429688 C 8.03125 25.277344 7.503906 30.3125 8.179688 35.210938 C 8.8125 39.796875 10.871094 43.925781 12.511719 48.199219 C 13.289062 50.222656 13.925781 52.292969 14.34375 54.421875 C 14.539062 55.417969 14.648438 56.253906 14.691406 57.285156 C 14.714844 57.761719 14.800781 58.242188 14.800781 58.71875 C 14.796875 59.246094 14.6875 59.773438 14.648438 60.296875 C 14.566406 61.296875 14.375 62.226562 13.953125 63.136719 C 13.632812 63.820312 14.523438 64.347656 14.957031 63.726562 C 15.523438 62.917969 16.058594 62.046875 16.46875 61.144531 C 16.886719 60.226562 17.085938 59.246094 17.292969 58.261719 C 17.730469 56.171875 17.417969 53.84375 16.984375 51.78125 C 16.089844 47.566406 13.9375 43.714844 12.546875 39.664062 C 11.828125 37.5625 11.3125 35.40625 11.144531 33.203125 C 10.964844 30.828125 11.074219 28.441406 11.308594 26.074219 C 11.703125 22.054688 12.210938 17.589844 14.296875 14.042969 C 15.3125 12.3125 16.652344 10.886719 18.234375 9.5625 C 19.574219 8.445312 21.242188 7.375 22.890625 6.527344 C 24.507812 5.699219 26.007812 5.121094 27.863281 4.605469 C 28.785156 4.351562 29.722656 4.140625 30.667969 3.976562 C 30.886719 3.9375 31.109375 3.902344 31.332031 3.867188 C 31.363281 3.863281 31.644531 3.820312 31.414062 3.855469 C 31.523438 3.839844 31.636719 3.824219 31.746094 3.8125 C 32.222656 3.753906 32.699219 3.710938 33.175781 3.675781 C 34.101562 3.613281 35.03125 3.59375 35.957031 3.621094 C 36.8125 3.644531 37.898438 3.730469 38.597656 3.820312 C 39.289062 3.910156 40.363281 4.117188 41.1875 4.316406 C 42.113281 4.542969 43.023438 4.820312 43.917969 5.144531 C 45.40625 5.691406 47.054688 6.496094 48.558594 7.472656 C 48.910156 7.703125 49.257812 7.941406 49.597656 8.1875 C 49.765625 8.3125 49.9375 8.4375 50.101562 8.566406 C 49.933594 8.4375 50.140625 8.601562 50.164062 8.617188 C 50.34375 8.769531 50.53125 8.914062 50.71875 9.058594 C 50.550781 8.929688 50.996094 9.285156 51.027344 9.3125 C 51.191406 9.445312 51.351562 9.582031 51.511719 9.722656 C 51.847656 10.015625 52.175781 10.320312 52.5 10.632812 C 54.976562 13.042969 56.90625 15.84375 58.25 19.042969 C 59.597656 22.242188 60.175781 25.78125 60.039062 29.25 C 60.003906 30.109375 59.929688 30.972656 59.824219 31.824219 C 59.785156 32.15625 60.289062 32.191406 60.386719 31.898438 Z M 60.386719 31.898438 " fill-opacity="1" fill-rule="nonzero"/></g><path fill="#010101" d="M 60.464844 26.417969 C 59.074219 28.023438 58.914062 30.554688 59.390625 32.550781 C 59.660156 33.679688 60.214844 34.703125 61.007812 35.542969 C 61.769531 36.355469 62.796875 36.894531 63.507812 37.757812 C 64.835938 39.367188 62.789062 40.753906 61.613281 41.664062 C 60.777344 42.308594 59.988281 42.96875 59.390625 43.851562 C 58.847656 44.660156 58.484375 45.585938 58.277344 46.539062 C 57.835938 48.578125 57.972656 50.683594 57.964844 52.757812 C 57.953125 54.585938 57.910156 56.625 56.816406 58.175781 C 55.472656 60.078125 52.976562 60.101562 50.886719 59.953125 C 48.503906 59.78125 46.175781 59.414062 43.789062 59.78125 C 40.976562 60.214844 38.636719 61.976562 37.902344 64.816406 C 37.523438 66.277344 37.539062 67.808594 37.570312 69.308594 C 37.585938 70.171875 37.605469 71.035156 37.621094 71.898438 C 37.632812 72.390625 37.644531 72.878906 37.707031 73.367188 C 37.777344 73.929688 38.035156 74.257812 38.40625 74.660156 C 38.699219 74.980469 39.3125 75.003906 39.601562 74.660156 C 39.890625 74.320312 40.152344 74.035156 40.246094 73.582031 C 40.328125 73.175781 40.316406 72.742188 40.3125 72.332031 C 40.300781 71.539062 40.28125 70.746094 40.269531 69.953125 C 40.246094 68.726562 40.164062 67.425781 40.355469 66.226562 C 40.535156 65.078125 40.953125 64.132812 41.785156 63.429688 C 41.988281 63.261719 41.539062 63.59375 41.914062 63.332031 C 42.035156 63.25 42.160156 63.171875 42.285156 63.101562 C 42.371094 63.050781 42.453125 63.007812 42.542969 62.960938 C 42.523438 62.972656 42.957031 62.777344 42.753906 62.859375 C 43.269531 62.652344 43.8125 62.515625 44.355469 62.417969 C 45.21875 62.261719 46.425781 62.253906 47.449219 62.304688 C 48.65625 62.367188 49.84375 62.507812 51.054688 62.480469 C 53.410156 62.425781 55.984375 61.890625 57.679688 60.109375 C 60.683594 56.953125 59.527344 52.328125 59.75 48.40625 C 59.804688 47.472656 59.941406 46.523438 60.292969 45.652344 C 60.644531 44.78125 61.242188 44.121094 61.960938 43.535156 C 63.425781 42.339844 65.664062 41.210938 65.871094 39.09375 C 66 37.800781 65.289062 36.667969 64.363281 35.839844 C 63.4375 35.007812 62.433594 34.378906 61.660156 33.378906 C 60.953125 32.464844 60.457031 31.390625 60.257812 30.25 C 60.035156 28.972656 60.269531 27.734375 60.613281 26.503906 C 60.636719 26.421875 60.527344 26.347656 60.464844 26.417969 Z M 60.464844 26.417969 " fill-opacity="1" fill-rule="nonzero"/><path fill="#010101" d="M 14.765625 53.820312 C 14.710938 54.128906 14.566406 54.332031 14.566406 54.660156 C 14.566406 55.058594 14.570312 55.457031 14.597656 55.851562 C 14.648438 56.566406 14.644531 57.3125 14.609375 58.027344 C 14.539062 59.503906 14.289062 60.96875 13.804688 62.371094 C 13.328125 63.75 12.597656 64.996094 11.726562 66.160156 C 10.820312 67.378906 9.789062 68.726562 9.792969 70.328125 C 9.792969 71.089844 10.148438 71.933594 10.648438 72.515625 C 11.113281 73.050781 11.578125 73.398438 12.265625 73.605469 C 12.800781 73.769531 13.082031 73.015625 12.636719 72.722656 C 12.070312 72.355469 12.023438 71.710938 12.15625 71.136719 C 12.34375 70.34375 12.503906 69.652344 12.929688 68.949219 C 13.398438 68.175781 13.980469 67.484375 14.484375 66.738281 C 15.039062 65.921875 15.496094 65.039062 15.855469 64.117188 C 16.523438 62.40625 16.875 60.484375 16.753906 58.644531 C 16.691406 57.671875 16.523438 56.726562 16.210938 55.808594 C 16.058594 55.355469 15.890625 54.945312 15.640625 54.539062 C 15.535156 54.363281 15.429688 54.175781 15.265625 54.046875 C 15.132812 53.941406 14.972656 53.90625 14.839844 53.800781 C 14.816406 53.78125 14.773438 53.78125 14.765625 53.820312 Z M 14.765625 53.820312 " fill-opacity="1" fill-rule="nonzero"/><path fill="#ffe845" d="M 42.0625 12.089844 C 39.578125 9.773438 35.769531 9.125 32.640625 10.429688 C 29.574219 11.707031 27.519531 14.769531 27.285156 18.058594 C 26.964844 22.546875 31.449219 26.609375 29.863281 31.042969 C 29.519531 32.003906 30.515625 32.574219 31.285156 32.332031 C 33.335938 32.382812 35.386719 32.433594 37.433594 32.488281 C 37.625 32.492188 37.792969 32.449219 37.9375 32.367188 C 38.5625 33.121094 40.042969 32.929688 39.890625 31.765625 C 39.367188 27.738281 43.222656 24.867188 44.417969 21.304688 C 45.484375 18.132812 44.503906 14.367188 42.0625 12.089844 Z M 34.910156 19.425781 C 34.972656 19.21875 35.042969 19.011719 35.117188 18.804688 C 35.132812 18.820312 35.152344 18.835938 35.171875 18.847656 C 35.082031 19.039062 34.996094 19.234375 34.910156 19.425781 Z M 36.21875 12.105469 C 35.695312 12.40625 35.207031 12.761719 34.765625 13.15625 C 34.835938 12.808594 34.757812 12.425781 34.5625 12.136719 C 35.210938 11.992188 35.878906 11.945312 36.546875 11.992188 C 36.429688 12.011719 36.320312 12.046875 36.21875 12.105469 Z M 37.175781 12.066406 C 37.542969 12.125 37.898438 12.21875 38.246094 12.335938 C 38.238281 12.34375 38.230469 12.347656 38.222656 12.355469 C 38.070312 12.457031 37.949219 12.582031 37.863281 12.71875 C 37.753906 12.421875 37.492188 12.183594 37.175781 12.066406 Z M 38.144531 20.097656 C 38.082031 20.011719 38 19.941406 37.914062 19.878906 C 38.003906 19.691406 38.097656 19.507812 38.195312 19.320312 C 38.199219 19.3125 38.203125 19.304688 38.207031 19.296875 C 38.246094 19.328125 38.289062 19.355469 38.332031 19.382812 C 38.269531 19.621094 38.207031 19.859375 38.144531 20.097656 Z M 38.144531 20.097656 " fill-opacity="1" fill-rule="nonzero"/><path fill="#000000" d="M 27.933594 32.667969 C 28.3125 32.574219 28.714844 32.628906 29.101562 32.652344 C 29.554688 32.6875 30.007812 32.710938 30.460938 32.734375 C 31.347656 32.78125 32.238281 32.816406 33.125 32.84375 C 35.136719 32.914062 37.148438 32.964844 39.15625 33.105469 C 39.378906 33.21875 38.902344 33.636719 38.816406 33.707031 C 38.554688 33.914062 38.246094 34.054688 37.9375 34.164062 C 37.1875 34.421875 36.378906 34.511719 35.59375 34.589844 C 33.84375 34.761719 32.070312 34.730469 30.332031 34.484375 C 29.523438 34.371094 28.675781 34.246094 27.902344 33.984375 C 27.625 33.890625 27.28125 33.726562 27.238281 33.402344 C 27.191406 33 27.59375 32.746094 27.933594 32.667969 Z M 33.136719 20.386719 C 33.183594 20.578125 33.066406 20.917969 32.8125 20.824219 C 32.464844 20.699219 32.542969 20.261719 32.703125 19.867188 C 32.894531 19.992188 33.078125 20.164062 33.136719 20.386719 Z M 32.085938 20.746094 C 32.203125 21.109375 32.535156 21.410156 32.929688 21.394531 C 33.300781 21.375 33.59375 21.066406 33.679688 20.714844 C 33.820312 20.136719 33.441406 19.667969 32.949219 19.375 C 32.980469 19.324219 33.007812 19.28125 33.03125 19.25 C 33.597656 18.414062 34.800781 17.90625 35.699219 18.566406 C 35.847656 18.675781 35.972656 18.828125 36.0625 18.992188 C 35.917969 19.078125 35.785156 19.175781 35.664062 19.289062 C 35.386719 19.550781 35.117188 19.894531 35.078125 20.285156 C 35.039062 20.65625 35.261719 21.015625 35.652344 21.046875 C 36.472656 21.109375 36.847656 20.101562 36.769531 19.4375 C 36.765625 19.390625 36.753906 19.347656 36.742188 19.304688 C 36.875 19.277344 37.007812 19.273438 37.140625 19.296875 C 37.402344 19.347656 37.65625 19.5 37.738281 19.761719 C 37.757812 19.824219 37.765625 19.886719 37.769531 19.949219 C 37.75 19.972656 37.734375 19.996094 37.722656 20.027344 C 37.679688 20.140625 37.640625 20.257812 37.597656 20.371094 C 37.578125 20.386719 37.558594 20.40625 37.539062 20.417969 C 37.398438 20.511719 37.386719 20.667969 37.445312 20.785156 C 36.140625 24.507812 35.550781 28.429688 35.695312 32.378906 C 34.75 32.34375 33.804688 32.316406 32.863281 32.285156 C 32.4375 32.269531 32.015625 32.253906 31.589844 32.234375 C 32.171875 28.175781 31.765625 24.007812 30.382812 20.144531 C 30.375 20.128906 30.367188 20.117188 30.359375 20.101562 C 30.84375 19.660156 31.546875 19.472656 32.179688 19.636719 C 32.035156 20.007812 31.976562 20.398438 32.085938 20.746094 Z M 36.21875 19.84375 C 36.183594 20.054688 36.085938 20.292969 35.90625 20.421875 C 35.839844 20.46875 35.722656 20.535156 35.648438 20.46875 C 35.5625 20.394531 35.664062 20.1875 35.703125 20.113281 C 35.820312 19.890625 36.003906 19.683594 36.226562 19.53125 C 36.234375 19.636719 36.234375 19.742188 36.21875 19.84375 Z M 34.523438 40.050781 C 33.199219 40.539062 31.753906 40.136719 30.773438 39.148438 C 30.261719 38.636719 29.917969 37.996094 29.773438 37.292969 C 29.933594 37.308594 30.09375 37.320312 30.246094 37.332031 C 31.6875 37.464844 33.136719 37.480469 34.578125 37.386719 C 35.324219 37.339844 36.070312 37.257812 36.808594 37.152344 C 36.851562 37.148438 36.894531 37.140625 36.9375 37.132812 C 36.722656 38.449219 35.773438 39.589844 34.523438 40.050781 Z M 39.152344 35.347656 C 38.976562 35.785156 38.597656 36.078125 38.175781 36.261719 C 37.714844 36.457031 37.207031 36.539062 36.714844 36.613281 C 36.113281 36.699219 35.507812 36.765625 34.902344 36.8125 C 33.714844 36.902344 32.519531 36.917969 31.328125 36.855469 C 30.75 36.828125 30.171875 36.78125 29.597656 36.714844 C 29.105469 36.660156 28.585938 36.597656 28.128906 36.394531 C 27.722656 36.210938 27.371094 35.910156 27.300781 35.453125 C 27.25 35.105469 27.351562 34.671875 27.722656 34.550781 C 27.742188 34.542969 27.761719 34.535156 27.78125 34.527344 C 28.011719 34.601562 28.25 34.65625 28.480469 34.707031 C 28.992188 34.820312 29.507812 34.917969 30.027344 34.996094 C 32.058594 35.300781 34.125 35.335938 36.164062 35.078125 C 37.097656 34.960938 38.089844 34.828125 38.902344 34.320312 C 38.945312 34.292969 38.992188 34.261719 39.035156 34.230469 C 39.308594 34.542969 39.300781 34.980469 39.152344 35.347656 Z M 42.933594 20.207031 C 42.019531 24.214844 37.867188 26.949219 37.960938 31.285156 C 37.972656 31.691406 38.027344 32.097656 38.128906 32.492188 C 37.503906 32.457031 36.875 32.425781 36.25 32.398438 C 36.097656 28.390625 36.71875 24.421875 38.082031 20.648438 C 38.453125 20.167969 38.371094 19.425781 37.863281 19.03125 C 37.476562 18.726562 37.007812 18.671875 36.566406 18.785156 C 36.320312 18.304688 35.882812 17.9375 35.335938 17.792969 C 34.507812 17.578125 33.648438 17.839844 33.027344 18.40625 C 32.820312 18.597656 32.609375 18.851562 32.429688 19.140625 C 32.308594 19.101562 32.191406 19.074219 32.078125 19.054688 C 31.230469 18.933594 30.332031 19.234375 29.785156 19.90625 C 29.652344 20.066406 29.734375 20.269531 29.867188 20.351562 C 31.214844 24.136719 31.628906 28.234375 31.039062 32.210938 C 30.59375 32.1875 30.148438 32.167969 29.703125 32.140625 C 29.609375 32.132812 29.515625 32.125 29.417969 32.117188 C 29.421875 32.105469 29.429688 32.089844 29.429688 32.078125 C 30.050781 28.300781 27.707031 24.984375 26.585938 21.550781 C 26.011719 19.800781 25.800781 17.996094 26.265625 16.195312 C 26.710938 14.46875 27.675781 12.886719 29.011719 11.707031 C 31.769531 9.273438 35.976562 9.054688 39.097656 10.929688 C 42.195312 12.796875 43.726562 16.707031 42.933594 20.207031 Z M 40.3125 11.105469 C 37.421875 8.8125 33.136719 8.441406 29.953125 10.34375 C 26.78125 12.234375 25 16.039062 25.554688 19.679688 C 25.847656 21.589844 26.667969 23.371094 27.425781 25.132812 C 28.160156 26.839844 28.917969 28.632812 28.984375 30.519531 C 29 30.988281 28.972656 31.464844 28.898438 31.929688 C 28.886719 31.984375 28.894531 32.035156 28.910156 32.078125 C 28.253906 32.03125 27.574219 32.050781 27.074219 32.5 C 26.5 33.011719 26.613281 33.816406 27.179688 34.238281 C 26.648438 34.699219 26.605469 35.605469 27.007812 36.195312 C 27.488281 36.894531 28.355469 37.125 29.203125 37.234375 C 29.203125 37.25 29.203125 37.269531 29.207031 37.289062 C 29.457031 38.828125 30.636719 40.117188 32.097656 40.613281 C 33.597656 41.125 35.246094 40.625 36.332031 39.503906 C 36.941406 38.875 37.363281 38.070312 37.484375 37.199219 C 37.492188 37.140625 37.484375 37.089844 37.464844 37.042969 C 37.832031 36.96875 38.191406 36.867188 38.535156 36.699219 C 39.09375 36.433594 39.539062 35.984375 39.722656 35.386719 C 39.886719 34.859375 39.808594 34.296875 39.457031 33.875 C 39.574219 33.746094 39.675781 33.601562 39.726562 33.449219 C 39.84375 33.09375 39.65625 32.746094 39.335938 32.589844 C 39.335938 32.589844 39.335938 32.589844 39.332031 32.585938 C 39.320312 32.582031 39.308594 32.574219 39.292969 32.566406 C 39.234375 32.542969 39.183594 32.539062 39.136719 32.550781 C 38.996094 32.542969 38.851562 32.535156 38.710938 32.527344 C 38.097656 30.410156 39.050781 28.242188 40.167969 26.46875 C 41.289062 24.691406 42.660156 23.015625 43.296875 20.980469 C 44.382812 17.5 43.179688 13.378906 40.3125 11.105469 Z M 40.3125 11.105469 " fill-opacity="1" fill-rule="nonzero"/><g clip-path="url(#d3029417f8)"><path fill="#000000" d="M 34.363281 7.175781 C 34.492188 7.210938 34.679688 7.128906 34.703125 6.980469 C 34.808594 6.238281 34.914062 5.492188 35.019531 4.75 C 35.039062 4.601562 34.980469 4.453125 34.824219 4.410156 C 34.695312 4.375 34.503906 4.453125 34.484375 4.601562 C 34.378906 5.347656 34.273438 6.089844 34.167969 6.832031 C 34.148438 6.980469 34.203125 7.132812 34.363281 7.175781 Z M 34.363281 7.175781 " fill-opacity="1" fill-rule="nonzero"/></g><path fill="#000000" d="M 27.023438 8.910156 C 27.121094 9.019531 27.320312 9.015625 27.414062 8.910156 C 27.523438 8.792969 27.515625 8.636719 27.414062 8.519531 C 26.957031 7.988281 26.496094 7.457031 26.035156 6.925781 C 25.941406 6.816406 25.738281 6.820312 25.644531 6.925781 C 25.535156 7.042969 25.542969 7.199219 25.644531 7.316406 C 26.105469 7.847656 26.566406 8.378906 27.023438 8.910156 Z M 27.023438 8.910156 " fill-opacity="1" fill-rule="nonzero"/><g clip-path="url(#c617fdec95)"><path fill="#000000" d="M 24.027344 13.5625 C 23.257812 13.222656 22.488281 12.882812 21.71875 12.539062 C 21.582031 12.480469 21.421875 12.5 21.339844 12.640625 C 21.273438 12.757812 21.304688 12.957031 21.441406 13.019531 C 22.210938 13.359375 22.976562 13.699219 23.746094 14.039062 C 23.882812 14.101562 24.042969 14.082031 24.125 13.941406 C 24.195312 13.824219 24.164062 13.625 24.027344 13.5625 Z M 24.027344 13.5625 " fill-opacity="1" fill-rule="nonzero"/></g><path fill="#000000" d="M 41.9375 9.097656 C 42.429688 8.53125 42.925781 7.964844 43.421875 7.398438 C 43.515625 7.289062 43.535156 7.109375 43.421875 7.003906 C 43.316406 6.910156 43.132812 6.890625 43.03125 7.003906 C 42.535156 7.574219 42.039062 8.140625 41.546875 8.707031 C 41.449219 8.816406 41.429688 8.992188 41.546875 9.097656 C 41.648438 9.195312 41.835938 9.214844 41.9375 9.097656 Z M 41.9375 9.097656 " fill-opacity="1" fill-rule="nonzero"/><g clip-path="url(#934329cb23)"><path fill="#000000" d="M 48.191406 13.625 C 48.109375 13.484375 47.949219 13.464844 47.8125 13.527344 C 46.746094 14.015625 45.683594 14.5 44.617188 14.988281 C 44.480469 15.050781 44.449219 15.25 44.515625 15.367188 C 44.597656 15.507812 44.757812 15.53125 44.894531 15.46875 C 45.960938 14.980469 47.027344 14.492188 48.09375 14.003906 C 48.226562 13.941406 48.261719 13.746094 48.191406 13.625 Z M 48.191406 13.625 " fill-opacity="1" fill-rule="nonzero"/></g></svg>