<svg xmlns="http://www.w3.org/2000/svg" xmlns:xlink="http://www.w3.org/1999/xlink" width="500" zoomAndPan="magnify" viewBox="0 0 375 374.999991" height="500" preserveAspectRatio="xMidYMid meet" version="1.0"><defs><clipPath id="65dac56b92"><path d="M 84 4.230469 L 290.359375 4.230469 L 290.359375 183 L 84 183 Z M 84 4.230469 " clip-rule="nonzero"/></clipPath><clipPath id="59fd9494bc"><path d="M 83.359375 191 L 290 191 L 290 370.980469 L 83.359375 370.980469 Z M 83.359375 191 " clip-rule="nonzero"/></clipPath></defs><g clip-path="url(#65dac56b92)"><path fill="#009d77" d="M 187.203125 4.238281 L 84.015625 182.972656 L 290.394531 182.972656 Z M 187.203125 4.238281 " fill-opacity="1" fill-rule="nonzero"/></g><g clip-path="url(#59fd9494bc)"><path fill="#009d77" d="M 187.859375 370.738281 L 289.738281 191.253906 L 83.359375 192.765625 Z M 187.859375 370.738281 " fill-opacity="1" fill-rule="nonzero"/></g><path stroke-linecap="butt" transform="matrix(1.968356, 0, 0, 1.968356, 6.544941, 170.876401)" fill="none" stroke-linejoin="miter" d="M 106.968845 7.536513 L 106.968845 7.828238 C 106.968845 9.112226 106.460807 10.20173 105.563802 11.098735 C 104.789837 11.99574 103.601107 12.503778 102.293305 12.503778 C 101.301043 12.503778 100.427852 12.188239 99.628089 11.704015 C 99.530847 11.606773 99.530847 11.606773 99.43559 11.509531 C 99.43559 11.509531 99.312549 11.509531 99.312549 11.414274 C 95.849554 8.917742 91.779294 7.536513 87.51455 7.536513 C 84.946575 7.536513 82.352802 8.117979 79.97931 9.112226 C 77.58002 10.104488 75.399027 11.509531 73.50976 13.374984 C 69.755039 17.155504 67.76853 22.122769 67.76853 27.379775 C 67.76853 32.734022 69.755039 37.701288 73.50976 41.481807 L 97.933305 62.122848 C 105.563802 69.658088 107.066087 80.463824 101.301043 86.230853 C 99.530847 88.024863 97.351839 89.50135 95.04979 90.398355 C 92.771556 91.392602 90.300823 91.876826 87.709034 91.876826 L 87.51455 91.876826 C 83.347048 91.876826 79.37403 90.592838 76.103533 88.217362 C 76.006292 88.120121 75.90905 88.024863 75.714567 87.927622 C 75.109287 87.417599 74.406765 86.836133 73.825299 86.230853 C 70.142021 82.547575 68.155512 77.703351 68.155512 72.541602 L 67.76853 72.541602 L 67.76853 92.384864 L 68.155512 92.384864 L 68.155512 92.190381 C 68.155512 90.785337 68.663551 89.695833 69.560556 88.798828 C 70.336505 88.024863 71.547065 87.417599 72.831052 87.417599 C 73.825299 87.417599 74.722304 87.709324 75.496269 88.314604 C 75.617325 88.314604 75.714567 88.411846 75.811808 88.509087 C 79.276788 91.003635 83.347048 92.384864 87.51455 92.384864 L 87.709034 92.384864 C 92.966039 92.287622 97.836063 90.203871 101.614598 86.522578 C 109.344321 78.792855 109.344321 66.193108 101.614598 58.441555 L 77.095796 37.798529 C 73.412518 34.139066 71.039027 29.658009 70.457561 25.101541 C 69.852281 20.523242 71.039027 16.452982 73.825299 13.690524 C 77.482778 10.007246 82.352802 8.020737 87.51455 8.020737 C 89.598301 8.020737 91.682052 8.336276 93.571319 8.917742 C 95.557829 9.620264 97.351839 10.517269 99.022809 11.704015 C 99.12005 11.801256 99.217292 11.898498 99.312549 11.99574 C 100.017055 12.503778 100.719577 13.085244 101.301043 13.690524 C 104.982336 17.349987 106.968845 22.220011 106.968845 27.379775 L 106.968845 27.477017 C 106.968845 32.152557 105.274061 36.514542 102.293305 40.074779 C 102.293305 39.88228 102.293305 39.785038 102.293305 39.687797 C 102.293305 38.985275 102.098822 38.306568 101.614598 37.798529 C 101.106559 37.411547 100.427852 37.096007 99.822572 37.096007 C 99.12005 37.096007 98.441343 37.411547 97.933305 37.798529 C 97.544338 38.306568 97.230783 38.985275 97.230783 39.687797 C 97.230783 40.269262 97.544338 40.971784 97.933305 41.481807 C 98.441343 41.966031 99.12005 42.15853 99.822572 42.15853 C 100.427852 42.15853 101.106559 41.966031 101.614598 41.481807 C 105.371303 37.701288 107.357812 32.734022 107.357812 27.379775 L 107.357812 7.536513 Z M 106.968845 7.536513 " stroke="#000000" stroke-width="3.721864" stroke-opacity="1" stroke-miterlimit="4"/><path stroke-linecap="butt" transform="matrix(0.75, 0, 0, 0.75, 198.499503, 33.808771)" fill="none" stroke-linejoin="miter" d="M 118.604837 243.40603 L 118.604837 191.291443 C 118.604837 177.166442 113.136086 164.187275 103.209002 154.260191 C 100.599627 151.650815 96.46421 151.650815 93.854835 154.260191 C 92.516293 155.593524 91.755876 157.374774 91.755876 159.223733 C 91.755876 160.749774 92.516293 162.593524 93.854835 163.932066 C 95.125668 165.2029 96.974627 165.713316 98.500669 165.713316 C 100.344419 165.713316 101.938169 165.2029 103.209002 163.932066 C 104.479836 162.593524 105.307961 160.749774 105.307961 159.223733 C 105.307961 158.713316 105.307961 158.458108 105.052752 157.885191 C 113.136086 167.301858 117.526711 178.754984 117.526711 191.291443 C 117.526711 204.843527 112.052753 217.572695 102.443377 227.24457 C 92.771501 236.853946 79.985042 242.067488 66.42775 242.067488 L 27.615247 242.067488 L 27.615247 31.004974 C 27.615247 28.650807 28.698581 26.296641 30.479831 24.45289 C 32.323581 22.67164 34.422539 21.843515 37.031914 21.843515 L 37.031914 20.82789 L 5.219412 20.82789 L 5.219412 21.843515 C 7.573579 21.843515 9.927746 22.67164 11.708996 24.45289 C 13.297538 26.296641 14.318371 28.650807 14.318371 31.004974 L 14.318371 232.968529 C 14.318371 235.322696 13.297538 237.676863 11.708996 239.458113 C 9.927746 241.307071 7.573579 242.067488 5.219412 242.067488 L 5.219412 243.40603 Z M 118.604837 243.40603 " stroke="#000000" stroke-width="9.77385" stroke-opacity="1" stroke-miterlimit="4"/><path stroke-linecap="butt" transform="matrix(0.75, 0, 0, 0.75, -7.410317, 3.800248)" fill="none" stroke-linejoin="miter" d="M 173.349184 20.240296 L 155.953349 20.240296 L 155.953349 21.255921 C 158.302308 21.255921 160.651266 22.078837 162.432516 23.854879 C 164.021058 25.698629 165.036683 28.047588 165.036683 30.396546 L 165.036683 231.901768 C 165.036683 234.250726 164.021058 236.599685 162.432516 238.375727 C 160.651266 240.219477 158.302308 240.979893 155.953349 240.979893 L 155.953349 242.313227 L 269.088773 242.313227 L 269.088773 190.318432 C 269.088773 176.224681 263.63044 163.271555 253.724189 153.370513 C 251.120022 150.766346 246.995022 150.766346 244.390855 153.370513 C 241.791897 155.97468 241.791897 160.417388 244.390855 163.021555 C 245.661689 164.28718 247.25023 164.797597 249.026272 164.797597 C 250.870022 164.797597 252.453356 164.28718 253.724189 163.021555 C 254.995023 161.688222 255.817939 159.844471 255.817939 158.323638 C 255.817939 157.813221 255.817939 157.558013 255.567939 156.990305 C 263.63044 166.386139 268.010648 177.813223 268.010648 190.318432 C 268.010648 203.839266 262.547106 216.537184 252.963772 226.188226 C 243.31273 235.776768 230.552313 241.235102 217.031478 240.979893 L 178.302309 240.979893 L 178.302309 123.974677 L 207.442936 123.974677 C 210.047103 123.974677 212.396061 125.052803 213.916895 126.834053 C 215.760645 128.417386 216.77627 130.766345 216.77627 133.370511 L 217.854395 133.370511 L 217.854395 85.250717 L 216.77627 85.250717 L 216.77627 113.818427 C 216.77627 116.167385 215.760645 118.516344 213.916895 120.354886 C 212.396061 121.880927 210.047103 122.959052 207.442936 122.959052 L 178.302309 122.959052 L 178.302309 21.255921 L 217.031478 21.255921 C 230.552313 21.255921 243.31273 26.459046 252.963772 36.110088 C 262.547106 45.698631 268.010648 58.459048 268.010648 71.979882 L 269.088773 71.979882 L 269.088773 20.240296 L 173.349184 19.985087 Z M 173.349184 20.240296 " stroke="#000000" stroke-width="9.751838" stroke-opacity="1" stroke-miterlimit="4"/></svg>